M48
; DRILL file {KiCad 9.0.6} date 2025-11-28T17:16:11-0500
; FORMAT={-:-/ absolute / metric / decimal}
; #@! TF.CreationDate,2025-11-28T17:16:11-05:00
; #@! TF.GenerationSoftware,Kicad,Pcbnew,9.0.6
; #@! TF.FileFunction,Plated,1,2,PTH
FMAT,2
METRIC
; #@! TA.AperFunction,Plated,PTH,ViaDrill
T1C0.300
; #@! TA.AperFunction,Plated,PTH,ViaDrill
T2C0.305
%
G90
G05
T1
X22.16Y-72.315
X22.16Y-87.555
X22.16Y-90.095
X22.16Y-92.635
X22.16Y-95.175
X22.16Y-97.715
X22.16Y-100.255
X22.16Y-102.795
X22.16Y-105.335
X22.16Y-107.875
X22.16Y-110.415
X22.16Y-112.955
X22.16Y-118.035
X22.16Y-120.575
X22.16Y-123.115
X23.548Y-73.438
X24.7Y-72.315
X24.7Y-77.395
X24.7Y-79.935
X24.7Y-82.475
X24.818Y-91.472
X25.58Y-96.552
X27.24Y-82.475
X27.358Y-91.98
X27.866Y-96.806
X28.374Y-112.3
X29.136Y-103.664
X29.136Y-105.95
X29.39Y-101.632
X29.644Y-89.948
X30.66Y-110.776
X30.66Y-115.602
X30.66Y-118.396
X30.914Y-112.554
X31.676Y-88.678
X32.32Y-72.315
X32.32Y-85.015
X32.32Y-97.715
X33.962Y-105.95
X34.216Y-73.184
X34.86Y-72.315
X34.86Y-77.395
X34.86Y-85.015
X34.86Y-97.715
X34.86Y-100.255
X34.978Y-81.566
X36.502Y-118.396
X36.637Y-91.472
X37.01Y-122.46
X37.4Y-77.395
X37.4Y-85.015
X37.4Y-95.175
X37.4Y-97.715
X37.4Y-100.255
X37.4Y-107.875
X37.772Y-102.648
X37.772Y-120.936
X38.026Y-106.458
X38.28Y-91.218
X38.534Y-103.664
X39.296Y-79.534
X39.55Y-72.676
X39.55Y-100.108
X39.94Y-85.015
X39.94Y-97.715
X40.312Y-114.586
X42.48Y-72.315
X42.48Y-74.855
X42.48Y-123.115
X42.598Y-106.204
X43.106Y-96.806
X44.63Y-82.074
X44.884Y-100.616
X45.02Y-72.315
X45.02Y-74.855
X45.02Y-123.115
X46.154Y-93.758
X46.408Y-95.79
X46.916Y-114.586
X47.17Y-105.95
X47.17Y-107.728
X47.56Y-90.095
X47.56Y-97.715
X47.678Y-116.872
X48.186Y-83.852
X49.456Y-114.332
X49.456Y-118.65
X49.456Y-121.952
X49.71Y-107.474
X49.964Y-112.554
X50.472Y-86.138
X51.234Y-114.332
X51.488Y-74.454
X52.25Y-98.584
X52.64Y-90.095
X53.266Y-120.174
X53.774Y-91.726
X53.774Y-121.698
X54.282Y-85.122
X54.536Y-96.806
X55.18Y-105.335
X55.806Y-97.568
X56.822Y-88.424
X57.33Y-114.332
X57.72Y-72.315
X58.346Y-106.966
X59.108Y-81.058
X59.359Y-109.425
X59.616Y-117.126
X59.87Y-90.456
X60.124Y-111.792
X60.378Y-96.298
X61.394Y-113.57
X61.648Y-118.396
X62.41Y-87.916
X62.664Y-106.458
X62.8Y-79.935
X64.188Y-114.586
X64.442Y-110.014
X65.204Y-97.822
X65.204Y-101.632
X65.34Y-85.015
X65.34Y-87.555
X65.34Y-90.095
X65.34Y-92.635
X65.34Y-95.175
X65.34Y-105.335
X65.712Y-112.554
X65.966Y-108.49
X66.474Y-115.602
X67.744Y-81.058
X67.744Y-117.888
X67.88Y-87.555
X67.88Y-90.095
X67.88Y-92.635
X67.88Y-95.175
X68.506Y-103.918
X68.76Y-110.014
X69.014Y-107.22
X69.776Y-115.602
X69.776Y-118.142
X70.42Y-90.095
X70.42Y-92.635
X70.42Y-95.175
X70.42Y-123.115
X70.538Y-97.822
X70.538Y-101.632
X70.792Y-106.458
X71.3Y-86.138
X71.808Y-115.602
X71.808Y-118.142
X72.062Y-108.49
X72.96Y-79.935
X72.96Y-90.095
X72.96Y-92.635
X72.96Y-95.175
X72.96Y-123.115
X73.078Y-88.17
X73.586Y-113.57
X74.094Y-77.756
X74.094Y-109.76
X74.273Y-117.959
X74.856Y-104.68
X75.5Y-72.315
X75.5Y-90.095
X75.5Y-92.635
X75.5Y-95.175
X75.5Y-123.115
X75.618Y-97.822
X75.618Y-101.886
X75.872Y-113.57
X76.38Y-87.154
X76.38Y-111.792
X77.396Y-118.65
X78.04Y-90.095
X78.04Y-92.635
X78.04Y-95.175
X78.04Y-123.115
X78.158Y-97.822
X78.158Y-101.886
X78.666Y-106.458
X80.58Y-90.095
X80.58Y-92.635
X80.58Y-95.175
X80.58Y-110.415
X80.58Y-112.955
X80.58Y-123.115
X81.968Y-78.772
X82.222Y-84.36
X83.12Y-95.175
X83.12Y-110.415
X83.12Y-112.955
X83.12Y-123.115
X85.016Y-105.188
X85.016Y-118.65
X85.66Y-74.855
X85.66Y-123.115
X87.048Y-120.428
X88.2Y-95.175
X88.2Y-107.875
X88.2Y-110.415
X88.2Y-112.955
X88.2Y-123.115
X90.74Y-115.495
X90.74Y-118.035
X90.74Y-120.575
X90.74Y-123.115
X93.28Y-102.795
X93.28Y-105.335
X93.28Y-107.875
X93.28Y-110.415
X93.28Y-112.955
X93.28Y-115.495
X93.28Y-118.035
X93.28Y-120.575
X93.28Y-123.115
X95.82Y-102.795
X95.82Y-105.335
X95.82Y-107.875
X95.82Y-110.415
X95.82Y-112.955
X95.82Y-115.495
X95.82Y-118.035
X95.82Y-120.575
X95.82Y-123.115
X98.36Y-95.175
X98.36Y-105.335
X98.36Y-107.875
X98.36Y-110.415
X98.36Y-112.955
X98.36Y-115.495
X98.36Y-118.035
X98.36Y-120.575
X98.36Y-123.115
X100.256Y-100.108
X100.9Y-72.315
X100.9Y-110.415
X100.9Y-112.955
X100.9Y-115.495
X100.9Y-118.035
X100.9Y-120.575
X100.9Y-123.115
X102.034Y-104.426
X102.542Y-107.22
X103.44Y-72.315
X103.44Y-77.395
X103.44Y-90.095
X103.44Y-97.715
X103.44Y-112.955
X103.44Y-115.495
X103.44Y-118.035
X103.44Y-120.575
X103.44Y-123.115
X184.6Y-104.2
X184.6Y-113.0
T2
X23.548Y-115.602
X23.548Y-119.666
X28.882Y-109.76
X29.898Y-107.22
X29.898Y-117.126
X29.898Y-122.968
X30.182Y-121.728
X30.225Y-114.078
X30.406Y-120.682
X32.184Y-113.57
X33.648Y-111.538
X33.708Y-80.449
X33.962Y-113.316
X34.47Y-112.554
X34.724Y-109.76
X35.667Y-111.03
X35.667Y-112.782
X36.248Y-113.243
X36.683Y-89.694
X38.291Y-109.749
X41.074Y-111.7
X41.328Y-117.634
X41.582Y-108.49
X41.622Y-111.119
X42.09Y-116.618
X42.779Y-109.252
X43.031Y-110.273
X43.36Y-118.142
X44.122Y-119.412
X46.408Y-81.312
X46.481Y-107.039
X46.916Y-111.03
X47.17Y-112.671
X47.424Y-120.101
X47.932Y-110.014
X47.932Y-115.602
X48.186Y-93.758
X48.186Y-111.357
X48.44Y-108.236
X49.71Y-87.408
X49.836Y-110.776
X50.472Y-103.156
X50.472Y-110.014
X50.472Y-111.284
X50.726Y-106.712
X51.234Y-81.185
X52.053Y-106.32
X52.758Y-101.632
X53.012Y-118.65
X53.266Y-111.03
X53.998Y-109.028
X54.023Y-112.671
X54.028Y-94.52
X54.028Y-101.124
X54.393Y-98.218
X54.79Y-116.364
X55.552Y-116.784
X55.552Y-118.65
X55.688Y-110.38
X55.688Y-111.831
X55.806Y-109.09
X55.987Y-111.03
X56.353Y-109.799
X58.548Y-100.2
X58.78Y-93.504
X59.108Y-104.68
X59.235Y-78.645
X59.362Y-75.724
X59.362Y-94.266
X59.362Y-110.522
X59.519Y-101.535
X59.689Y-106.458
X60.053Y-101.071
X60.632Y-77.248
X62.156Y-108.744
X63.172Y-102.648
X63.68Y-112.3
X64.442Y-100.435
X67.49Y-79.28
X69.268Y-79.026
X72.824Y-85.63
X79.936Y-99.927
X83.492Y-115.856
X83.492Y-120.755
X83.51Y-76.722
X83.746Y-101.886
X84.508Y-98.33
X85.27Y-116.618
X85.851Y-115.398
X86.032Y-101.632
X86.54Y-113.824
X89.08Y-116.11
M30
