%TF.GenerationSoftware,KiCad,Pcbnew,9.0.6*%
%TF.CreationDate,2025-11-28T17:13:55-05:00*%
%TF.ProjectId,BusinessCardV1,42757369-6e65-4737-9343-61726456312e,rev?*%
%TF.SameCoordinates,Original*%
%TF.FileFunction,Paste,Top*%
%TF.FilePolarity,Positive*%
%FSLAX46Y46*%
G04 Gerber Fmt 4.6, Leading zero omitted, Abs format (unit mm)*
G04 Created by KiCad (PCBNEW 9.0.6) date 2025-11-28 17:13:55*
%MOMM*%
%LPD*%
G01*
G04 APERTURE LIST*
G04 Aperture macros list*
%AMRoundRect*
0 Rectangle with rounded corners*
0 $1 Rounding radius*
0 $2 $3 $4 $5 $6 $7 $8 $9 X,Y pos of 4 corners*
0 Add a 4 corners polygon primitive as box body*
4,1,4,$2,$3,$4,$5,$6,$7,$8,$9,$2,$3,0*
0 Add four circle primitives for the rounded corners*
1,1,$1+$1,$2,$3*
1,1,$1+$1,$4,$5*
1,1,$1+$1,$6,$7*
1,1,$1+$1,$8,$9*
0 Add four rect primitives between the rounded corners*
20,1,$1+$1,$2,$3,$4,$5,0*
20,1,$1+$1,$4,$5,$6,$7,0*
20,1,$1+$1,$6,$7,$8,$9,0*
20,1,$1+$1,$8,$9,$2,$3,0*%
%AMRotRect*
0 Rectangle, with rotation*
0 The origin of the aperture is its center*
0 $1 length*
0 $2 width*
0 $3 Rotation angle, in degrees counterclockwise*
0 Add horizontal line*
21,1,$1,$2,0,0,$3*%
G04 Aperture macros list end*
%ADD10C,0.010000*%
%ADD11RoundRect,0.184000X0.966000X-3.816000X0.966000X3.816000X-0.966000X3.816000X-0.966000X-3.816000X0*%
%ADD12RoundRect,0.160000X0.144334X0.232968X-0.266793X0.062674X-0.144334X-0.232968X0.266793X-0.062674X0*%
%ADD13R,1.460500X0.355600*%
%ADD14RoundRect,0.050000X-0.660000X-0.150000X0.660000X-0.150000X0.660000X0.150000X-0.660000X0.150000X0*%
%ADD15RoundRect,0.160000X-0.270468X0.044194X0.044194X-0.270468X0.270468X-0.044194X-0.044194X0.270468X0*%
%ADD16RoundRect,0.190500X0.444500X-0.762000X0.444500X0.762000X-0.444500X0.762000X-0.444500X-0.762000X0*%
%ADD17R,0.930000X0.790000*%
%ADD18RoundRect,0.108750X-0.326250X-0.356250X0.326250X-0.356250X0.326250X0.356250X-0.326250X0.356250X0*%
%ADD19RoundRect,0.160000X-0.160000X0.222500X-0.160000X-0.222500X0.160000X-0.222500X0.160000X0.222500X0*%
%ADD20RoundRect,0.237500X0.237500X-0.250000X0.237500X0.250000X-0.237500X0.250000X-0.237500X-0.250000X0*%
%ADD21R,1.020000X1.040000*%
%ADD22R,1.340000X0.590000*%
%ADD23RoundRect,0.076250X0.513750X0.228750X-0.513750X0.228750X-0.513750X-0.228750X0.513750X-0.228750X0*%
%ADD24RoundRect,0.160000X0.270468X-0.044194X-0.044194X0.270468X-0.270468X0.044194X0.044194X-0.270468X0*%
%ADD25RoundRect,0.108750X-0.356250X0.326250X-0.356250X-0.326250X0.356250X-0.326250X0.356250X0.326250X0*%
%ADD26RoundRect,0.108750X0.356250X-0.326250X0.356250X0.326250X-0.356250X0.326250X-0.356250X-0.326250X0*%
%ADD27RoundRect,0.160000X-0.062674X0.266793X-0.232968X-0.144334X0.062674X-0.266793X0.232968X0.144334X0*%
%ADD28RoundRect,0.237500X-0.237500X0.250000X-0.237500X-0.250000X0.237500X-0.250000X0.237500X0.250000X0*%
%ADD29RoundRect,0.051250X-0.733750X-0.153750X0.733750X-0.153750X0.733750X0.153750X-0.733750X0.153750X0*%
%ADD30RoundRect,0.160000X0.222500X0.160000X-0.222500X0.160000X-0.222500X-0.160000X0.222500X-0.160000X0*%
%ADD31RoundRect,0.160000X0.232968X-0.144334X0.062674X0.266793X-0.232968X0.144334X-0.062674X-0.266793X0*%
%ADD32RoundRect,0.150000X-0.512500X-0.150000X0.512500X-0.150000X0.512500X0.150000X-0.512500X0.150000X0*%
%ADD33RoundRect,0.237500X-0.250000X-0.237500X0.250000X-0.237500X0.250000X0.237500X-0.250000X0.237500X0*%
%ADD34RoundRect,0.123031X0.501969X-1.146969X0.501969X1.146969X-0.501969X1.146969X-0.501969X-1.146969X0*%
%ADD35RoundRect,0.108750X0.326250X0.356250X-0.326250X0.356250X-0.326250X-0.356250X0.326250X-0.356250X0*%
%ADD36RoundRect,0.160000X-0.222500X-0.160000X0.222500X-0.160000X0.222500X0.160000X-0.222500X0.160000X0*%
%ADD37RoundRect,0.061250X0.593750X0.183750X-0.593750X0.183750X-0.593750X-0.183750X0.593750X-0.183750X0*%
%ADD38R,1.981200X0.558800*%
%ADD39RoundRect,0.075000X-0.910000X-0.225000X0.910000X-0.225000X0.910000X0.225000X-0.910000X0.225000X0*%
%ADD40R,1.320800X0.558800*%
%ADD41RoundRect,0.160000X-0.044194X-0.270468X0.270468X0.044194X0.044194X0.270468X-0.270468X-0.044194X0*%
%ADD42RoundRect,0.160000X-0.144334X-0.232968X0.266793X-0.062674X0.144334X0.232968X-0.266793X0.062674X0*%
%ADD43RoundRect,0.160000X0.266793X0.062674X-0.144334X0.232968X-0.266793X-0.062674X0.144334X-0.232968X0*%
%ADD44RoundRect,0.160000X-0.232968X0.144334X-0.062674X-0.266793X0.232968X-0.144334X0.062674X0.266793X0*%
%ADD45RoundRect,0.160000X0.062674X-0.266793X0.232968X0.144334X-0.062674X0.266793X-0.232968X-0.144334X0*%
%ADD46RoundRect,0.160000X-0.266793X-0.062674X0.144334X-0.232968X0.266793X0.062674X-0.144334X0.232968X0*%
%ADD47RoundRect,0.160000X0.160000X-0.222500X0.160000X0.222500X-0.160000X0.222500X-0.160000X-0.222500X0*%
%ADD48RotRect,0.304800X0.863600X101.250000*%
%ADD49RotRect,0.304800X0.863600X11.250000*%
%ADD50RotRect,2.438400X2.438400X11.250000*%
%ADD51RoundRect,0.123031X-1.146969X-0.501969X1.146969X-0.501969X1.146969X0.501969X-1.146969X0.501969X0*%
%ADD52R,2.184400X0.558800*%
%ADD53RoundRect,0.237500X0.250000X0.237500X-0.250000X0.237500X-0.250000X-0.237500X0.250000X-0.237500X0*%
%ADD54RoundRect,0.160000X0.044194X0.270468X-0.270468X-0.044194X-0.044194X-0.270468X0.270468X0.044194X0*%
G04 APERTURE END LIST*
D10*
%TO.C,U1*%
X68200000Y-76610000D02*
X67900000Y-76610000D01*
X67900000Y-76360000D01*
X68200000Y-76360000D01*
X68200000Y-76610000D01*
G36*
X68200000Y-76610000D02*
G01*
X67900000Y-76610000D01*
X67900000Y-76360000D01*
X68200000Y-76360000D01*
X68200000Y-76610000D01*
G37*
X68200000Y-77110000D02*
X67900000Y-77110000D01*
X67900000Y-76860000D01*
X68200000Y-76860000D01*
X68200000Y-77110000D01*
G36*
X68200000Y-77110000D02*
G01*
X67900000Y-77110000D01*
X67900000Y-76860000D01*
X68200000Y-76860000D01*
X68200000Y-77110000D01*
G37*
X68200000Y-77610000D02*
X67900000Y-77610000D01*
X67900000Y-77360000D01*
X68200000Y-77360000D01*
X68200000Y-77610000D01*
G36*
X68200000Y-77610000D02*
G01*
X67900000Y-77610000D01*
X67900000Y-77360000D01*
X68200000Y-77360000D01*
X68200000Y-77610000D01*
G37*
X68200000Y-78110000D02*
X67900000Y-78110000D01*
X67900000Y-77860000D01*
X68200000Y-77860000D01*
X68200000Y-78110000D01*
G36*
X68200000Y-78110000D02*
G01*
X67900000Y-78110000D01*
X67900000Y-77860000D01*
X68200000Y-77860000D01*
X68200000Y-78110000D01*
G37*
X68700000Y-76610000D02*
X68450000Y-76610000D01*
X68450000Y-76310000D01*
X68700000Y-76310000D01*
X68700000Y-76610000D01*
G36*
X68700000Y-76610000D02*
G01*
X68450000Y-76610000D01*
X68450000Y-76310000D01*
X68700000Y-76310000D01*
X68700000Y-76610000D01*
G37*
X68700000Y-78160000D02*
X68450000Y-78160000D01*
X68450000Y-77860000D01*
X68700000Y-77860000D01*
X68700000Y-78160000D01*
G36*
X68700000Y-78160000D02*
G01*
X68450000Y-78160000D01*
X68450000Y-77860000D01*
X68700000Y-77860000D01*
X68700000Y-78160000D01*
G37*
X69200000Y-76610000D02*
X68950000Y-76610000D01*
X68950000Y-76310000D01*
X69200000Y-76310000D01*
X69200000Y-76610000D01*
G36*
X69200000Y-76610000D02*
G01*
X68950000Y-76610000D01*
X68950000Y-76310000D01*
X69200000Y-76310000D01*
X69200000Y-76610000D01*
G37*
X69200000Y-78160000D02*
X68950000Y-78160000D01*
X68950000Y-77860000D01*
X69200000Y-77860000D01*
X69200000Y-78160000D01*
G36*
X69200000Y-78160000D02*
G01*
X68950000Y-78160000D01*
X68950000Y-77860000D01*
X69200000Y-77860000D01*
X69200000Y-78160000D01*
G37*
X69750000Y-76610000D02*
X69450000Y-76610000D01*
X69450000Y-76360000D01*
X69750000Y-76360000D01*
X69750000Y-76610000D01*
G36*
X69750000Y-76610000D02*
G01*
X69450000Y-76610000D01*
X69450000Y-76360000D01*
X69750000Y-76360000D01*
X69750000Y-76610000D01*
G37*
X69750000Y-77110000D02*
X69450000Y-77110000D01*
X69450000Y-76860000D01*
X69750000Y-76860000D01*
X69750000Y-77110000D01*
G36*
X69750000Y-77110000D02*
G01*
X69450000Y-77110000D01*
X69450000Y-76860000D01*
X69750000Y-76860000D01*
X69750000Y-77110000D01*
G37*
X69750000Y-77610000D02*
X69450000Y-77610000D01*
X69450000Y-77360000D01*
X69750000Y-77360000D01*
X69750000Y-77610000D01*
G36*
X69750000Y-77610000D02*
G01*
X69450000Y-77610000D01*
X69450000Y-77360000D01*
X69750000Y-77360000D01*
X69750000Y-77610000D01*
G37*
X69750000Y-78110000D02*
X69450000Y-78110000D01*
X69450000Y-77860000D01*
X69750000Y-77860000D01*
X69750000Y-78110000D01*
G36*
X69750000Y-78110000D02*
G01*
X69450000Y-78110000D01*
X69450000Y-77860000D01*
X69750000Y-77860000D01*
X69750000Y-78110000D01*
G37*
%TD*%
D11*
%TO.C,J5*%
X93540000Y-78540000D03*
%TD*%
D12*
%TO.C,D8*%
X73459950Y-119770136D03*
X72402108Y-120208308D03*
%TD*%
D13*
%TO.C,U15*%
X55672650Y-91299999D03*
X55672650Y-91950000D03*
X55672650Y-92600001D03*
X55672650Y-93250000D03*
X55672650Y-93899999D03*
X55672650Y-94550000D03*
X55672650Y-95199999D03*
X61527350Y-95200001D03*
X61527350Y-94550000D03*
X61527350Y-93900001D03*
X61527350Y-93250000D03*
X61527350Y-92600001D03*
X61527350Y-91950000D03*
X61527350Y-91300001D03*
%TD*%
D14*
%TO.C,U2*%
X74737000Y-85925000D03*
X74737000Y-86575000D03*
X74737000Y-87225000D03*
X74737000Y-87875000D03*
X78277000Y-87875000D03*
X78277000Y-87225000D03*
X78277000Y-86575000D03*
X78277000Y-85925000D03*
%TD*%
D15*
%TO.C,D3*%
X74959385Y-107352006D03*
X75769023Y-108161644D03*
%TD*%
D16*
%TO.C,J1*%
X67780000Y-73184000D03*
X69280000Y-73184000D03*
X70780000Y-73184000D03*
X72280000Y-73184000D03*
%TD*%
D17*
%TO.C,R27*%
X38407000Y-74142000D03*
X38407000Y-75782000D03*
%TD*%
D18*
%TO.C,C17*%
X57566000Y-97822000D03*
X59126000Y-97822000D03*
%TD*%
%TO.C,C23*%
X60106000Y-89186000D03*
X61666000Y-89186000D03*
%TD*%
D19*
%TO.C,D17*%
X24570000Y-94047500D03*
X24570000Y-95192500D03*
%TD*%
D18*
%TO.C,C8*%
X59090000Y-72627500D03*
X60650000Y-72627500D03*
%TD*%
D20*
%TO.C,R4*%
X70074023Y-113951107D03*
X70074023Y-112126107D03*
%TD*%
D21*
%TO.C,R1*%
X80952000Y-86165000D03*
X80952000Y-87635000D03*
%TD*%
D20*
%TO.C,R17*%
X35105000Y-104957500D03*
X35105000Y-103132500D03*
%TD*%
D22*
%TO.C,U21*%
X101571000Y-99007500D03*
X101571000Y-99957500D03*
X101571000Y-100907500D03*
X103951000Y-100907500D03*
X103951000Y-99957500D03*
X103951000Y-99007500D03*
%TD*%
D23*
%TO.C,Q2*%
X93626000Y-101507500D03*
X93626000Y-99677500D03*
X91576000Y-100592500D03*
%TD*%
D24*
%TO.C,D11*%
X65162422Y-118768245D03*
X64352784Y-117958607D03*
%TD*%
D17*
%TO.C,R32*%
X38978500Y-83852000D03*
X38978500Y-82212000D03*
%TD*%
D25*
%TO.C,C1*%
X74475000Y-81040000D03*
X74475000Y-82600000D03*
%TD*%
D26*
%TO.C,C7*%
X64950000Y-80392500D03*
X64950000Y-78832500D03*
%TD*%
D27*
%TO.C,D6*%
X77209086Y-115401330D03*
X76770914Y-116459172D03*
%TD*%
D20*
%TO.C,R34*%
X99240000Y-99195000D03*
X99240000Y-97370000D03*
%TD*%
D28*
%TO.C,R2*%
X70275000Y-82177500D03*
X70275000Y-84002500D03*
%TD*%
D29*
%TO.C,U12*%
X51920000Y-108445000D03*
X51920000Y-109095000D03*
X51920000Y-109745000D03*
X51920000Y-110395000D03*
X51920000Y-111045000D03*
X51920000Y-111695000D03*
X51920000Y-112345000D03*
X57660000Y-112345000D03*
X57660000Y-111695000D03*
X57660000Y-111045000D03*
X57660000Y-110395000D03*
X57660000Y-109745000D03*
X57660000Y-109095000D03*
X57660000Y-108445000D03*
%TD*%
D18*
%TO.C,C5*%
X78775000Y-77705200D03*
X80335000Y-77705200D03*
%TD*%
D23*
%TO.C,Q5*%
X42353000Y-78163000D03*
X42353000Y-76333000D03*
X40303000Y-77248000D03*
%TD*%
D17*
%TO.C,R23*%
X25939000Y-76086000D03*
X25939000Y-74446000D03*
%TD*%
D30*
%TO.C,D9*%
X70633404Y-120560126D03*
X69488404Y-120560126D03*
%TD*%
D31*
%TO.C,D12*%
X63350893Y-116459172D03*
X62912721Y-115401330D03*
%TD*%
D32*
%TO.C,U3*%
X77147500Y-80870000D03*
X77147500Y-81820000D03*
X77147500Y-82770000D03*
X79422500Y-82770000D03*
X79422500Y-80870000D03*
%TD*%
D33*
%TO.C,R37*%
X102137500Y-105442000D03*
X103962500Y-105442000D03*
%TD*%
D17*
%TO.C,R11*%
X27799000Y-74426000D03*
X27799000Y-76066000D03*
%TD*%
D18*
%TO.C,C4*%
X68615000Y-79915000D03*
X70175000Y-79915000D03*
%TD*%
D28*
%TO.C,R18*%
X24945000Y-103132500D03*
X24945000Y-104957500D03*
%TD*%
%TO.C,R3*%
X96156000Y-99322500D03*
X96156000Y-101147500D03*
%TD*%
D18*
%TO.C,C10*%
X47025000Y-101505000D03*
X48585000Y-101505000D03*
%TD*%
D34*
%TO.C,J4*%
X102175000Y-109760000D03*
X103925000Y-109760000D03*
%TD*%
D35*
%TO.C,C13*%
X38298000Y-72168000D03*
X36738000Y-72168000D03*
%TD*%
D29*
%TO.C,U13*%
X39855000Y-116065000D03*
X39855000Y-116715000D03*
X39855000Y-117365000D03*
X39855000Y-118015000D03*
X39855000Y-118665000D03*
X39855000Y-119315000D03*
X39855000Y-119965000D03*
X45595000Y-119965000D03*
X45595000Y-119315000D03*
X45595000Y-118665000D03*
X45595000Y-118015000D03*
X45595000Y-117365000D03*
X45595000Y-116715000D03*
X45595000Y-116065000D03*
%TD*%
D17*
%TO.C,R5*%
X83510000Y-73525200D03*
X83510000Y-75165200D03*
%TD*%
D36*
%TO.C,D1*%
X69488404Y-105560126D03*
X70633404Y-105560126D03*
%TD*%
D37*
%TO.C,Q8*%
X36728500Y-83682000D03*
X36728500Y-82382000D03*
X34878500Y-83032000D03*
%TD*%
D18*
%TO.C,C22*%
X57820000Y-82836000D03*
X59380000Y-82836000D03*
%TD*%
D28*
%TO.C,R19*%
X24945000Y-106942500D03*
X24945000Y-108767500D03*
%TD*%
D35*
%TO.C,C12*%
X29789000Y-72168000D03*
X28229000Y-72168000D03*
%TD*%
D38*
%TO.C,U4*%
X32488800Y-109760000D03*
X32488800Y-108490000D03*
X32488800Y-107220000D03*
X32488800Y-105950000D03*
X32488800Y-104680000D03*
X32488800Y-103410000D03*
X32488800Y-102140000D03*
X27561200Y-102140000D03*
X27561200Y-103410000D03*
X27561200Y-104680000D03*
X27561200Y-105950000D03*
X27561200Y-107220000D03*
X27561200Y-108490000D03*
X27561200Y-109760000D03*
%TD*%
D17*
%TO.C,R26*%
X41074000Y-72560000D03*
X41074000Y-74200000D03*
%TD*%
D20*
%TO.C,R16*%
X35105000Y-108767500D03*
X35105000Y-106942500D03*
%TD*%
D28*
%TO.C,R8*%
X32184000Y-78621500D03*
X32184000Y-80446500D03*
%TD*%
D20*
%TO.C,R12*%
X24945000Y-117657500D03*
X24945000Y-115832500D03*
%TD*%
D39*
%TO.C,U20*%
X57400000Y-74835000D03*
X57400000Y-76105000D03*
X57400000Y-77375000D03*
X57400000Y-78645000D03*
X62340000Y-78645000D03*
X62340000Y-77375000D03*
X62340000Y-76105000D03*
X62340000Y-74835000D03*
%TD*%
D28*
%TO.C,R22*%
X32613800Y-93772500D03*
X32613800Y-95597500D03*
%TD*%
D18*
%TO.C,C19*%
X53502000Y-114332000D03*
X55062000Y-114332000D03*
%TD*%
D29*
%TO.C,U8*%
X81765000Y-99555000D03*
X81765000Y-100205000D03*
X81765000Y-100855000D03*
X81765000Y-101505000D03*
X81765000Y-102155000D03*
X81765000Y-102805000D03*
X81765000Y-103455000D03*
X87505000Y-103455000D03*
X87505000Y-102805000D03*
X87505000Y-102155000D03*
X87505000Y-101505000D03*
X87505000Y-100855000D03*
X87505000Y-100205000D03*
X87505000Y-99555000D03*
%TD*%
D13*
%TO.C,U7*%
X49677350Y-95280001D03*
X49677350Y-94630000D03*
X49677350Y-93979999D03*
X49677350Y-93330000D03*
X49677350Y-92680001D03*
X49677350Y-92030000D03*
X49677350Y-91380001D03*
X43822650Y-91379999D03*
X43822650Y-92030000D03*
X43822650Y-92679999D03*
X43822650Y-93330000D03*
X43822650Y-93979999D03*
X43822650Y-94630000D03*
X43822650Y-95279999D03*
%TD*%
D40*
%TO.C,U14*%
X78226800Y-73768200D03*
X78226800Y-74708000D03*
X78226800Y-75647800D03*
X80970000Y-75647800D03*
X80970000Y-73768200D03*
%TD*%
D29*
%TO.C,U10*%
X51630000Y-116065000D03*
X51630000Y-116715000D03*
X51630000Y-117365000D03*
X51630000Y-118015000D03*
X51630000Y-118665000D03*
X51630000Y-119315000D03*
X51630000Y-119965000D03*
X57370000Y-119965000D03*
X57370000Y-119315000D03*
X57370000Y-118665000D03*
X57370000Y-118015000D03*
X57370000Y-117365000D03*
X57370000Y-116715000D03*
X57370000Y-116065000D03*
%TD*%
D35*
%TO.C,C16*%
X103776000Y-103410000D03*
X102216000Y-103410000D03*
%TD*%
D17*
%TO.C,R28*%
X36502000Y-75782000D03*
X36502000Y-74142000D03*
%TD*%
D25*
%TO.C,C6*%
X75890000Y-73750200D03*
X75890000Y-75310200D03*
%TD*%
D14*
%TO.C,U16*%
X56830000Y-84655000D03*
X56830000Y-85305000D03*
X56830000Y-85955000D03*
X56830000Y-86605000D03*
X60370000Y-86605000D03*
X60370000Y-85955000D03*
X60370000Y-85305000D03*
X60370000Y-84655000D03*
%TD*%
D28*
%TO.C,R36*%
X99240000Y-101180000D03*
X99240000Y-103005000D03*
%TD*%
D23*
%TO.C,Q4*%
X45718500Y-87122000D03*
X45718500Y-85292000D03*
X43668500Y-86207000D03*
%TD*%
D17*
%TO.C,R25*%
X29644000Y-74396000D03*
X29644000Y-76036000D03*
%TD*%
D19*
%TO.C,D20*%
X25580000Y-86835500D03*
X25580000Y-87980500D03*
%TD*%
D18*
%TO.C,C18*%
X54010000Y-106712000D03*
X55570000Y-106712000D03*
%TD*%
D29*
%TO.C,U9*%
X81765000Y-114795000D03*
X81765000Y-115445000D03*
X81765000Y-116095000D03*
X81765000Y-116745000D03*
X81765000Y-117395000D03*
X81765000Y-118045000D03*
X81765000Y-118695000D03*
X87505000Y-118695000D03*
X87505000Y-118045000D03*
X87505000Y-117395000D03*
X87505000Y-116745000D03*
X87505000Y-116095000D03*
X87505000Y-115445000D03*
X87505000Y-114795000D03*
%TD*%
D30*
%TO.C,D21*%
X27168500Y-85122000D03*
X26023500Y-85122000D03*
%TD*%
D35*
%TO.C,C14*%
X42933500Y-80492000D03*
X41373500Y-80492000D03*
%TD*%
D41*
%TO.C,D15*%
X64352784Y-108161644D03*
X65162422Y-107352006D03*
%TD*%
D18*
%TO.C,C9*%
X47025000Y-103410000D03*
X48585000Y-103410000D03*
%TD*%
D20*
%TO.C,R15*%
X35105000Y-117657500D03*
X35105000Y-115832500D03*
%TD*%
D28*
%TO.C,R21*%
X32613800Y-89962500D03*
X32613800Y-91787500D03*
%TD*%
D23*
%TO.C,Q3*%
X30034000Y-80449000D03*
X30034000Y-78619000D03*
X27984000Y-79534000D03*
%TD*%
D28*
%TO.C,R13*%
X24945000Y-119642500D03*
X24945000Y-121467500D03*
%TD*%
D19*
%TO.C,D18*%
X26685000Y-94057500D03*
X26685000Y-95202500D03*
%TD*%
D38*
%TO.C,U5*%
X27561200Y-114586000D03*
X27561200Y-115856000D03*
X27561200Y-117126000D03*
X27561200Y-118396000D03*
X27561200Y-119666000D03*
X27561200Y-120936000D03*
X27561200Y-122206000D03*
X32488800Y-122206000D03*
X32488800Y-120936000D03*
X32488800Y-119666000D03*
X32488800Y-118396000D03*
X32488800Y-117126000D03*
X32488800Y-115856000D03*
X32488800Y-114586000D03*
%TD*%
D17*
%TO.C,R30*%
X42788500Y-82212000D03*
X42788500Y-83852000D03*
%TD*%
D20*
%TO.C,R14*%
X35105000Y-121467500D03*
X35105000Y-119642500D03*
%TD*%
D25*
%TO.C,C3*%
X71935000Y-76775000D03*
X71935000Y-78335000D03*
%TD*%
D19*
%TO.C,D19*%
X28882000Y-94057500D03*
X28882000Y-95202500D03*
%TD*%
D42*
%TO.C,D16*%
X66661857Y-106350115D03*
X67719699Y-105911943D03*
%TD*%
D37*
%TO.C,Q6*%
X23584000Y-76051000D03*
X23584000Y-74751000D03*
X21734000Y-75401000D03*
%TD*%
D19*
%TO.C,D22*%
X27866000Y-86835500D03*
X27866000Y-87980500D03*
%TD*%
D43*
%TO.C,D10*%
X67719699Y-120208308D03*
X66661857Y-119770136D03*
%TD*%
D44*
%TO.C,D4*%
X76770914Y-109661079D03*
X77209086Y-110718921D03*
%TD*%
D38*
%TO.C,U19*%
X35230000Y-88970000D03*
X35230000Y-90240000D03*
X35230000Y-91510000D03*
X35230000Y-92780000D03*
X35230000Y-94050000D03*
X35230000Y-95320000D03*
X35230000Y-96590000D03*
X40157600Y-96590000D03*
X40157600Y-95320000D03*
X40157600Y-94050000D03*
X40157600Y-92780000D03*
X40157600Y-91510000D03*
X40157600Y-90240000D03*
X40157600Y-88970000D03*
%TD*%
D29*
%TO.C,U11*%
X55730000Y-99555000D03*
X55730000Y-100205000D03*
X55730000Y-100855000D03*
X55730000Y-101505000D03*
X55730000Y-102155000D03*
X55730000Y-102805000D03*
X55730000Y-103455000D03*
X61470000Y-103455000D03*
X61470000Y-102805000D03*
X61470000Y-102155000D03*
X61470000Y-101505000D03*
X61470000Y-100855000D03*
X61470000Y-100205000D03*
X61470000Y-99555000D03*
%TD*%
D17*
%TO.C,R6*%
X64950000Y-74082500D03*
X64950000Y-72442500D03*
%TD*%
D23*
%TO.C,Q1*%
X67880000Y-84005000D03*
X67880000Y-82175000D03*
X65830000Y-83090000D03*
%TD*%
D18*
%TO.C,C11*%
X40675000Y-98965000D03*
X42235000Y-98965000D03*
%TD*%
D45*
%TO.C,D14*%
X62912721Y-110718921D03*
X63350893Y-109661079D03*
%TD*%
D17*
%TO.C,R33*%
X29136000Y-99912000D03*
X29136000Y-98272000D03*
%TD*%
D46*
%TO.C,D2*%
X72402108Y-105911943D03*
X73459950Y-106350115D03*
%TD*%
D17*
%TO.C,R24*%
X24310000Y-99912000D03*
X24310000Y-98272000D03*
%TD*%
D25*
%TO.C,C15*%
X102069000Y-93105000D03*
X102069000Y-94665000D03*
%TD*%
D47*
%TO.C,D13*%
X62560904Y-113632626D03*
X62560904Y-112487626D03*
%TD*%
D48*
%TO.C,U18*%
X39804000Y-102516366D03*
X39930809Y-103153875D03*
X40057618Y-103791387D03*
X40184426Y-104428896D03*
D49*
X41322792Y-105189528D03*
X41960301Y-105062719D03*
X42597813Y-104935910D03*
X43235322Y-104809102D03*
D48*
X43995954Y-103670736D03*
X43869145Y-103033227D03*
X43742336Y-102395715D03*
X43615528Y-101758206D03*
D49*
X42477162Y-100997574D03*
X41839653Y-101124383D03*
X41202141Y-101251192D03*
X40564632Y-101378000D03*
D50*
X41899977Y-103093551D03*
%TD*%
D18*
%TO.C,C21*%
X50454000Y-84360000D03*
X52014000Y-84360000D03*
%TD*%
D17*
%TO.C,R31*%
X40883500Y-82212000D03*
X40883500Y-83852000D03*
%TD*%
D28*
%TO.C,R35*%
X103974000Y-92972500D03*
X103974000Y-94797500D03*
%TD*%
D37*
%TO.C,Q7*%
X34252000Y-75612000D03*
X34252000Y-74312000D03*
X32402000Y-74962000D03*
%TD*%
D18*
%TO.C,C20*%
X41818000Y-114332000D03*
X43378000Y-114332000D03*
%TD*%
D51*
%TO.C,J3*%
X103050000Y-73720000D03*
X103050000Y-75470000D03*
%TD*%
D19*
%TO.C,D5*%
X77560904Y-112487626D03*
X77560904Y-113632626D03*
%TD*%
D26*
%TO.C,C2*%
X81714000Y-81838000D03*
X81714000Y-80278000D03*
%TD*%
D52*
%TO.C,U17*%
X48617800Y-73565000D03*
X48617800Y-74835000D03*
X48617800Y-76105000D03*
X48617800Y-77375000D03*
X48617800Y-78645000D03*
X48617800Y-79915000D03*
X48617800Y-81185000D03*
X48617800Y-82455000D03*
X53342200Y-82455000D03*
X53342200Y-81185000D03*
X53342200Y-79915000D03*
X53342200Y-78645000D03*
X53342200Y-77375000D03*
X53342200Y-76105000D03*
X53342200Y-74835000D03*
X53342200Y-73565000D03*
%TD*%
D13*
%TO.C,U6*%
X45652350Y-112345001D03*
X45652350Y-111695000D03*
X45652350Y-111044999D03*
X45652350Y-110395000D03*
X45652350Y-109745001D03*
X45652350Y-109095000D03*
X45652350Y-108445001D03*
X39797650Y-108444999D03*
X39797650Y-109095000D03*
X39797650Y-109744999D03*
X39797650Y-110395000D03*
X39797650Y-111044999D03*
X39797650Y-111695000D03*
X39797650Y-112344999D03*
%TD*%
D17*
%TO.C,R29*%
X26850000Y-99912000D03*
X26850000Y-98272000D03*
%TD*%
D28*
%TO.C,R9*%
X47868500Y-85294500D03*
X47868500Y-87119500D03*
%TD*%
%TO.C,R10*%
X44503000Y-76335500D03*
X44503000Y-78160500D03*
%TD*%
D53*
%TO.C,R20*%
X27127500Y-111665000D03*
X25302500Y-111665000D03*
%TD*%
D54*
%TO.C,D7*%
X75769023Y-117958607D03*
X74959385Y-118768245D03*
%TD*%
D17*
%TO.C,R7*%
X64950000Y-77257500D03*
X64950000Y-75617500D03*
%TD*%
M02*
