%TF.GenerationSoftware,KiCad,Pcbnew,9.0.6*%
%TF.CreationDate,2025-11-28T17:13:55-05:00*%
%TF.ProjectId,BusinessCardV1,42757369-6e65-4737-9343-61726456312e,rev?*%
%TF.SameCoordinates,Original*%
%TF.FileFunction,Copper,L2,Bot*%
%TF.FilePolarity,Positive*%
%FSLAX46Y46*%
G04 Gerber Fmt 4.6, Leading zero omitted, Abs format (unit mm)*
G04 Created by KiCad (PCBNEW 9.0.6) date 2025-11-28 17:13:55*
%MOMM*%
%LPD*%
G01*
G04 APERTURE LIST*
G04 Aperture macros list*
%AMRoundRect*
0 Rectangle with rounded corners*
0 $1 Rounding radius*
0 $2 $3 $4 $5 $6 $7 $8 $9 X,Y pos of 4 corners*
0 Add a 4 corners polygon primitive as box body*
4,1,4,$2,$3,$4,$5,$6,$7,$8,$9,$2,$3,0*
0 Add four circle primitives for the rounded corners*
1,1,$1+$1,$2,$3*
1,1,$1+$1,$4,$5*
1,1,$1+$1,$6,$7*
1,1,$1+$1,$8,$9*
0 Add four rect primitives between the rounded corners*
20,1,$1+$1,$2,$3,$4,$5,0*
20,1,$1+$1,$4,$5,$6,$7,0*
20,1,$1+$1,$6,$7,$8,$9,0*
20,1,$1+$1,$8,$9,$2,$3,0*%
G04 Aperture macros list end*
%TA.AperFunction,EtchedComponent*%
%ADD10C,0.010000*%
%TD*%
%TA.AperFunction,SMDPad,CuDef*%
%ADD11RoundRect,0.123031X1.146969X0.501969X-1.146969X0.501969X-1.146969X-0.501969X1.146969X-0.501969X0*%
%TD*%
%TA.AperFunction,ViaPad*%
%ADD12C,0.600000*%
%TD*%
%TA.AperFunction,ViaPad*%
%ADD13C,0.508000*%
%TD*%
%TA.AperFunction,Conductor*%
%ADD14C,0.381000*%
%TD*%
%TA.AperFunction,Conductor*%
%ADD15C,0.254000*%
%TD*%
%TA.AperFunction,Conductor*%
%ADD16C,0.200000*%
%TD*%
G04 APERTURE END LIST*
D10*
%TO.C,U22*%
X184822382Y-107985711D02*
X185282277Y-108030542D01*
X185744843Y-108117348D01*
X185841274Y-108140686D01*
X186261924Y-108268030D01*
X186670143Y-108434546D01*
X187063137Y-108638187D01*
X187438113Y-108876904D01*
X187792278Y-109148647D01*
X188122837Y-109451369D01*
X188426998Y-109783020D01*
X188701968Y-110141552D01*
X188828385Y-110331446D01*
X188984796Y-110602321D01*
X189131098Y-110902213D01*
X189261918Y-111218070D01*
X189371887Y-111536842D01*
X189455634Y-111845478D01*
X189460748Y-111868035D01*
X189537961Y-112307533D01*
X189576638Y-112757558D01*
X189576780Y-113211108D01*
X189538386Y-113661183D01*
X189461457Y-114100785D01*
X189460748Y-114103964D01*
X189342870Y-114536535D01*
X189187204Y-114952793D01*
X188995787Y-115350781D01*
X188770657Y-115728544D01*
X188513851Y-116084126D01*
X188227405Y-116415571D01*
X187913356Y-116720922D01*
X187573742Y-116998223D01*
X187210599Y-117245519D01*
X186825964Y-117460853D01*
X186421875Y-117642269D01*
X186000368Y-117787811D01*
X185563481Y-117895524D01*
X185499636Y-117907764D01*
X185114645Y-117965629D01*
X184743172Y-117993080D01*
X184370175Y-117990946D01*
X184191753Y-117980091D01*
X183743228Y-117924455D01*
X183301301Y-117828051D01*
X182869522Y-117692322D01*
X182451442Y-117518711D01*
X182050610Y-117308662D01*
X181670576Y-117063619D01*
X181372081Y-116833518D01*
X181269180Y-116742973D01*
X181149971Y-116630609D01*
X181023725Y-116505828D01*
X180899713Y-116378032D01*
X180787203Y-116256623D01*
X180695466Y-116151004D01*
X180677730Y-116129250D01*
X180420894Y-115777548D01*
X180193060Y-115400696D01*
X179997632Y-115005513D01*
X179838015Y-114598816D01*
X179726962Y-114225288D01*
X179675520Y-114007748D01*
X179636836Y-113810336D01*
X179609418Y-113620478D01*
X179591773Y-113425601D01*
X179582407Y-113213132D01*
X179579819Y-112986000D01*
X179582760Y-112745512D01*
X179592576Y-112534441D01*
X179610761Y-112340214D01*
X179638807Y-112150259D01*
X179678208Y-111952001D01*
X179726962Y-111746711D01*
X179856169Y-111318930D01*
X180024025Y-110905240D01*
X180228392Y-110508388D01*
X180467134Y-110131122D01*
X180738113Y-109776189D01*
X181039193Y-109446338D01*
X181368236Y-109144316D01*
X181723107Y-108872871D01*
X182101667Y-108634750D01*
X182181583Y-108590528D01*
X182602022Y-108386387D01*
X183031827Y-108223398D01*
X183469881Y-108101699D01*
X183915068Y-108021426D01*
X184366274Y-107982718D01*
X184822382Y-107985711D01*
%TA.AperFunction,EtchedComponent*%
G36*
X184822382Y-107985711D02*
G01*
X185282277Y-108030542D01*
X185744843Y-108117348D01*
X185841274Y-108140686D01*
X186261924Y-108268030D01*
X186670143Y-108434546D01*
X187063137Y-108638187D01*
X187438113Y-108876904D01*
X187792278Y-109148647D01*
X188122837Y-109451369D01*
X188426998Y-109783020D01*
X188701968Y-110141552D01*
X188828385Y-110331446D01*
X188984796Y-110602321D01*
X189131098Y-110902213D01*
X189261918Y-111218070D01*
X189371887Y-111536842D01*
X189455634Y-111845478D01*
X189460748Y-111868035D01*
X189537961Y-112307533D01*
X189576638Y-112757558D01*
X189576780Y-113211108D01*
X189538386Y-113661183D01*
X189461457Y-114100785D01*
X189460748Y-114103964D01*
X189342870Y-114536535D01*
X189187204Y-114952793D01*
X188995787Y-115350781D01*
X188770657Y-115728544D01*
X188513851Y-116084126D01*
X188227405Y-116415571D01*
X187913356Y-116720922D01*
X187573742Y-116998223D01*
X187210599Y-117245519D01*
X186825964Y-117460853D01*
X186421875Y-117642269D01*
X186000368Y-117787811D01*
X185563481Y-117895524D01*
X185499636Y-117907764D01*
X185114645Y-117965629D01*
X184743172Y-117993080D01*
X184370175Y-117990946D01*
X184191753Y-117980091D01*
X183743228Y-117924455D01*
X183301301Y-117828051D01*
X182869522Y-117692322D01*
X182451442Y-117518711D01*
X182050610Y-117308662D01*
X181670576Y-117063619D01*
X181372081Y-116833518D01*
X181269180Y-116742973D01*
X181149971Y-116630609D01*
X181023725Y-116505828D01*
X180899713Y-116378032D01*
X180787203Y-116256623D01*
X180695466Y-116151004D01*
X180677730Y-116129250D01*
X180420894Y-115777548D01*
X180193060Y-115400696D01*
X179997632Y-115005513D01*
X179838015Y-114598816D01*
X179726962Y-114225288D01*
X179675520Y-114007748D01*
X179636836Y-113810336D01*
X179609418Y-113620478D01*
X179591773Y-113425601D01*
X179582407Y-113213132D01*
X179579819Y-112986000D01*
X179582760Y-112745512D01*
X179592576Y-112534441D01*
X179610761Y-112340214D01*
X179638807Y-112150259D01*
X179678208Y-111952001D01*
X179726962Y-111746711D01*
X179856169Y-111318930D01*
X180024025Y-110905240D01*
X180228392Y-110508388D01*
X180467134Y-110131122D01*
X180738113Y-109776189D01*
X181039193Y-109446338D01*
X181368236Y-109144316D01*
X181723107Y-108872871D01*
X182101667Y-108634750D01*
X182181583Y-108590528D01*
X182602022Y-108386387D01*
X183031827Y-108223398D01*
X183469881Y-108101699D01*
X183915068Y-108021426D01*
X184366274Y-107982718D01*
X184822382Y-107985711D01*
G37*
%TD.AperFunction*%
X185472693Y-74038449D02*
X185905259Y-74083731D01*
X186542074Y-74185445D01*
X187167731Y-74327174D01*
X187780475Y-74507837D01*
X188378547Y-74726355D01*
X188960188Y-74981646D01*
X189523642Y-75272632D01*
X190067151Y-75598232D01*
X190588956Y-75957367D01*
X191087299Y-76348955D01*
X191560424Y-76771916D01*
X192006571Y-77225172D01*
X192423983Y-77707641D01*
X192810903Y-78218244D01*
X192941049Y-78406747D01*
X193286035Y-78956286D01*
X193593027Y-79522790D01*
X193861751Y-80104363D01*
X194091936Y-80699112D01*
X194283311Y-81305141D01*
X194435604Y-81920556D01*
X194548542Y-82543462D01*
X194621854Y-83171964D01*
X194655268Y-83804168D01*
X194648513Y-84438178D01*
X194601315Y-85072100D01*
X194513404Y-85704040D01*
X194384508Y-86332102D01*
X194214354Y-86954392D01*
X194182150Y-87056833D01*
X193964329Y-87668657D01*
X193709543Y-88261056D01*
X193419069Y-88832655D01*
X193094181Y-89382084D01*
X192736155Y-89907969D01*
X192346268Y-90408938D01*
X191925793Y-90883619D01*
X191476008Y-91330638D01*
X190998188Y-91748624D01*
X190493608Y-92136204D01*
X189963544Y-92492005D01*
X189409272Y-92814656D01*
X188832067Y-93102783D01*
X188383416Y-93295985D01*
X187777800Y-93516980D01*
X187161266Y-93697730D01*
X186536000Y-93838181D01*
X185904187Y-93938279D01*
X185268014Y-93997967D01*
X184629665Y-94017192D01*
X183991326Y-93995899D01*
X183355184Y-93934033D01*
X182723423Y-93831539D01*
X182098230Y-93688363D01*
X181481791Y-93504450D01*
X181384312Y-93471306D01*
X181080973Y-93366398D01*
X181008216Y-93434240D01*
X180984425Y-93456941D01*
X180932796Y-93506574D01*
X180855918Y-93580636D01*
X180756379Y-93676626D01*
X180636769Y-93792042D01*
X180499676Y-93924383D01*
X180347689Y-94071145D01*
X180183396Y-94229828D01*
X180009387Y-94397929D01*
X179828249Y-94572947D01*
X179642573Y-94752379D01*
X179454946Y-94933724D01*
X179267957Y-95114480D01*
X179084195Y-95292144D01*
X178906249Y-95464216D01*
X178736707Y-95628192D01*
X178578159Y-95781572D01*
X178433192Y-95921853D01*
X178304396Y-96046534D01*
X178194360Y-96153112D01*
X178105671Y-96239085D01*
X178040919Y-96301952D01*
X178031484Y-96311129D01*
X177881884Y-96456690D01*
X174213448Y-92672297D01*
X170545012Y-88887903D01*
X170693038Y-88750243D01*
X170726751Y-88718288D01*
X170788843Y-88658784D01*
X170877317Y-88573663D01*
X170990173Y-88464858D01*
X171125413Y-88334302D01*
X171281037Y-88183928D01*
X171455046Y-88015669D01*
X171645441Y-87831457D01*
X171850224Y-87633226D01*
X172067395Y-87422909D01*
X172294956Y-87202438D01*
X172530907Y-86973746D01*
X172761752Y-86749916D01*
X174682440Y-84887250D01*
X174670414Y-84781416D01*
X174653613Y-84582249D01*
X174643913Y-84349914D01*
X174641096Y-84092941D01*
X174644947Y-83819860D01*
X174655246Y-83539198D01*
X174671779Y-83259485D01*
X174694326Y-82989250D01*
X174722436Y-82738833D01*
X174826369Y-82098804D01*
X174970904Y-81468431D01*
X175155189Y-80849808D01*
X175378377Y-80245032D01*
X175639615Y-79656197D01*
X175938055Y-79085398D01*
X176272846Y-78534732D01*
X176641794Y-78008083D01*
X176784840Y-77820588D01*
X176918974Y-77652314D01*
X177051863Y-77494507D01*
X177191174Y-77338416D01*
X177344575Y-77175288D01*
X177519732Y-76996369D01*
X177587410Y-76928583D01*
X177866994Y-76657734D01*
X178135987Y-76414530D01*
X178404949Y-76189942D01*
X178684438Y-75974944D01*
X178808687Y-75884484D01*
X179347634Y-75523765D01*
X179905708Y-75200166D01*
X180480992Y-74914174D01*
X181071567Y-74666274D01*
X181675517Y-74456954D01*
X182290923Y-74286700D01*
X182915868Y-74155998D01*
X183548436Y-74065336D01*
X184186707Y-74015199D01*
X184828765Y-74006074D01*
X185472693Y-74038449D01*
%TA.AperFunction,EtchedComponent*%
G36*
X185472693Y-74038449D02*
G01*
X185905259Y-74083731D01*
X186542074Y-74185445D01*
X187167731Y-74327174D01*
X187780475Y-74507837D01*
X188378547Y-74726355D01*
X188960188Y-74981646D01*
X189523642Y-75272632D01*
X190067151Y-75598232D01*
X190588956Y-75957367D01*
X191087299Y-76348955D01*
X191560424Y-76771916D01*
X192006571Y-77225172D01*
X192423983Y-77707641D01*
X192810903Y-78218244D01*
X192941049Y-78406747D01*
X193286035Y-78956286D01*
X193593027Y-79522790D01*
X193861751Y-80104363D01*
X194091936Y-80699112D01*
X194283311Y-81305141D01*
X194435604Y-81920556D01*
X194548542Y-82543462D01*
X194621854Y-83171964D01*
X194655268Y-83804168D01*
X194648513Y-84438178D01*
X194601315Y-85072100D01*
X194513404Y-85704040D01*
X194384508Y-86332102D01*
X194214354Y-86954392D01*
X194182150Y-87056833D01*
X193964329Y-87668657D01*
X193709543Y-88261056D01*
X193419069Y-88832655D01*
X193094181Y-89382084D01*
X192736155Y-89907969D01*
X192346268Y-90408938D01*
X191925793Y-90883619D01*
X191476008Y-91330638D01*
X190998188Y-91748624D01*
X190493608Y-92136204D01*
X189963544Y-92492005D01*
X189409272Y-92814656D01*
X188832067Y-93102783D01*
X188383416Y-93295985D01*
X187777800Y-93516980D01*
X187161266Y-93697730D01*
X186536000Y-93838181D01*
X185904187Y-93938279D01*
X185268014Y-93997967D01*
X184629665Y-94017192D01*
X183991326Y-93995899D01*
X183355184Y-93934033D01*
X182723423Y-93831539D01*
X182098230Y-93688363D01*
X181481791Y-93504450D01*
X181384312Y-93471306D01*
X181080973Y-93366398D01*
X181008216Y-93434240D01*
X180984425Y-93456941D01*
X180932796Y-93506574D01*
X180855918Y-93580636D01*
X180756379Y-93676626D01*
X180636769Y-93792042D01*
X180499676Y-93924383D01*
X180347689Y-94071145D01*
X180183396Y-94229828D01*
X180009387Y-94397929D01*
X179828249Y-94572947D01*
X179642573Y-94752379D01*
X179454946Y-94933724D01*
X179267957Y-95114480D01*
X179084195Y-95292144D01*
X178906249Y-95464216D01*
X178736707Y-95628192D01*
X178578159Y-95781572D01*
X178433192Y-95921853D01*
X178304396Y-96046534D01*
X178194360Y-96153112D01*
X178105671Y-96239085D01*
X178040919Y-96301952D01*
X178031484Y-96311129D01*
X177881884Y-96456690D01*
X174213448Y-92672297D01*
X170545012Y-88887903D01*
X170693038Y-88750243D01*
X170726751Y-88718288D01*
X170788843Y-88658784D01*
X170877317Y-88573663D01*
X170990173Y-88464858D01*
X171125413Y-88334302D01*
X171281037Y-88183928D01*
X171455046Y-88015669D01*
X171645441Y-87831457D01*
X171850224Y-87633226D01*
X172067395Y-87422909D01*
X172294956Y-87202438D01*
X172530907Y-86973746D01*
X172761752Y-86749916D01*
X174682440Y-84887250D01*
X174670414Y-84781416D01*
X174653613Y-84582249D01*
X174643913Y-84349914D01*
X174641096Y-84092941D01*
X174644947Y-83819860D01*
X174655246Y-83539198D01*
X174671779Y-83259485D01*
X174694326Y-82989250D01*
X174722436Y-82738833D01*
X174826369Y-82098804D01*
X174970904Y-81468431D01*
X175155189Y-80849808D01*
X175378377Y-80245032D01*
X175639615Y-79656197D01*
X175938055Y-79085398D01*
X176272846Y-78534732D01*
X176641794Y-78008083D01*
X176784840Y-77820588D01*
X176918974Y-77652314D01*
X177051863Y-77494507D01*
X177191174Y-77338416D01*
X177344575Y-77175288D01*
X177519732Y-76996369D01*
X177587410Y-76928583D01*
X177866994Y-76657734D01*
X178135987Y-76414530D01*
X178404949Y-76189942D01*
X178684438Y-75974944D01*
X178808687Y-75884484D01*
X179347634Y-75523765D01*
X179905708Y-75200166D01*
X180480992Y-74914174D01*
X181071567Y-74666274D01*
X181675517Y-74456954D01*
X182290923Y-74286700D01*
X182915868Y-74155998D01*
X183548436Y-74065336D01*
X184186707Y-74015199D01*
X184828765Y-74006074D01*
X185472693Y-74038449D01*
G37*
%TD.AperFunction*%
X189114173Y-102376208D02*
X189114679Y-104614583D01*
X189306103Y-104719162D01*
X189762282Y-104989319D01*
X190213409Y-105297501D01*
X190654580Y-105639400D01*
X191080890Y-106010709D01*
X191487437Y-106407120D01*
X191869316Y-106824324D01*
X192221622Y-107258015D01*
X192271384Y-107323916D01*
X192632729Y-107842062D01*
X192956467Y-108379629D01*
X193242571Y-108936550D01*
X193491015Y-109512759D01*
X193701772Y-110108187D01*
X193874816Y-110722769D01*
X194010121Y-111356436D01*
X194102944Y-111970000D01*
X194116505Y-112111982D01*
X194127246Y-112287931D01*
X194135168Y-112489942D01*
X194140271Y-112710109D01*
X194142557Y-112940525D01*
X194142026Y-113173286D01*
X194138678Y-113400484D01*
X194132515Y-113614214D01*
X194123538Y-113806571D01*
X194111747Y-113969648D01*
X194102735Y-114054916D01*
X194003280Y-114701791D01*
X193868569Y-115325809D01*
X193697945Y-115928507D01*
X193490747Y-116511426D01*
X193246317Y-117076104D01*
X192963995Y-117624081D01*
X192643123Y-118156896D01*
X192283042Y-118676087D01*
X191932053Y-119124333D01*
X191819224Y-119255168D01*
X191681507Y-119405682D01*
X191526437Y-119568341D01*
X191361550Y-119735607D01*
X191194384Y-119899945D01*
X191032474Y-120053818D01*
X190883357Y-120189689D01*
X190764666Y-120291720D01*
X190252853Y-120689194D01*
X189727621Y-121046841D01*
X189187850Y-121365141D01*
X188632422Y-121644574D01*
X188060219Y-121885621D01*
X187470122Y-122088762D01*
X186861013Y-122254478D01*
X186231773Y-122383248D01*
X185716416Y-122459579D01*
X185632092Y-122467548D01*
X185513926Y-122475179D01*
X185368866Y-122482313D01*
X185203859Y-122488793D01*
X185025854Y-122494461D01*
X184841800Y-122499161D01*
X184658643Y-122502734D01*
X184483332Y-122505024D01*
X184322814Y-122505872D01*
X184184039Y-122505122D01*
X184073954Y-122502616D01*
X184001916Y-122498430D01*
X183818446Y-122480712D01*
X183668030Y-122465423D01*
X183541535Y-122451452D01*
X183429831Y-122437692D01*
X183323785Y-122423032D01*
X183214266Y-122406364D01*
X183123500Y-122391737D01*
X182503706Y-122269240D01*
X181898732Y-122107947D01*
X181310020Y-121909104D01*
X180739013Y-121673953D01*
X180187154Y-121403740D01*
X179655887Y-121099707D01*
X179146654Y-120763100D01*
X178660899Y-120395163D01*
X178200065Y-119997139D01*
X177765596Y-119570273D01*
X177358933Y-119115809D01*
X176981520Y-118634991D01*
X176634801Y-118129062D01*
X176320218Y-117599268D01*
X176039215Y-117046853D01*
X175793234Y-116473059D01*
X175589201Y-115896416D01*
X175463771Y-115474299D01*
X175361761Y-115066670D01*
X175281800Y-114664349D01*
X175222520Y-114258154D01*
X175182549Y-113838905D01*
X175160517Y-113397420D01*
X175155169Y-113007166D01*
X176667811Y-113007166D01*
X176669914Y-113257541D01*
X176676883Y-113478747D01*
X176689704Y-113683768D01*
X176709363Y-113885589D01*
X176736847Y-114097198D01*
X176764315Y-114277166D01*
X176875792Y-114841842D01*
X177025870Y-115391323D01*
X177213101Y-115924133D01*
X177436038Y-116438797D01*
X177693231Y-116933837D01*
X177983235Y-117407778D01*
X178304599Y-117859145D01*
X178655878Y-118286460D01*
X179035622Y-118688247D01*
X179442384Y-119063032D01*
X179874717Y-119409337D01*
X180331171Y-119725686D01*
X180810300Y-120010604D01*
X181310656Y-120262614D01*
X181830790Y-120480241D01*
X182369255Y-120662008D01*
X182924603Y-120806439D01*
X183229333Y-120868084D01*
X183699809Y-120940208D01*
X184163832Y-120982774D01*
X184632431Y-120996282D01*
X185116636Y-120981230D01*
X185356583Y-120964111D01*
X185896113Y-120898621D01*
X186437269Y-120792690D01*
X186975264Y-120647724D01*
X187505311Y-120465127D01*
X188022624Y-120246304D01*
X188347825Y-120086325D01*
X188824582Y-119817210D01*
X189276246Y-119518510D01*
X189707164Y-119186977D01*
X190121686Y-118819364D01*
X190362899Y-118581601D01*
X190757163Y-118148496D01*
X191115442Y-117693349D01*
X191437301Y-117217106D01*
X191722302Y-116720713D01*
X191970010Y-116205114D01*
X192179988Y-115671256D01*
X192351801Y-115120084D01*
X192485012Y-114552543D01*
X192579185Y-113969579D01*
X192607390Y-113716250D01*
X192618937Y-113556430D01*
X192626481Y-113365193D01*
X192630098Y-113153255D01*
X192629867Y-112931336D01*
X192625865Y-112710154D01*
X192618172Y-112500426D01*
X192606865Y-112312870D01*
X192596314Y-112195566D01*
X192512865Y-111610496D01*
X192389978Y-111040220D01*
X192228121Y-110485725D01*
X192027764Y-109947992D01*
X191789374Y-109428007D01*
X191513422Y-108926754D01*
X191200376Y-108445216D01*
X190850704Y-107984377D01*
X190464875Y-107545222D01*
X190299931Y-107375258D01*
X189885791Y-106985736D01*
X189458889Y-106634993D01*
X189015436Y-106320435D01*
X188551638Y-106039467D01*
X188063704Y-105789498D01*
X187824054Y-105681592D01*
X187462011Y-105534617D01*
X187102765Y-105408396D01*
X186737396Y-105300527D01*
X186356982Y-105208611D01*
X185952601Y-105130245D01*
X185536500Y-105065939D01*
X185432103Y-105055463D01*
X185292871Y-105047364D01*
X185126234Y-105041601D01*
X184939620Y-105038132D01*
X184740460Y-105036914D01*
X184536181Y-105037908D01*
X184334214Y-105041070D01*
X184141987Y-105046360D01*
X183966930Y-105053735D01*
X183816472Y-105063154D01*
X183698042Y-105074575D01*
X183684416Y-105076334D01*
X183094704Y-105175322D01*
X182525227Y-105311224D01*
X181974570Y-105484578D01*
X181441320Y-105695921D01*
X180924059Y-105945790D01*
X180421374Y-106234720D01*
X180128416Y-106425524D01*
X179765094Y-106691361D01*
X179403936Y-106991371D01*
X179053024Y-107317808D01*
X178720442Y-107662928D01*
X178414275Y-108018984D01*
X178262893Y-108212916D01*
X177934090Y-108684981D01*
X177640512Y-109179436D01*
X177383295Y-109693606D01*
X177163578Y-110224813D01*
X176982500Y-110770382D01*
X176841198Y-111327635D01*
X176764315Y-111737166D01*
X176730051Y-111965397D01*
X176704380Y-112173725D01*
X176686317Y-112375136D01*
X176674874Y-112582615D01*
X176669065Y-112809148D01*
X176667811Y-113007166D01*
X175155169Y-113007166D01*
X175154878Y-112986000D01*
X175156095Y-112739068D01*
X175159741Y-112525373D01*
X175166533Y-112335850D01*
X175177190Y-112161436D01*
X175192431Y-111993069D01*
X175212974Y-111821686D01*
X175239539Y-111638223D01*
X175272843Y-111433617D01*
X175282438Y-111377333D01*
X175407671Y-110771209D01*
X175572591Y-110176493D01*
X175775832Y-109595120D01*
X176016028Y-109029024D01*
X176291813Y-108480141D01*
X176601821Y-107950406D01*
X176944687Y-107441755D01*
X177319045Y-106956122D01*
X177723528Y-106495443D01*
X178156771Y-106061653D01*
X178617409Y-105656687D01*
X179104074Y-105282480D01*
X179615401Y-104940968D01*
X179974496Y-104729518D01*
X180180408Y-104614583D01*
X180180871Y-102376208D01*
X180181333Y-100137833D01*
X189113666Y-100137833D01*
X189114173Y-102376208D01*
%TA.AperFunction,EtchedComponent*%
G36*
X189114173Y-102376208D02*
G01*
X189114679Y-104614583D01*
X189306103Y-104719162D01*
X189762282Y-104989319D01*
X190213409Y-105297501D01*
X190654580Y-105639400D01*
X191080890Y-106010709D01*
X191487437Y-106407120D01*
X191869316Y-106824324D01*
X192221622Y-107258015D01*
X192271384Y-107323916D01*
X192632729Y-107842062D01*
X192956467Y-108379629D01*
X193242571Y-108936550D01*
X193491015Y-109512759D01*
X193701772Y-110108187D01*
X193874816Y-110722769D01*
X194010121Y-111356436D01*
X194102944Y-111970000D01*
X194116505Y-112111982D01*
X194127246Y-112287931D01*
X194135168Y-112489942D01*
X194140271Y-112710109D01*
X194142557Y-112940525D01*
X194142026Y-113173286D01*
X194138678Y-113400484D01*
X194132515Y-113614214D01*
X194123538Y-113806571D01*
X194111747Y-113969648D01*
X194102735Y-114054916D01*
X194003280Y-114701791D01*
X193868569Y-115325809D01*
X193697945Y-115928507D01*
X193490747Y-116511426D01*
X193246317Y-117076104D01*
X192963995Y-117624081D01*
X192643123Y-118156896D01*
X192283042Y-118676087D01*
X191932053Y-119124333D01*
X191819224Y-119255168D01*
X191681507Y-119405682D01*
X191526437Y-119568341D01*
X191361550Y-119735607D01*
X191194384Y-119899945D01*
X191032474Y-120053818D01*
X190883357Y-120189689D01*
X190764666Y-120291720D01*
X190252853Y-120689194D01*
X189727621Y-121046841D01*
X189187850Y-121365141D01*
X188632422Y-121644574D01*
X188060219Y-121885621D01*
X187470122Y-122088762D01*
X186861013Y-122254478D01*
X186231773Y-122383248D01*
X185716416Y-122459579D01*
X185632092Y-122467548D01*
X185513926Y-122475179D01*
X185368866Y-122482313D01*
X185203859Y-122488793D01*
X185025854Y-122494461D01*
X184841800Y-122499161D01*
X184658643Y-122502734D01*
X184483332Y-122505024D01*
X184322814Y-122505872D01*
X184184039Y-122505122D01*
X184073954Y-122502616D01*
X184001916Y-122498430D01*
X183818446Y-122480712D01*
X183668030Y-122465423D01*
X183541535Y-122451452D01*
X183429831Y-122437692D01*
X183323785Y-122423032D01*
X183214266Y-122406364D01*
X183123500Y-122391737D01*
X182503706Y-122269240D01*
X181898732Y-122107947D01*
X181310020Y-121909104D01*
X180739013Y-121673953D01*
X180187154Y-121403740D01*
X179655887Y-121099707D01*
X179146654Y-120763100D01*
X178660899Y-120395163D01*
X178200065Y-119997139D01*
X177765596Y-119570273D01*
X177358933Y-119115809D01*
X176981520Y-118634991D01*
X176634801Y-118129062D01*
X176320218Y-117599268D01*
X176039215Y-117046853D01*
X175793234Y-116473059D01*
X175589201Y-115896416D01*
X175463771Y-115474299D01*
X175361761Y-115066670D01*
X175281800Y-114664349D01*
X175222520Y-114258154D01*
X175182549Y-113838905D01*
X175160517Y-113397420D01*
X175155169Y-113007166D01*
X176667811Y-113007166D01*
X176669914Y-113257541D01*
X176676883Y-113478747D01*
X176689704Y-113683768D01*
X176709363Y-113885589D01*
X176736847Y-114097198D01*
X176764315Y-114277166D01*
X176875792Y-114841842D01*
X177025870Y-115391323D01*
X177213101Y-115924133D01*
X177436038Y-116438797D01*
X177693231Y-116933837D01*
X177983235Y-117407778D01*
X178304599Y-117859145D01*
X178655878Y-118286460D01*
X179035622Y-118688247D01*
X179442384Y-119063032D01*
X179874717Y-119409337D01*
X180331171Y-119725686D01*
X180810300Y-120010604D01*
X181310656Y-120262614D01*
X181830790Y-120480241D01*
X182369255Y-120662008D01*
X182924603Y-120806439D01*
X183229333Y-120868084D01*
X183699809Y-120940208D01*
X184163832Y-120982774D01*
X184632431Y-120996282D01*
X185116636Y-120981230D01*
X185356583Y-120964111D01*
X185896113Y-120898621D01*
X186437269Y-120792690D01*
X186975264Y-120647724D01*
X187505311Y-120465127D01*
X188022624Y-120246304D01*
X188347825Y-120086325D01*
X188824582Y-119817210D01*
X189276246Y-119518510D01*
X189707164Y-119186977D01*
X190121686Y-118819364D01*
X190362899Y-118581601D01*
X190757163Y-118148496D01*
X191115442Y-117693349D01*
X191437301Y-117217106D01*
X191722302Y-116720713D01*
X191970010Y-116205114D01*
X192179988Y-115671256D01*
X192351801Y-115120084D01*
X192485012Y-114552543D01*
X192579185Y-113969579D01*
X192607390Y-113716250D01*
X192618937Y-113556430D01*
X192626481Y-113365193D01*
X192630098Y-113153255D01*
X192629867Y-112931336D01*
X192625865Y-112710154D01*
X192618172Y-112500426D01*
X192606865Y-112312870D01*
X192596314Y-112195566D01*
X192512865Y-111610496D01*
X192389978Y-111040220D01*
X192228121Y-110485725D01*
X192027764Y-109947992D01*
X191789374Y-109428007D01*
X191513422Y-108926754D01*
X191200376Y-108445216D01*
X190850704Y-107984377D01*
X190464875Y-107545222D01*
X190299931Y-107375258D01*
X189885791Y-106985736D01*
X189458889Y-106634993D01*
X189015436Y-106320435D01*
X188551638Y-106039467D01*
X188063704Y-105789498D01*
X187824054Y-105681592D01*
X187462011Y-105534617D01*
X187102765Y-105408396D01*
X186737396Y-105300527D01*
X186356982Y-105208611D01*
X185952601Y-105130245D01*
X185536500Y-105065939D01*
X185432103Y-105055463D01*
X185292871Y-105047364D01*
X185126234Y-105041601D01*
X184939620Y-105038132D01*
X184740460Y-105036914D01*
X184536181Y-105037908D01*
X184334214Y-105041070D01*
X184141987Y-105046360D01*
X183966930Y-105053735D01*
X183816472Y-105063154D01*
X183698042Y-105074575D01*
X183684416Y-105076334D01*
X183094704Y-105175322D01*
X182525227Y-105311224D01*
X181974570Y-105484578D01*
X181441320Y-105695921D01*
X180924059Y-105945790D01*
X180421374Y-106234720D01*
X180128416Y-106425524D01*
X179765094Y-106691361D01*
X179403936Y-106991371D01*
X179053024Y-107317808D01*
X178720442Y-107662928D01*
X178414275Y-108018984D01*
X178262893Y-108212916D01*
X177934090Y-108684981D01*
X177640512Y-109179436D01*
X177383295Y-109693606D01*
X177163578Y-110224813D01*
X176982500Y-110770382D01*
X176841198Y-111327635D01*
X176764315Y-111737166D01*
X176730051Y-111965397D01*
X176704380Y-112173725D01*
X176686317Y-112375136D01*
X176674874Y-112582615D01*
X176669065Y-112809148D01*
X176667811Y-113007166D01*
X175155169Y-113007166D01*
X175154878Y-112986000D01*
X175156095Y-112739068D01*
X175159741Y-112525373D01*
X175166533Y-112335850D01*
X175177190Y-112161436D01*
X175192431Y-111993069D01*
X175212974Y-111821686D01*
X175239539Y-111638223D01*
X175272843Y-111433617D01*
X175282438Y-111377333D01*
X175407671Y-110771209D01*
X175572591Y-110176493D01*
X175775832Y-109595120D01*
X176016028Y-109029024D01*
X176291813Y-108480141D01*
X176601821Y-107950406D01*
X176944687Y-107441755D01*
X177319045Y-106956122D01*
X177723528Y-106495443D01*
X178156771Y-106061653D01*
X178617409Y-105656687D01*
X179104074Y-105282480D01*
X179615401Y-104940968D01*
X179974496Y-104729518D01*
X180180408Y-104614583D01*
X180180871Y-102376208D01*
X180181333Y-100137833D01*
X189113666Y-100137833D01*
X189114173Y-102376208D01*
G37*
%TD.AperFunction*%
%TD*%
D11*
%TO.P,J2,1*%
%TO.N,GND*%
X73078000Y-72168000D03*
%TO.P,J2,2*%
%TO.N,SolarPower*%
X73078000Y-73918000D03*
%TD*%
D12*
%TO.N,*%
X184600000Y-104200000D03*
X184600000Y-113000000D03*
D13*
%TO.N,SolarPower*%
X83510000Y-76722000D03*
%TO.N,TRIG*%
X60632000Y-77248000D03*
X59362000Y-75724000D03*
%TO.N,ADXL_Y_OUT*%
X29898000Y-117126000D03*
X29898000Y-107220000D03*
D12*
%TO.N,ADXL_X_OUT*%
X36637000Y-91472000D03*
X43106000Y-96806000D03*
%TO.N,RingPower*%
X33962000Y-105950000D03*
X39550000Y-100108000D03*
D13*
X33648340Y-111538000D03*
%TO.N,Net-(D13-ANODE_(+))*%
X59108000Y-104680000D03*
X63680000Y-112300000D03*
%TO.N,Net-(D14-ANODE_(+))*%
X62156000Y-108744000D03*
X59689000Y-106458000D03*
%TO.N,Power3V3*%
X59235000Y-78645000D03*
X51234000Y-81185000D03*
%TO.N,~{Blue_LED}*%
X33708000Y-80449000D03*
X54028000Y-94520000D03*
%TO.N,~{Red_LED}*%
X49710000Y-87408000D03*
X59362000Y-94266000D03*
%TO.N,Net-(U5-INA)*%
X23548000Y-119666000D03*
X23548000Y-115602000D03*
%TO.N,Net-(U5-IND)*%
X33962000Y-113316000D03*
X34724000Y-109760000D03*
%TO.N,unconnected-(U1-INT2-Pad6)*%
X69268000Y-79026000D03*
%TO.N,~{Green_LED}*%
X46408000Y-81312000D03*
X58780000Y-93504000D03*
%TO.N,INT_CLK*%
X72824000Y-85630000D03*
X67490000Y-79280000D03*
D12*
%TO.N,op_y6*%
X37772000Y-102648000D03*
D13*
X35667000Y-112782500D03*
X35667000Y-111030000D03*
%TO.N,op_y8*%
X29898000Y-122968000D03*
X28882000Y-109760000D03*
D12*
%TO.N,op_y7*%
X29390000Y-101632000D03*
D13*
X34470000Y-112554000D03*
D12*
X46408000Y-95790000D03*
D13*
%TO.N,op_y5*%
X55806000Y-109089500D03*
X46481000Y-107039000D03*
%TO.N,Y1*%
X54790000Y-116364000D03*
X41074000Y-111700499D03*
X47932000Y-115602000D03*
X79936000Y-99927000D03*
X47170000Y-112671500D03*
X30225000Y-114078000D03*
%TO.N,op_y2*%
X46916000Y-111030000D03*
X49836000Y-110776000D03*
X30406000Y-120682000D03*
X41621508Y-111119499D03*
%TO.N,op_y3*%
X30181830Y-121727830D03*
X42779000Y-109252000D03*
X50472000Y-111284000D03*
X48186000Y-111357000D03*
%TO.N,op_y4*%
X32184000Y-113570000D03*
X55987000Y-111030000D03*
X50726000Y-106712000D03*
X41582000Y-108490000D03*
%TO.N,~{y3}*%
X48440000Y-108236000D03*
X55688500Y-111830843D03*
%TO.N,~{y5}*%
X38290738Y-109749262D03*
X36248000Y-113243000D03*
%TO.N,~{y4}*%
X52052505Y-106320165D03*
X56352699Y-109798699D03*
%TO.N,~{y2}*%
X50472000Y-110014000D03*
X47932000Y-110014000D03*
%TO.N,~{y6}*%
X43030515Y-110273438D03*
X41328000Y-117634000D03*
%TO.N,~{x}*%
X54028000Y-101124000D03*
X54393500Y-98218500D03*
X60053452Y-101070672D03*
%TO.N,~{y7}*%
X50472000Y-103156000D03*
X44122000Y-119412000D03*
%TO.N,x*%
X48186000Y-93758000D03*
X36683000Y-89694000D03*
X84508000Y-98330000D03*
X89080000Y-116110000D03*
%TO.N,Y2*%
X53266000Y-111030000D03*
X83746000Y-101886000D03*
X53012000Y-118650000D03*
%TO.N,Y4*%
X55552000Y-116784000D03*
X86540000Y-113824000D03*
%TO.N,Y3*%
X86032000Y-101632000D03*
X55552000Y-118650000D03*
X54023178Y-112671500D03*
%TO.N,Y7*%
X85270000Y-116618000D03*
X63172000Y-102648000D03*
X43360000Y-118142000D03*
X59518830Y-101534830D03*
%TO.N,Y5*%
X53998170Y-109027830D03*
X55688500Y-110379699D03*
X59362000Y-110522000D03*
X83492000Y-115856000D03*
%TO.N,Y8*%
X58547731Y-100199500D03*
X64442000Y-100435000D03*
X85851000Y-115397880D03*
X47424000Y-120101000D03*
%TO.N,Y6*%
X83492000Y-120755000D03*
X52758000Y-101632000D03*
X42090000Y-116618000D03*
D12*
%TO.N,GND*%
X64188000Y-114586000D03*
X74094000Y-109760000D03*
X73078000Y-88170000D03*
X23548000Y-73438000D03*
X36502000Y-118396000D03*
D13*
X72960000Y-90095117D03*
X93280000Y-102795117D03*
D12*
X66474000Y-115602000D03*
X34216000Y-73184000D03*
D13*
X80580000Y-110415117D03*
D12*
X53774000Y-91726000D03*
D13*
X98360000Y-105335117D03*
X75500000Y-72315117D03*
D12*
X48186000Y-83852000D03*
X67744000Y-81058000D03*
X77396000Y-118650000D03*
D13*
X78040000Y-95175117D03*
X103440000Y-90095117D03*
D12*
X70538000Y-101632000D03*
X75872000Y-113570000D03*
D13*
X55180000Y-105335117D03*
X80580000Y-90095117D03*
X83120000Y-112955117D03*
D12*
X49456000Y-121952000D03*
X74856000Y-104680000D03*
X38280000Y-91218000D03*
D13*
X95820000Y-102795117D03*
X98360000Y-107875117D03*
D12*
X51234000Y-114332000D03*
X47678000Y-116872000D03*
D13*
X37400000Y-107875117D03*
X80580000Y-92635117D03*
X88200000Y-112955117D03*
X100900000Y-110415117D03*
D12*
X87048000Y-120428000D03*
D13*
X98360000Y-118035117D03*
X22160000Y-120575117D03*
X100900000Y-112955117D03*
X93280000Y-110415117D03*
D12*
X30914000Y-112554000D03*
D13*
X100900000Y-72315117D03*
D12*
X85016000Y-105188000D03*
X102034000Y-104426000D03*
X42598000Y-106204000D03*
D13*
X103440000Y-118035117D03*
D12*
X59616000Y-117126000D03*
X49456000Y-114332000D03*
X51488000Y-74454000D03*
D13*
X95820000Y-115495117D03*
D12*
X78666000Y-106458000D03*
D13*
X98360000Y-110415117D03*
D12*
X30660000Y-110776000D03*
D13*
X70420000Y-123115117D03*
D12*
X76380000Y-111792000D03*
D13*
X24700000Y-79935117D03*
D12*
X73586000Y-113570000D03*
D13*
X22160000Y-123115117D03*
X34860000Y-100255117D03*
D12*
X52250000Y-98584000D03*
D13*
X57720000Y-72315117D03*
X100900000Y-118035117D03*
X98360000Y-95175117D03*
D12*
X31676000Y-88678000D03*
D13*
X93280000Y-107875117D03*
X42480000Y-72315117D03*
X100900000Y-120575117D03*
X34860000Y-77395117D03*
X93280000Y-105335117D03*
D12*
X28374000Y-112300000D03*
D13*
X95820000Y-118035117D03*
X22160000Y-72315117D03*
D12*
X44630000Y-82074000D03*
D13*
X103440000Y-115495117D03*
X72960000Y-123115117D03*
X75500000Y-95175117D03*
D12*
X60124000Y-111792000D03*
X53266000Y-120174000D03*
D13*
X67880000Y-92635117D03*
D12*
X49964000Y-112554000D03*
D13*
X98360000Y-120575117D03*
D12*
X46916000Y-114586000D03*
X44884000Y-100616000D03*
X38026000Y-106458000D03*
D13*
X32320000Y-72315117D03*
D12*
X56822000Y-88424000D03*
X55806000Y-97568000D03*
D13*
X90740000Y-123115117D03*
D12*
X75618000Y-97822000D03*
D13*
X22160000Y-95175117D03*
X88200000Y-110415117D03*
D12*
X71808000Y-115602000D03*
D13*
X34860000Y-85015117D03*
X22160000Y-90095117D03*
D12*
X65204000Y-101632000D03*
X54282000Y-85122000D03*
D13*
X88200000Y-123115117D03*
D12*
X78158000Y-101886000D03*
X37010000Y-122460000D03*
D13*
X67880000Y-90095117D03*
X103440000Y-123115117D03*
X37400000Y-95175117D03*
X100900000Y-115495117D03*
D12*
X78158000Y-97822000D03*
D13*
X65340000Y-105335117D03*
X22160000Y-100255117D03*
D12*
X85016000Y-118650000D03*
D13*
X45020000Y-123115117D03*
X93280000Y-115495117D03*
D12*
X64442000Y-110014000D03*
X39550000Y-72676000D03*
D13*
X67880000Y-95175117D03*
X22160000Y-92635117D03*
D12*
X39296000Y-79534000D03*
D13*
X24700000Y-77395117D03*
D12*
X61648000Y-118396000D03*
X68506000Y-103918000D03*
D13*
X80580000Y-112955117D03*
X78040000Y-92635117D03*
X47560000Y-97715117D03*
D12*
X24818000Y-91472000D03*
D13*
X22160000Y-102795117D03*
D12*
X34978000Y-81566000D03*
D13*
X90740000Y-120575117D03*
X103440000Y-72315117D03*
X39940000Y-85015117D03*
D12*
X25580000Y-96552000D03*
X76380000Y-87154000D03*
D13*
X22160000Y-110415117D03*
D12*
X29644000Y-89948000D03*
X61394000Y-113570000D03*
X53774000Y-121698000D03*
D13*
X22160000Y-97715117D03*
X95820000Y-110415117D03*
X103440000Y-112955117D03*
X32320000Y-85015117D03*
D12*
X67744000Y-117888000D03*
D13*
X98360000Y-115495117D03*
D12*
X49456000Y-118650000D03*
D13*
X103440000Y-97715117D03*
X34860000Y-72315117D03*
D12*
X69776000Y-115602000D03*
D13*
X93280000Y-123115117D03*
X65340000Y-92635117D03*
X100900000Y-123115117D03*
D12*
X47170000Y-107728000D03*
X40312000Y-114586000D03*
X58346000Y-106966000D03*
D13*
X24700000Y-82475117D03*
X22160000Y-118035117D03*
X70420000Y-95175117D03*
X93280000Y-120575117D03*
X32320000Y-97715117D03*
D12*
X71300000Y-86138000D03*
D13*
X22160000Y-112955117D03*
X93280000Y-112955117D03*
D12*
X47170000Y-105950000D03*
D13*
X37400000Y-100255117D03*
D12*
X81968000Y-78772000D03*
X46154000Y-93758000D03*
D13*
X70420000Y-90095117D03*
D12*
X59359314Y-109425246D03*
X72062000Y-108490000D03*
D13*
X85660000Y-123115117D03*
D12*
X70538000Y-97822000D03*
D13*
X65340000Y-90095117D03*
D12*
X57330000Y-114332000D03*
D13*
X67880000Y-87555117D03*
X22160000Y-87555117D03*
X27240000Y-82475117D03*
X83120000Y-110415117D03*
X45020000Y-74855117D03*
X80580000Y-95175117D03*
X37400000Y-77395117D03*
X88200000Y-107875117D03*
D12*
X102542000Y-107220000D03*
D13*
X78040000Y-90095117D03*
X75500000Y-90095117D03*
D12*
X71808000Y-118142000D03*
X29136000Y-103664000D03*
D13*
X45020000Y-72315117D03*
X95820000Y-123115117D03*
D12*
X74272617Y-117959176D03*
D13*
X85660000Y-74855117D03*
D12*
X27866000Y-96806000D03*
X68760000Y-110014000D03*
X69014000Y-107220000D03*
X62664000Y-106458000D03*
D13*
X47560000Y-90095117D03*
X37400000Y-97715117D03*
D12*
X54536000Y-96806000D03*
D13*
X42480000Y-74855117D03*
X103440000Y-120575117D03*
D12*
X65966000Y-108490000D03*
X70792000Y-106458000D03*
X75618000Y-101886000D03*
X30660000Y-115602000D03*
D13*
X75500000Y-123115117D03*
D12*
X59108000Y-81058000D03*
D13*
X88200000Y-95175117D03*
D12*
X50472000Y-86138000D03*
D13*
X90740000Y-118035117D03*
X72960000Y-92635117D03*
X65340000Y-95175117D03*
X95820000Y-107875117D03*
X95820000Y-105335117D03*
X72960000Y-79935117D03*
X95820000Y-120575117D03*
X80580000Y-123115117D03*
X83120000Y-123115117D03*
D12*
X37772000Y-120936000D03*
D13*
X62800000Y-79935117D03*
X98360000Y-112955117D03*
X52640000Y-90095117D03*
D12*
X82222000Y-84360000D03*
X59870000Y-90456000D03*
D13*
X90740000Y-115495117D03*
X75500000Y-92635117D03*
X72960000Y-95175117D03*
X42480000Y-123115117D03*
D12*
X38534000Y-103664000D03*
X100256000Y-100108000D03*
D13*
X65340000Y-85015117D03*
X34860000Y-97715117D03*
D12*
X74094000Y-77756000D03*
D13*
X22160000Y-105335117D03*
X95820000Y-112955117D03*
D12*
X69776000Y-118142000D03*
X60378000Y-96298000D03*
X49710000Y-107474000D03*
X65712000Y-112554000D03*
D13*
X24700000Y-72315117D03*
X65340000Y-87555117D03*
X98360000Y-123115117D03*
D12*
X29136000Y-105950000D03*
X27358000Y-91980000D03*
D13*
X70420000Y-92635117D03*
X22160000Y-107875117D03*
X39940000Y-97715117D03*
X37400000Y-85015117D03*
D12*
X65204000Y-97822000D03*
X62410000Y-87916000D03*
D13*
X103440000Y-77395117D03*
X93280000Y-118035117D03*
D12*
X30660000Y-118396000D03*
D13*
X83120000Y-95175117D03*
X78040000Y-123115117D03*
%TD*%
D14*
%TO.N,SolarPower*%
X79400000Y-73918000D02*
X82222000Y-76740000D01*
X73078000Y-73918000D02*
X79400000Y-73918000D01*
X82222000Y-76740000D02*
X83492000Y-76740000D01*
D15*
%TO.N,TRIG*%
X59362000Y-75724000D02*
X59362000Y-75978000D01*
X59362000Y-75978000D02*
X60632000Y-77248000D01*
%TO.N,ADXL_Y_OUT*%
X29644000Y-107474000D02*
X29644000Y-116872000D01*
X29898000Y-107220000D02*
X29644000Y-107474000D01*
X29644000Y-116872000D02*
X29898000Y-117126000D01*
D16*
%TO.N,ADXL_X_OUT*%
X43106000Y-96806000D02*
X41971000Y-96806000D01*
X41971000Y-96806000D02*
X36637000Y-91472000D01*
%TO.N,RingPower*%
X33962000Y-105442000D02*
X39296000Y-100108000D01*
D15*
X33962000Y-111224340D02*
X33962000Y-105950000D01*
D16*
X33962000Y-105950000D02*
X33962000Y-105442000D01*
D15*
X33648340Y-111538000D02*
X33962000Y-111224340D01*
D16*
X39296000Y-100108000D02*
X39550000Y-100108000D01*
D15*
%TO.N,Net-(D13-ANODE_(+))*%
X59108000Y-107728000D02*
X63680000Y-112300000D01*
X59108000Y-104680000D02*
X59108000Y-107728000D01*
%TO.N,Net-(D14-ANODE_(+))*%
X59689000Y-106458000D02*
X59870000Y-106458000D01*
X59870000Y-106458000D02*
X62156000Y-108744000D01*
D14*
%TO.N,Power3V3*%
X56695000Y-81185000D02*
X51234000Y-81185000D01*
X59235000Y-78645000D02*
X56695000Y-81185000D01*
D15*
%TO.N,~{Blue_LED}*%
X33708000Y-80449000D02*
X33809000Y-80550000D01*
X40058000Y-80550000D02*
X54028000Y-94520000D01*
X33809000Y-80550000D02*
X40058000Y-80550000D01*
%TO.N,~{Red_LED}*%
X57838000Y-94266000D02*
X59362000Y-94266000D01*
X57076000Y-93504000D02*
X57838000Y-94266000D01*
X53520000Y-87408000D02*
X57076000Y-90964000D01*
X49710000Y-87408000D02*
X53520000Y-87408000D01*
X57076000Y-90964000D02*
X57076000Y-93504000D01*
%TO.N,Net-(U5-INA)*%
X23548000Y-115602000D02*
X23548000Y-119666000D01*
%TO.N,Net-(U5-IND)*%
X34605073Y-113242000D02*
X34036000Y-113242000D01*
X34724000Y-109760000D02*
X35085000Y-110121000D01*
X35085000Y-112762073D02*
X34605073Y-113242000D01*
X34036000Y-113242000D02*
X33962000Y-113316000D01*
X35085000Y-110121000D02*
X35085000Y-112762073D01*
%TO.N,unconnected-(U1-INT2-Pad6)*%
X69268000Y-79026000D02*
X70538000Y-79026000D01*
%TO.N,~{Green_LED}*%
X46408000Y-81312000D02*
X48186000Y-81312000D01*
X59108000Y-92234000D02*
X59108000Y-93176000D01*
X48186000Y-81312000D02*
X59108000Y-92234000D01*
X59108000Y-93176000D02*
X58780000Y-93504000D01*
%TO.N,INT_CLK*%
X72824000Y-84614000D02*
X72824000Y-85630000D01*
X67490000Y-79280000D02*
X72824000Y-84614000D01*
%TO.N,op_y6*%
X35667000Y-112782500D02*
X35667000Y-111030000D01*
D16*
X36502000Y-105188000D02*
X37772000Y-103918000D01*
D15*
X35667000Y-106023000D02*
X36502000Y-105188000D01*
D16*
X37772000Y-103918000D02*
X37772000Y-102648000D01*
D15*
X35667000Y-111030000D02*
X35667000Y-106023000D01*
%TO.N,op_y8*%
X29136000Y-110014000D02*
X28882000Y-109760000D01*
X29136000Y-122206000D02*
X29136000Y-110014000D01*
X29898000Y-122968000D02*
X29136000Y-122206000D01*
%TO.N,op_y7*%
X34470000Y-112554000D02*
X33454000Y-112554000D01*
X33454000Y-112554000D02*
X30660000Y-109760000D01*
X30660000Y-102902000D02*
X29390000Y-101632000D01*
X30660000Y-109760000D02*
X30660000Y-102902000D01*
D16*
X46408000Y-95790000D02*
X43614000Y-98584000D01*
X32438000Y-98584000D02*
X29390000Y-101632000D01*
X43614000Y-98584000D02*
X32438000Y-98584000D01*
D15*
%TO.N,op_y5*%
X52293578Y-105738165D02*
X52634505Y-106079092D01*
X51811432Y-105738165D02*
X52293578Y-105738165D01*
X46481000Y-107039000D02*
X47097000Y-107039000D01*
X55643500Y-109089500D02*
X55806000Y-109089500D01*
X47097000Y-107039000D02*
X47932000Y-106204000D01*
X52634505Y-106080505D02*
X55643500Y-109089500D01*
X50218000Y-106204000D02*
X50472000Y-105950000D01*
X50472000Y-105950000D02*
X51599597Y-105950000D01*
X52634505Y-106079092D02*
X52634505Y-106080505D01*
X47932000Y-106204000D02*
X50218000Y-106204000D01*
X51599597Y-105950000D02*
X51811432Y-105738165D01*
%TO.N,Y1*%
X47170000Y-112671500D02*
X47170000Y-112808000D01*
X30225000Y-114078000D02*
X30914000Y-114078000D01*
X30914000Y-114078000D02*
X31422000Y-114586000D01*
X62918000Y-99854000D02*
X57584000Y-105188000D01*
X47170000Y-112808000D02*
X47932000Y-113570000D01*
X57076000Y-112046000D02*
X54790000Y-114332000D01*
X38188499Y-114586000D02*
X41074000Y-111700499D01*
X54790000Y-114332000D02*
X54790000Y-116364000D01*
X57076000Y-111538000D02*
X57076000Y-112046000D01*
X57584000Y-105188000D02*
X57584000Y-111030000D01*
X47932000Y-113570000D02*
X47932000Y-115602000D01*
X31422000Y-114586000D02*
X38188499Y-114586000D01*
X79863000Y-99854000D02*
X62918000Y-99854000D01*
X57584000Y-111030000D02*
X57076000Y-111538000D01*
X79936000Y-99927000D02*
X79863000Y-99854000D01*
%TO.N,op_y2*%
X41656000Y-111153991D02*
X41621508Y-111119499D01*
X49604000Y-110776000D02*
X49403000Y-110977000D01*
X48759532Y-110977000D02*
X48558532Y-110776000D01*
X30406000Y-120682000D02*
X32915572Y-120682000D01*
X49836000Y-110776000D02*
X49604000Y-110776000D01*
X48558532Y-110776000D02*
X47362927Y-110776000D01*
X41656000Y-111941572D02*
X41656000Y-111153991D01*
X32915572Y-120682000D02*
X41656000Y-111941572D01*
X49403000Y-110977000D02*
X48759532Y-110977000D01*
X47362927Y-110776000D02*
X47108927Y-111030000D01*
X47108927Y-111030000D02*
X46916000Y-111030000D01*
%TO.N,op_y3*%
X30181830Y-121727830D02*
X30181830Y-121981830D01*
X42344000Y-114332000D02*
X42344000Y-109506000D01*
X42598000Y-109252000D02*
X42779000Y-109252000D01*
X33635000Y-123041000D02*
X42344000Y-114332000D01*
X42344000Y-109506000D02*
X42598000Y-109252000D01*
X50218000Y-111284000D02*
X50472000Y-111284000D01*
X48186000Y-111357000D02*
X48621000Y-111792000D01*
X48621000Y-111792000D02*
X49710000Y-111792000D01*
X49710000Y-111792000D02*
X50218000Y-111284000D01*
X31241000Y-123041000D02*
X33635000Y-123041000D01*
X30181830Y-121981830D02*
X31241000Y-123041000D01*
%TO.N,op_y4*%
X55298000Y-111030000D02*
X54282000Y-110014000D01*
X32438000Y-113824000D02*
X32184000Y-113570000D01*
X34277073Y-113824000D02*
X34203073Y-113898000D01*
X37264000Y-113824000D02*
X34277073Y-113824000D01*
X54028000Y-110014000D02*
X50726000Y-106712000D01*
X41582000Y-108490000D02*
X41582000Y-109506000D01*
X55987000Y-111030000D02*
X55298000Y-111030000D01*
X34203073Y-113898000D02*
X33720927Y-113898000D01*
X33646927Y-113824000D02*
X32438000Y-113824000D01*
X41582000Y-109506000D02*
X37264000Y-113824000D01*
X33720927Y-113898000D02*
X33646927Y-113824000D01*
X54282000Y-110014000D02*
X54028000Y-110014000D01*
%TO.N,~{y3}*%
X51259854Y-109772927D02*
X51054000Y-109772927D01*
X54790000Y-111538000D02*
X53507073Y-110255073D01*
X55688500Y-111830843D02*
X55395657Y-111538000D01*
X53507073Y-110255073D02*
X51742000Y-110255073D01*
X55395657Y-111538000D02*
X54790000Y-111538000D01*
X49517073Y-108236000D02*
X48440000Y-108236000D01*
X51742000Y-110255073D02*
X51259854Y-109772927D01*
X51054000Y-109772927D02*
X49517073Y-108236000D01*
%TO.N,~{y5}*%
X36248000Y-110522000D02*
X36248000Y-113243000D01*
X37045262Y-109760000D02*
X37010000Y-109760000D01*
X37010000Y-109760000D02*
X36248000Y-110522000D01*
X37056000Y-109749262D02*
X37045262Y-109760000D01*
X38290738Y-109749262D02*
X37056000Y-109749262D01*
%TO.N,~{y4}*%
X52533330Y-106741330D02*
X55590699Y-109798699D01*
X52473670Y-106741330D02*
X52533330Y-106741330D01*
X52052505Y-106320165D02*
X52473670Y-106741330D01*
X55590699Y-109798699D02*
X56352699Y-109798699D01*
%TO.N,~{y2}*%
X47932000Y-110014000D02*
X50472000Y-110014000D01*
%TO.N,~{y6}*%
X41328000Y-116364000D02*
X43106000Y-114586000D01*
X43106000Y-114586000D02*
X43106000Y-110268000D01*
X43106000Y-110268000D02*
X43025077Y-110268000D01*
X43025077Y-110268000D02*
X43030515Y-110273438D01*
X41328000Y-117634000D02*
X41328000Y-116364000D01*
%TO.N,~{x}*%
X54028000Y-101124000D02*
X53774000Y-100870000D01*
X53774000Y-100870000D02*
X53774000Y-98838000D01*
X53774000Y-98838000D02*
X54393500Y-98218500D01*
X60053452Y-99529452D02*
X60053452Y-101070672D01*
X58742500Y-98218500D02*
X60053452Y-99529452D01*
X54393500Y-98218500D02*
X58742500Y-98218500D01*
%TO.N,~{y7}*%
X50472000Y-103156000D02*
X46408000Y-103156000D01*
X45138000Y-104426000D02*
X45138000Y-116110000D01*
X46408000Y-103156000D02*
X45138000Y-104426000D01*
X45138000Y-116110000D02*
X44122000Y-117126000D01*
X44122000Y-117126000D02*
X44122000Y-119412000D01*
%TO.N,x*%
X36683000Y-89694000D02*
X44122000Y-89694000D01*
X89334000Y-101378000D02*
X89334000Y-115856000D01*
X60378000Y-98584000D02*
X84254000Y-98584000D01*
X84508000Y-98330000D02*
X86286000Y-98330000D01*
X48186000Y-93758000D02*
X50472000Y-96044000D01*
X86286000Y-98330000D02*
X89334000Y-101378000D01*
X50472000Y-96044000D02*
X57838000Y-96044000D01*
X84254000Y-98584000D02*
X84508000Y-98330000D01*
X57838000Y-96044000D02*
X60378000Y-98584000D01*
X44122000Y-89694000D02*
X48186000Y-93758000D01*
X89334000Y-115856000D02*
X89080000Y-116110000D01*
%TO.N,Y2*%
X86540000Y-112808000D02*
X86540000Y-104680000D01*
X53266000Y-118396000D02*
X53012000Y-118650000D01*
X54536000Y-120174000D02*
X86032000Y-120174000D01*
X86032000Y-120174000D02*
X87302000Y-118904000D01*
X87302000Y-118904000D02*
X87302000Y-113570000D01*
X53266000Y-111030000D02*
X53266000Y-118396000D01*
X53012000Y-118650000D02*
X54536000Y-120174000D01*
X87302000Y-113570000D02*
X86540000Y-112808000D01*
X86540000Y-104680000D02*
X83746000Y-101886000D01*
%TO.N,Y4*%
X86540000Y-113824000D02*
X86540000Y-118650000D01*
X57584000Y-119666000D02*
X57076000Y-119158000D01*
X86540000Y-118650000D02*
X85524000Y-119666000D01*
X85524000Y-119666000D02*
X57584000Y-119666000D01*
X57076000Y-119158000D02*
X57076000Y-118308000D01*
X57076000Y-118308000D02*
X55552000Y-116784000D01*
%TO.N,Y3*%
X82984000Y-99346000D02*
X62410000Y-99346000D01*
X54028000Y-112676322D02*
X54028000Y-117126000D01*
X55669500Y-112671500D02*
X54023178Y-112671500D01*
X54028000Y-117126000D02*
X55552000Y-118650000D01*
X56568000Y-111030000D02*
X56568000Y-111773000D01*
X56568000Y-111773000D02*
X55669500Y-112671500D01*
X57076000Y-104934000D02*
X57076000Y-110522000D01*
X60632000Y-101378000D02*
X57076000Y-104934000D01*
X57076000Y-110522000D02*
X56568000Y-111030000D01*
X86032000Y-101632000D02*
X85270000Y-101632000D01*
X62410000Y-99346000D02*
X60632000Y-101124000D01*
X60632000Y-101124000D02*
X60632000Y-101378000D01*
X85270000Y-101632000D02*
X82984000Y-99346000D01*
X54023178Y-112671500D02*
X54028000Y-112676322D01*
%TO.N,Y7*%
X44376000Y-103918000D02*
X45900000Y-102394000D01*
X54028000Y-102394000D02*
X55044000Y-101378000D01*
X85270000Y-116618000D02*
X85270000Y-110776000D01*
X44376000Y-116110000D02*
X44376000Y-103918000D01*
X43360000Y-117126000D02*
X44376000Y-116110000D01*
X59285656Y-101301656D02*
X59518830Y-101534830D01*
X55044000Y-99600000D02*
X55552000Y-99092000D01*
X58600000Y-99092000D02*
X59285656Y-99777656D01*
X77142000Y-102648000D02*
X63172000Y-102648000D01*
X55044000Y-101378000D02*
X55044000Y-99600000D01*
X55552000Y-99092000D02*
X58600000Y-99092000D01*
X43360000Y-118142000D02*
X43360000Y-117126000D01*
X85270000Y-110776000D02*
X77142000Y-102648000D01*
X45900000Y-102394000D02*
X54028000Y-102394000D01*
X59285656Y-99777656D02*
X59285656Y-101301656D01*
%TO.N,Y5*%
X83492000Y-115856000D02*
X82476000Y-116872000D01*
X82476000Y-116872000D02*
X61394000Y-116872000D01*
X55409699Y-110379699D02*
X54057830Y-109027830D01*
X54057830Y-109027830D02*
X53998170Y-109027830D01*
X61394000Y-116872000D02*
X59362000Y-114840000D01*
X59362000Y-114840000D02*
X59362000Y-110522000D01*
X55688500Y-110379699D02*
X55409699Y-110379699D01*
%TO.N,Y8*%
X58547731Y-100055731D02*
X58547731Y-100199500D01*
X78867000Y-100309000D02*
X64568000Y-100309000D01*
X47424000Y-120101000D02*
X47424000Y-118142000D01*
X64568000Y-100309000D02*
X64442000Y-100435000D01*
X53266000Y-103918000D02*
X55552000Y-101632000D01*
X85778000Y-107220000D02*
X78867000Y-100309000D01*
X85778000Y-115324880D02*
X85778000Y-107220000D01*
X58092000Y-99600000D02*
X58547731Y-100055731D01*
X45900000Y-105442000D02*
X47424000Y-103918000D01*
X45900000Y-116618000D02*
X45900000Y-105442000D01*
X47424000Y-118142000D02*
X45900000Y-116618000D01*
X85851000Y-115397880D02*
X85778000Y-115324880D01*
X55806000Y-99600000D02*
X58092000Y-99600000D01*
X55552000Y-99854000D02*
X55806000Y-99600000D01*
X47424000Y-103918000D02*
X53266000Y-103918000D01*
X55552000Y-101632000D02*
X55552000Y-99854000D01*
%TO.N,Y6*%
X52758000Y-101632000D02*
X45138000Y-101632000D01*
X83311000Y-120936000D02*
X83492000Y-120755000D01*
X42090000Y-118396000D02*
X44630000Y-120936000D01*
X43614000Y-115094000D02*
X42090000Y-116618000D01*
X43614000Y-103156000D02*
X43614000Y-115094000D01*
X42090000Y-116618000D02*
X42090000Y-118396000D01*
X44630000Y-120936000D02*
X83311000Y-120936000D01*
X45138000Y-101632000D02*
X43614000Y-103156000D01*
%TD*%
%TA.AperFunction,Conductor*%
%TO.N,GND*%
G36*
X41635834Y-112951671D02*
G01*
X41691767Y-112993543D01*
X41716184Y-113059007D01*
X41716500Y-113067853D01*
X41716500Y-114020719D01*
X41696815Y-114087758D01*
X41680181Y-114108400D01*
X33411400Y-122377181D01*
X33350077Y-122410666D01*
X33323719Y-122413500D01*
X31552281Y-122413500D01*
X31485242Y-122393815D01*
X31464600Y-122377181D01*
X30972649Y-121885230D01*
X30939164Y-121823907D01*
X30936330Y-121797549D01*
X30936330Y-121653517D01*
X30936329Y-121653513D01*
X30913628Y-121539387D01*
X30907335Y-121507750D01*
X30896234Y-121480952D01*
X30888766Y-121411484D01*
X30920041Y-121349004D01*
X30980130Y-121313352D01*
X31010796Y-121309500D01*
X32977376Y-121309500D01*
X32977377Y-121309499D01*
X33098607Y-121285386D01*
X33179356Y-121251937D01*
X33212805Y-121238083D01*
X33315580Y-121169411D01*
X33402983Y-121082008D01*
X41504819Y-112980172D01*
X41566142Y-112946687D01*
X41635834Y-112951671D01*
G37*
%TD.AperFunction*%
%TA.AperFunction,Conductor*%
G36*
X51246461Y-110647652D02*
G01*
X51254625Y-110655118D01*
X51341988Y-110742481D01*
X51341992Y-110742484D01*
X51444760Y-110811152D01*
X51444773Y-110811159D01*
X51558960Y-110858456D01*
X51558965Y-110858458D01*
X51558969Y-110858458D01*
X51558970Y-110858459D01*
X51680193Y-110882573D01*
X51680196Y-110882573D01*
X51680197Y-110882573D01*
X52387500Y-110882573D01*
X52454539Y-110902258D01*
X52500294Y-110955062D01*
X52511500Y-111006573D01*
X52511500Y-111104316D01*
X52540493Y-111250072D01*
X52540495Y-111250080D01*
X52597369Y-111387387D01*
X52597375Y-111387398D01*
X52617601Y-111417667D01*
X52638480Y-111484344D01*
X52638500Y-111486559D01*
X52638500Y-117925855D01*
X52618815Y-117992894D01*
X52583391Y-118028957D01*
X52531033Y-118063940D01*
X52425945Y-118169028D01*
X52425939Y-118169035D01*
X52343371Y-118292608D01*
X52286495Y-118429919D01*
X52286493Y-118429927D01*
X52257500Y-118575683D01*
X52257500Y-118724316D01*
X52286493Y-118870072D01*
X52286495Y-118870080D01*
X52343371Y-119007391D01*
X52425939Y-119130964D01*
X52425945Y-119130971D01*
X52531028Y-119236054D01*
X52531035Y-119236060D01*
X52654608Y-119318628D01*
X52654609Y-119318628D01*
X52654610Y-119318629D01*
X52791920Y-119375505D01*
X52827635Y-119382609D01*
X52889546Y-119414992D01*
X52891126Y-119416545D01*
X53571400Y-120096819D01*
X53604885Y-120158142D01*
X53599901Y-120227834D01*
X53558029Y-120283767D01*
X53492565Y-120308184D01*
X53483719Y-120308500D01*
X48302195Y-120308500D01*
X48235156Y-120288815D01*
X48189401Y-120236011D01*
X48180302Y-120181404D01*
X48178500Y-120181404D01*
X48178500Y-120026687D01*
X48178499Y-120026683D01*
X48175851Y-120013370D01*
X48149505Y-119880920D01*
X48092629Y-119743610D01*
X48090426Y-119740313D01*
X48072397Y-119713329D01*
X48051520Y-119646651D01*
X48051500Y-119644440D01*
X48051500Y-118080200D01*
X48051500Y-118080197D01*
X48051002Y-118077695D01*
X48027385Y-117958965D01*
X48018478Y-117937461D01*
X47980086Y-117844773D01*
X47980082Y-117844766D01*
X47963927Y-117820589D01*
X47945236Y-117792615D01*
X47911411Y-117741992D01*
X47824008Y-117654589D01*
X46563819Y-116394400D01*
X46530334Y-116333077D01*
X46527500Y-116306719D01*
X46527500Y-113381612D01*
X46547185Y-113314573D01*
X46599989Y-113268818D01*
X46669147Y-113258874D01*
X46720387Y-113278508D01*
X46787723Y-113323500D01*
X46808785Y-113337573D01*
X46827575Y-113352994D01*
X47268181Y-113793600D01*
X47301666Y-113854923D01*
X47304500Y-113881281D01*
X47304500Y-115145440D01*
X47284815Y-115212479D01*
X47283603Y-115214329D01*
X47263371Y-115244608D01*
X47206495Y-115381919D01*
X47206493Y-115381927D01*
X47177500Y-115527683D01*
X47177500Y-115676316D01*
X47206493Y-115822072D01*
X47206495Y-115822080D01*
X47263371Y-115959391D01*
X47345939Y-116082964D01*
X47345945Y-116082971D01*
X47451028Y-116188054D01*
X47451035Y-116188060D01*
X47574608Y-116270628D01*
X47574609Y-116270628D01*
X47574610Y-116270629D01*
X47711920Y-116327505D01*
X47857683Y-116356499D01*
X47857687Y-116356500D01*
X47857688Y-116356500D01*
X48006313Y-116356500D01*
X48006314Y-116356499D01*
X48152080Y-116327505D01*
X48289390Y-116270629D01*
X48412966Y-116188059D01*
X48518059Y-116082966D01*
X48600629Y-115959390D01*
X48657505Y-115822080D01*
X48686500Y-115676312D01*
X48686500Y-115527688D01*
X48657505Y-115381920D01*
X48600629Y-115244610D01*
X48600628Y-115244608D01*
X48580397Y-115214329D01*
X48559520Y-115147651D01*
X48559500Y-115145440D01*
X48559500Y-113508197D01*
X48559499Y-113508193D01*
X48557012Y-113495685D01*
X48557012Y-113495684D01*
X48542529Y-113422877D01*
X48535386Y-113386966D01*
X48497462Y-113295411D01*
X48488083Y-113272767D01*
X48450288Y-113216203D01*
X48419414Y-113169996D01*
X48419413Y-113169994D01*
X48379095Y-113129676D01*
X48332008Y-113082589D01*
X47960819Y-112711400D01*
X47927334Y-112650077D01*
X47924500Y-112623719D01*
X47924500Y-112597187D01*
X47924499Y-112597183D01*
X47909162Y-112520080D01*
X47895505Y-112451420D01*
X47838629Y-112314110D01*
X47815445Y-112279412D01*
X47803044Y-112260852D01*
X47795218Y-112235858D01*
X47783820Y-112212270D01*
X47784942Y-112203043D01*
X47782166Y-112194175D01*
X47789095Y-112168915D01*
X47792260Y-112142912D01*
X47798192Y-112135757D01*
X47800651Y-112126795D01*
X47820136Y-112109291D01*
X47836857Y-112089127D01*
X47845716Y-112086315D01*
X47852630Y-112080105D01*
X47878485Y-112075915D01*
X47903454Y-112067991D01*
X47914544Y-112070072D01*
X47921600Y-112068929D01*
X47938489Y-112072254D01*
X47946205Y-112074338D01*
X47965920Y-112082505D01*
X48005754Y-112090428D01*
X48009788Y-112091518D01*
X48036149Y-112107661D01*
X48063546Y-112121992D01*
X48065126Y-112123545D01*
X48133589Y-112192008D01*
X48177439Y-112235858D01*
X48220993Y-112279412D01*
X48323760Y-112348079D01*
X48323767Y-112348083D01*
X48356888Y-112361802D01*
X48356889Y-112361803D01*
X48387089Y-112374312D01*
X48437965Y-112395386D01*
X48559192Y-112419499D01*
X48559196Y-112419500D01*
X48559197Y-112419500D01*
X49771804Y-112419500D01*
X49771805Y-112419499D01*
X49893035Y-112395386D01*
X49974110Y-112361803D01*
X50007233Y-112348083D01*
X50110008Y-112279411D01*
X50197411Y-112192008D01*
X50314600Y-112074819D01*
X50375923Y-112041334D01*
X50402281Y-112038500D01*
X50546313Y-112038500D01*
X50546314Y-112038499D01*
X50692080Y-112009505D01*
X50829390Y-111952629D01*
X50952966Y-111870059D01*
X51058059Y-111764966D01*
X51140629Y-111641390D01*
X51197505Y-111504080D01*
X51226500Y-111358312D01*
X51226500Y-111209688D01*
X51197505Y-111063920D01*
X51140629Y-110926610D01*
X51063841Y-110811688D01*
X51042964Y-110745012D01*
X51061449Y-110677632D01*
X51113428Y-110630942D01*
X51182398Y-110619766D01*
X51246461Y-110647652D01*
G37*
%TD.AperFunction*%
%TA.AperFunction,Conductor*%
G36*
X30717566Y-114769097D02*
G01*
X30720752Y-114772171D01*
X31021987Y-115073407D01*
X31021991Y-115073410D01*
X31124760Y-115142079D01*
X31124773Y-115142086D01*
X31223683Y-115183055D01*
X31238965Y-115189385D01*
X31238969Y-115189385D01*
X31238970Y-115189386D01*
X31360193Y-115213500D01*
X31360196Y-115213500D01*
X31360197Y-115213500D01*
X37197291Y-115213500D01*
X37264330Y-115233185D01*
X37310085Y-115285989D01*
X37320029Y-115355147D01*
X37291004Y-115418703D01*
X37284972Y-115425181D01*
X32691972Y-120018181D01*
X32630649Y-120051666D01*
X32604291Y-120054500D01*
X30862560Y-120054500D01*
X30795521Y-120034815D01*
X30793671Y-120033603D01*
X30763391Y-120013371D01*
X30626080Y-119956495D01*
X30626072Y-119956493D01*
X30480316Y-119927500D01*
X30480312Y-119927500D01*
X30331688Y-119927500D01*
X30331683Y-119927500D01*
X30185927Y-119956493D01*
X30185919Y-119956495D01*
X30048611Y-120013370D01*
X30028687Y-120026683D01*
X29987056Y-120054500D01*
X29956390Y-120074990D01*
X29889713Y-120095867D01*
X29822333Y-120077382D01*
X29775643Y-120025403D01*
X29763500Y-119971887D01*
X29763500Y-118004500D01*
X29783185Y-117937461D01*
X29835989Y-117891706D01*
X29887500Y-117880500D01*
X29972313Y-117880500D01*
X29972314Y-117880499D01*
X30118080Y-117851505D01*
X30255390Y-117794629D01*
X30378966Y-117712059D01*
X30484059Y-117606966D01*
X30566629Y-117483390D01*
X30623505Y-117346080D01*
X30652500Y-117200312D01*
X30652500Y-117051688D01*
X30623505Y-116905920D01*
X30566629Y-116768610D01*
X30518152Y-116696059D01*
X30484060Y-116645035D01*
X30484054Y-116645028D01*
X30378966Y-116539940D01*
X30326609Y-116504957D01*
X30281804Y-116451345D01*
X30271500Y-116401855D01*
X30271500Y-114939796D01*
X30291185Y-114872757D01*
X30343989Y-114827002D01*
X30371301Y-114818180D01*
X30445080Y-114803505D01*
X30582390Y-114746629D01*
X30582393Y-114746626D01*
X30585618Y-114745291D01*
X30655087Y-114737822D01*
X30717566Y-114769097D01*
G37*
%TD.AperFunction*%
%TA.AperFunction,Conductor*%
G36*
X63647243Y-100501185D02*
G01*
X63692998Y-100553989D01*
X63701819Y-100581301D01*
X63713920Y-100642138D01*
X63716495Y-100655081D01*
X63773371Y-100792391D01*
X63855939Y-100915964D01*
X63855945Y-100915971D01*
X63961028Y-101021054D01*
X63961035Y-101021060D01*
X64084608Y-101103628D01*
X64084609Y-101103628D01*
X64084610Y-101103629D01*
X64221920Y-101160505D01*
X64367683Y-101189499D01*
X64367687Y-101189500D01*
X64367688Y-101189500D01*
X64516313Y-101189500D01*
X64516314Y-101189499D01*
X64662080Y-101160505D01*
X64799390Y-101103629D01*
X64922966Y-101021059D01*
X64971205Y-100972820D01*
X65032528Y-100939334D01*
X65058887Y-100936500D01*
X78555719Y-100936500D01*
X78622758Y-100956185D01*
X78643400Y-100972819D01*
X85114181Y-107443600D01*
X85147666Y-107504923D01*
X85150500Y-107531281D01*
X85150500Y-109469718D01*
X85130815Y-109536757D01*
X85078011Y-109582512D01*
X85008853Y-109592456D01*
X84945297Y-109563431D01*
X84938819Y-109557399D01*
X77542010Y-102160590D01*
X77508524Y-102138216D01*
X77470742Y-102112971D01*
X77439233Y-102091917D01*
X77439229Y-102091915D01*
X77439227Y-102091914D01*
X77439228Y-102091914D01*
X77401879Y-102076444D01*
X77401878Y-102076444D01*
X77325035Y-102044614D01*
X77325027Y-102044612D01*
X77203807Y-102020500D01*
X77203803Y-102020500D01*
X63628560Y-102020500D01*
X63561521Y-102000815D01*
X63559671Y-101999603D01*
X63529391Y-101979371D01*
X63392080Y-101922495D01*
X63392072Y-101922493D01*
X63246316Y-101893500D01*
X63246312Y-101893500D01*
X63097688Y-101893500D01*
X63097683Y-101893500D01*
X62951927Y-101922493D01*
X62951919Y-101922495D01*
X62814608Y-101979371D01*
X62691035Y-102061939D01*
X62691028Y-102061945D01*
X62585945Y-102167028D01*
X62585939Y-102167035D01*
X62503371Y-102290608D01*
X62446495Y-102427919D01*
X62446493Y-102427927D01*
X62417500Y-102573683D01*
X62417500Y-102722316D01*
X62446493Y-102868072D01*
X62446495Y-102868080D01*
X62503371Y-103005391D01*
X62585939Y-103128964D01*
X62585945Y-103128971D01*
X62691028Y-103234054D01*
X62691035Y-103234060D01*
X62814608Y-103316628D01*
X62814609Y-103316628D01*
X62814610Y-103316629D01*
X62951920Y-103373505D01*
X63097683Y-103402499D01*
X63097687Y-103402500D01*
X63097688Y-103402500D01*
X63246313Y-103402500D01*
X63246314Y-103402499D01*
X63392080Y-103373505D01*
X63529390Y-103316629D01*
X63538634Y-103310452D01*
X63559671Y-103296397D01*
X63626349Y-103275520D01*
X63628560Y-103275500D01*
X76830719Y-103275500D01*
X76897758Y-103295185D01*
X76918400Y-103311819D01*
X84606181Y-110999600D01*
X84639666Y-111060923D01*
X84642500Y-111087281D01*
X84642500Y-116161440D01*
X84622815Y-116228479D01*
X84621603Y-116230329D01*
X84601371Y-116260608D01*
X84544495Y-116397919D01*
X84544493Y-116397927D01*
X84515500Y-116543683D01*
X84515500Y-116692316D01*
X84544493Y-116838072D01*
X84544495Y-116838080D01*
X84601371Y-116975391D01*
X84683939Y-117098964D01*
X84683945Y-117098971D01*
X84789028Y-117204054D01*
X84789035Y-117204060D01*
X84912608Y-117286628D01*
X84912609Y-117286628D01*
X84912610Y-117286629D01*
X85049920Y-117343505D01*
X85184331Y-117370241D01*
X85195683Y-117372499D01*
X85195687Y-117372500D01*
X85195688Y-117372500D01*
X85344313Y-117372500D01*
X85344314Y-117372499D01*
X85490080Y-117343505D01*
X85627390Y-117286629D01*
X85719611Y-117225009D01*
X85786287Y-117204132D01*
X85853667Y-117222616D01*
X85900357Y-117274595D01*
X85912500Y-117328112D01*
X85912500Y-118338719D01*
X85892815Y-118405758D01*
X85876181Y-118426400D01*
X85300400Y-119002181D01*
X85239077Y-119035666D01*
X85212719Y-119038500D01*
X57895281Y-119038500D01*
X57865840Y-119029855D01*
X57835854Y-119023332D01*
X57830838Y-119019577D01*
X57828242Y-119018815D01*
X57807600Y-119002181D01*
X57739819Y-118934400D01*
X57706334Y-118873077D01*
X57703500Y-118846719D01*
X57703500Y-118246196D01*
X57700527Y-118231254D01*
X57697555Y-118216312D01*
X57697555Y-118216310D01*
X57679387Y-118124972D01*
X57679384Y-118124963D01*
X57632086Y-118010772D01*
X57632082Y-118010766D01*
X57627895Y-118004500D01*
X57597470Y-117958965D01*
X57563411Y-117907992D01*
X57476008Y-117820589D01*
X56318545Y-116663126D01*
X56285060Y-116601803D01*
X56284622Y-116599702D01*
X56277505Y-116563920D01*
X56220629Y-116426610D01*
X56204088Y-116401855D01*
X56138060Y-116303035D01*
X56138054Y-116303028D01*
X56032971Y-116197945D01*
X56032964Y-116197939D01*
X55909391Y-116115371D01*
X55772080Y-116058495D01*
X55772072Y-116058493D01*
X55626316Y-116029500D01*
X55626312Y-116029500D01*
X55541500Y-116029500D01*
X55474461Y-116009815D01*
X55428706Y-115957011D01*
X55417500Y-115905500D01*
X55417500Y-114643281D01*
X55437185Y-114576242D01*
X55453819Y-114555600D01*
X57563406Y-112446013D01*
X57563411Y-112446008D01*
X57576777Y-112426004D01*
X57632083Y-112343233D01*
X57679385Y-112229035D01*
X57696516Y-112142912D01*
X57703500Y-112107805D01*
X57703500Y-111849281D01*
X57723185Y-111782242D01*
X57739819Y-111761600D01*
X57889178Y-111612241D01*
X58071410Y-111430009D01*
X58088917Y-111403809D01*
X58099883Y-111387398D01*
X58140076Y-111327243D01*
X58140083Y-111327233D01*
X58187385Y-111213035D01*
X58200819Y-111145500D01*
X58211500Y-111091804D01*
X58211500Y-110968197D01*
X58211500Y-110447683D01*
X58607500Y-110447683D01*
X58607500Y-110596316D01*
X58636493Y-110742072D01*
X58636495Y-110742080D01*
X58693369Y-110879387D01*
X58693375Y-110879398D01*
X58713601Y-110909667D01*
X58734480Y-110976344D01*
X58734500Y-110978559D01*
X58734500Y-114901807D01*
X58758612Y-115023027D01*
X58758614Y-115023035D01*
X58779481Y-115073412D01*
X58805915Y-115137230D01*
X58805916Y-115137232D01*
X58805917Y-115137233D01*
X58839418Y-115187371D01*
X58849187Y-115201990D01*
X58849187Y-115201991D01*
X58874590Y-115240010D01*
X58874593Y-115240013D01*
X60906589Y-117272008D01*
X60962693Y-117328112D01*
X60993994Y-117359413D01*
X60993996Y-117359414D01*
X61075581Y-117413927D01*
X61096767Y-117428083D01*
X61130215Y-117441937D01*
X61210965Y-117475386D01*
X61332192Y-117499499D01*
X61332196Y-117499500D01*
X61332197Y-117499500D01*
X82537804Y-117499500D01*
X82537805Y-117499499D01*
X82659035Y-117475386D01*
X82739784Y-117441937D01*
X82773233Y-117428083D01*
X82876008Y-117359411D01*
X82963411Y-117272008D01*
X83612874Y-116622543D01*
X83674195Y-116589060D01*
X83676285Y-116588624D01*
X83712080Y-116581505D01*
X83849390Y-116524629D01*
X83972966Y-116442059D01*
X84078059Y-116336966D01*
X84160629Y-116213390D01*
X84217505Y-116076080D01*
X84246500Y-115930312D01*
X84246500Y-115781688D01*
X84217505Y-115635920D01*
X84160629Y-115498610D01*
X84107237Y-115418703D01*
X84078060Y-115375035D01*
X84078054Y-115375028D01*
X83972971Y-115269945D01*
X83972964Y-115269939D01*
X83849391Y-115187371D01*
X83712080Y-115130495D01*
X83712072Y-115130493D01*
X83566316Y-115101500D01*
X83566312Y-115101500D01*
X83417688Y-115101500D01*
X83417683Y-115101500D01*
X83271927Y-115130493D01*
X83271919Y-115130495D01*
X83134608Y-115187371D01*
X83011035Y-115269939D01*
X83011028Y-115269945D01*
X82905945Y-115375028D01*
X82905939Y-115375035D01*
X82823371Y-115498608D01*
X82766495Y-115635919D01*
X82766493Y-115635925D01*
X82759390Y-115671636D01*
X82727005Y-115733547D01*
X82725454Y-115735125D01*
X82252400Y-116208181D01*
X82191077Y-116241666D01*
X82164719Y-116244500D01*
X61705281Y-116244500D01*
X61638242Y-116224815D01*
X61617600Y-116208181D01*
X60025819Y-114616400D01*
X59992334Y-114555077D01*
X59989500Y-114528719D01*
X59989500Y-110978559D01*
X60009185Y-110911520D01*
X60010399Y-110909667D01*
X60030624Y-110879398D01*
X60030625Y-110879395D01*
X60030629Y-110879390D01*
X60087505Y-110742080D01*
X60116500Y-110596312D01*
X60116500Y-110447688D01*
X60087505Y-110301920D01*
X60030629Y-110164610D01*
X59998064Y-110115873D01*
X59948060Y-110041035D01*
X59948054Y-110041028D01*
X59842971Y-109935945D01*
X59842964Y-109935939D01*
X59719391Y-109853371D01*
X59582080Y-109796495D01*
X59582072Y-109796493D01*
X59436316Y-109767500D01*
X59436312Y-109767500D01*
X59287688Y-109767500D01*
X59287683Y-109767500D01*
X59141927Y-109796493D01*
X59141919Y-109796495D01*
X59004608Y-109853371D01*
X58881035Y-109935939D01*
X58881028Y-109935945D01*
X58775945Y-110041028D01*
X58775939Y-110041035D01*
X58693371Y-110164608D01*
X58636495Y-110301919D01*
X58636493Y-110301927D01*
X58607500Y-110447683D01*
X58211500Y-110447683D01*
X58211500Y-105499281D01*
X58220144Y-105469840D01*
X58226668Y-105439854D01*
X58230422Y-105434838D01*
X58231185Y-105432242D01*
X58247819Y-105411600D01*
X58268819Y-105390600D01*
X58330142Y-105357115D01*
X58399834Y-105362099D01*
X58455767Y-105403971D01*
X58480184Y-105469435D01*
X58480500Y-105478281D01*
X58480500Y-107789807D01*
X58504612Y-107911027D01*
X58504614Y-107911035D01*
X58525481Y-107961412D01*
X58551915Y-108025230D01*
X58551916Y-108025232D01*
X58551917Y-108025233D01*
X58585418Y-108075371D01*
X58595187Y-108089990D01*
X58595187Y-108089991D01*
X58620590Y-108128010D01*
X58620593Y-108128013D01*
X62913454Y-112420873D01*
X62946939Y-112482196D01*
X62947390Y-112484363D01*
X62954493Y-112520072D01*
X62954495Y-112520080D01*
X63011371Y-112657391D01*
X63093939Y-112780964D01*
X63093945Y-112780971D01*
X63199028Y-112886054D01*
X63199035Y-112886060D01*
X63322608Y-112968628D01*
X63322609Y-112968628D01*
X63322610Y-112968629D01*
X63459920Y-113025505D01*
X63605683Y-113054499D01*
X63605687Y-113054500D01*
X63605688Y-113054500D01*
X63754313Y-113054500D01*
X63754314Y-113054499D01*
X63900080Y-113025505D01*
X64037390Y-112968629D01*
X64160966Y-112886059D01*
X64266059Y-112780966D01*
X64348629Y-112657390D01*
X64405505Y-112520080D01*
X64434500Y-112374312D01*
X64434500Y-112225688D01*
X64405505Y-112079920D01*
X64348629Y-111942610D01*
X64300152Y-111870059D01*
X64266060Y-111819035D01*
X64266054Y-111819028D01*
X64160971Y-111713945D01*
X64160964Y-111713939D01*
X64037391Y-111631371D01*
X63900080Y-111574495D01*
X63900072Y-111574493D01*
X63864363Y-111567390D01*
X63802452Y-111535005D01*
X63800873Y-111533454D01*
X61976473Y-109709054D01*
X61942988Y-109647731D01*
X61947972Y-109578039D01*
X61989844Y-109522106D01*
X62055308Y-109497689D01*
X62076309Y-109497970D01*
X62081686Y-109498499D01*
X62081688Y-109498500D01*
X62081690Y-109498500D01*
X62230313Y-109498500D01*
X62230314Y-109498499D01*
X62376080Y-109469505D01*
X62513390Y-109412629D01*
X62636966Y-109330059D01*
X62742059Y-109224966D01*
X62824629Y-109101390D01*
X62881505Y-108964080D01*
X62910500Y-108818312D01*
X62910500Y-108669688D01*
X62881505Y-108523920D01*
X62824629Y-108386610D01*
X62816072Y-108373804D01*
X62742060Y-108263035D01*
X62742054Y-108263028D01*
X62636971Y-108157945D01*
X62636964Y-108157939D01*
X62513391Y-108075371D01*
X62376080Y-108018495D01*
X62376072Y-108018493D01*
X62340363Y-108011390D01*
X62278452Y-107979005D01*
X62276873Y-107977454D01*
X60270008Y-105970588D01*
X60266935Y-105968066D01*
X60257930Y-105959905D01*
X60169966Y-105871941D01*
X60169965Y-105871940D01*
X60169964Y-105871939D01*
X60046391Y-105789371D01*
X59909080Y-105732495D01*
X59909074Y-105732493D01*
X59835308Y-105717820D01*
X59773397Y-105685435D01*
X59738823Y-105624719D01*
X59735500Y-105596203D01*
X59735500Y-105136559D01*
X59755185Y-105069520D01*
X59756399Y-105067667D01*
X59776624Y-105037398D01*
X59776625Y-105037395D01*
X59776629Y-105037390D01*
X59833505Y-104900080D01*
X59862500Y-104754312D01*
X59862500Y-104605688D01*
X59833505Y-104459920D01*
X59776629Y-104322610D01*
X59752646Y-104286717D01*
X59694060Y-104199035D01*
X59694059Y-104199034D01*
X59687614Y-104192589D01*
X59664901Y-104169876D01*
X59631417Y-104108556D01*
X59636401Y-104038864D01*
X59664900Y-103994517D01*
X63141600Y-100517819D01*
X63202923Y-100484334D01*
X63229281Y-100481500D01*
X63580204Y-100481500D01*
X63647243Y-100501185D01*
G37*
%TD.AperFunction*%
%TA.AperFunction,Conductor*%
G36*
X30476703Y-110464568D02*
G01*
X30483181Y-110470600D01*
X32773926Y-112761345D01*
X32807411Y-112822668D01*
X32802427Y-112892360D01*
X32760555Y-112948293D01*
X32695091Y-112972710D01*
X32626818Y-112957858D01*
X32617355Y-112952129D01*
X32611614Y-112948293D01*
X32541390Y-112901371D01*
X32503342Y-112885611D01*
X32404080Y-112844495D01*
X32404072Y-112844493D01*
X32258316Y-112815500D01*
X32258312Y-112815500D01*
X32109688Y-112815500D01*
X32109683Y-112815500D01*
X31963927Y-112844493D01*
X31963919Y-112844495D01*
X31826608Y-112901371D01*
X31703035Y-112983939D01*
X31703028Y-112983945D01*
X31597945Y-113089028D01*
X31597939Y-113089035D01*
X31515371Y-113212608D01*
X31458495Y-113349919D01*
X31458493Y-113349925D01*
X31435492Y-113465559D01*
X31422992Y-113489454D01*
X31413790Y-113514804D01*
X31407041Y-113519949D01*
X31403107Y-113527470D01*
X31379669Y-113540816D01*
X31358226Y-113557164D01*
X31349767Y-113557843D01*
X31342391Y-113562044D01*
X31315462Y-113560600D01*
X31288581Y-113562760D01*
X31278739Y-113558631D01*
X31272621Y-113558303D01*
X31255405Y-113550716D01*
X31250041Y-113547847D01*
X31211233Y-113521917D01*
X31173878Y-113506444D01*
X31097035Y-113474614D01*
X31097027Y-113474612D01*
X30975807Y-113450500D01*
X30975803Y-113450500D01*
X30681560Y-113450500D01*
X30614521Y-113430815D01*
X30612671Y-113429603D01*
X30582391Y-113409371D01*
X30445080Y-113352495D01*
X30445074Y-113352493D01*
X30371308Y-113337820D01*
X30309397Y-113305435D01*
X30274823Y-113244719D01*
X30271500Y-113216203D01*
X30271500Y-110558281D01*
X30291185Y-110491242D01*
X30343989Y-110445487D01*
X30413147Y-110435543D01*
X30476703Y-110464568D01*
G37*
%TD.AperFunction*%
%TA.AperFunction,Conductor*%
G36*
X43877758Y-90341185D02*
G01*
X43898400Y-90357819D01*
X47419454Y-93878873D01*
X47452939Y-93940196D01*
X47453390Y-93942363D01*
X47460493Y-93978072D01*
X47460495Y-93978080D01*
X47517371Y-94115391D01*
X47599939Y-94238964D01*
X47599945Y-94238971D01*
X47705028Y-94344054D01*
X47705035Y-94344060D01*
X47828608Y-94426628D01*
X47828609Y-94426628D01*
X47828610Y-94426629D01*
X47965920Y-94483505D01*
X48001635Y-94490609D01*
X48063546Y-94522992D01*
X48065126Y-94524545D01*
X49984589Y-96444008D01*
X50039971Y-96499390D01*
X50071993Y-96531412D01*
X50174760Y-96600079D01*
X50174773Y-96600086D01*
X50288960Y-96647383D01*
X50288965Y-96647385D01*
X50288969Y-96647385D01*
X50288970Y-96647386D01*
X50410194Y-96671500D01*
X50410197Y-96671500D01*
X57526719Y-96671500D01*
X57593758Y-96691185D01*
X57614400Y-96707819D01*
X58285900Y-97379319D01*
X58319385Y-97440642D01*
X58314401Y-97510334D01*
X58272529Y-97566267D01*
X58207065Y-97590684D01*
X58198219Y-97591000D01*
X54850060Y-97591000D01*
X54783021Y-97571315D01*
X54781171Y-97570103D01*
X54750891Y-97549871D01*
X54613580Y-97492995D01*
X54613572Y-97492993D01*
X54467816Y-97464000D01*
X54467812Y-97464000D01*
X54319188Y-97464000D01*
X54319183Y-97464000D01*
X54173427Y-97492993D01*
X54173419Y-97492995D01*
X54036108Y-97549871D01*
X53912535Y-97632439D01*
X53912528Y-97632445D01*
X53807445Y-97737528D01*
X53807439Y-97737535D01*
X53724871Y-97861108D01*
X53667995Y-97998419D01*
X53667993Y-97998425D01*
X53660890Y-98034136D01*
X53628505Y-98096047D01*
X53626955Y-98097625D01*
X53373992Y-98350589D01*
X53286589Y-98437992D01*
X53217916Y-98540769D01*
X53204061Y-98574214D01*
X53204062Y-98574215D01*
X53170614Y-98654965D01*
X53153180Y-98742614D01*
X53153180Y-98742615D01*
X53146500Y-98776195D01*
X53146500Y-100790677D01*
X53126815Y-100857716D01*
X53074011Y-100903471D01*
X53004853Y-100913415D01*
X52984072Y-100907717D01*
X52983907Y-100908263D01*
X52978083Y-100906496D01*
X52978080Y-100906495D01*
X52978075Y-100906494D01*
X52978072Y-100906493D01*
X52832316Y-100877500D01*
X52832312Y-100877500D01*
X52683688Y-100877500D01*
X52683683Y-100877500D01*
X52537927Y-100906493D01*
X52537919Y-100906495D01*
X52400608Y-100963371D01*
X52370329Y-100983603D01*
X52303651Y-101004480D01*
X52301440Y-101004500D01*
X45199803Y-101004500D01*
X45076196Y-101004500D01*
X45047486Y-101010211D01*
X45047485Y-101010211D01*
X44954972Y-101028613D01*
X44954960Y-101028616D01*
X44840773Y-101075913D01*
X44840761Y-101075920D01*
X44752380Y-101134974D01*
X44752381Y-101134975D01*
X44737987Y-101144592D01*
X44737985Y-101144594D01*
X43591973Y-102290608D01*
X43213992Y-102668589D01*
X43170289Y-102712292D01*
X43126586Y-102755994D01*
X43126585Y-102755996D01*
X43057920Y-102858761D01*
X43057916Y-102858768D01*
X43048539Y-102881408D01*
X43048538Y-102881411D01*
X43010614Y-102972965D01*
X43010612Y-102972971D01*
X42992770Y-103062667D01*
X42992771Y-103062668D01*
X42986500Y-103094197D01*
X42986500Y-108373804D01*
X42966815Y-108440843D01*
X42914011Y-108486598D01*
X42859404Y-108495706D01*
X42859404Y-108497500D01*
X42704683Y-108497500D01*
X42558927Y-108526493D01*
X42558915Y-108526496D01*
X42507952Y-108547606D01*
X42438483Y-108555075D01*
X42376004Y-108523799D01*
X42340352Y-108463710D01*
X42336500Y-108433045D01*
X42336500Y-108415687D01*
X42336499Y-108415683D01*
X42320450Y-108335000D01*
X42307505Y-108269920D01*
X42250629Y-108132610D01*
X42247557Y-108128013D01*
X42168060Y-108009035D01*
X42168054Y-108009028D01*
X42062971Y-107903945D01*
X42062964Y-107903939D01*
X41939391Y-107821371D01*
X41802080Y-107764495D01*
X41802072Y-107764493D01*
X41656316Y-107735500D01*
X41656312Y-107735500D01*
X41507688Y-107735500D01*
X41507683Y-107735500D01*
X41361927Y-107764493D01*
X41361919Y-107764495D01*
X41224608Y-107821371D01*
X41101035Y-107903939D01*
X41101028Y-107903945D01*
X40995945Y-108009028D01*
X40995939Y-108009035D01*
X40913371Y-108132608D01*
X40856495Y-108269919D01*
X40856493Y-108269927D01*
X40827500Y-108415683D01*
X40827500Y-108564316D01*
X40856493Y-108710072D01*
X40856495Y-108710080D01*
X40913369Y-108847387D01*
X40913375Y-108847398D01*
X40933601Y-108877667D01*
X40939252Y-108895713D01*
X40949477Y-108911624D01*
X40953928Y-108942581D01*
X40954480Y-108944344D01*
X40954500Y-108946559D01*
X40954500Y-109194719D01*
X40934815Y-109261758D01*
X40918181Y-109282400D01*
X37164524Y-113036056D01*
X37103201Y-113069541D01*
X37033509Y-113064557D01*
X36977576Y-113022685D01*
X36962284Y-112995831D01*
X36938345Y-112938037D01*
X36916630Y-112885611D01*
X36916629Y-112885609D01*
X36896397Y-112855329D01*
X36875520Y-112788651D01*
X36875500Y-112786440D01*
X36875500Y-110833281D01*
X36895185Y-110766242D01*
X36911819Y-110745600D01*
X37244338Y-110413081D01*
X37305661Y-110379596D01*
X37332019Y-110376762D01*
X37834178Y-110376762D01*
X37901217Y-110396447D01*
X37903067Y-110397659D01*
X37933346Y-110417890D01*
X37933347Y-110417890D01*
X37933348Y-110417891D01*
X38070658Y-110474767D01*
X38216421Y-110503761D01*
X38216425Y-110503762D01*
X38216426Y-110503762D01*
X38365051Y-110503762D01*
X38365052Y-110503761D01*
X38510818Y-110474767D01*
X38648128Y-110417891D01*
X38771704Y-110335321D01*
X38876797Y-110230228D01*
X38959367Y-110106652D01*
X39016243Y-109969342D01*
X39045238Y-109823574D01*
X39045238Y-109674950D01*
X39016243Y-109529182D01*
X38959367Y-109391872D01*
X38955566Y-109386184D01*
X38876798Y-109268297D01*
X38876792Y-109268290D01*
X38771709Y-109163207D01*
X38771702Y-109163201D01*
X38648129Y-109080633D01*
X38510818Y-109023757D01*
X38510810Y-109023755D01*
X38365054Y-108994762D01*
X38365050Y-108994762D01*
X38216426Y-108994762D01*
X38216421Y-108994762D01*
X38070665Y-109023755D01*
X38070657Y-109023757D01*
X37933346Y-109080633D01*
X37903067Y-109100865D01*
X37836389Y-109121742D01*
X37834178Y-109121762D01*
X36994193Y-109121762D01*
X36872966Y-109145876D01*
X36870600Y-109146593D01*
X36868461Y-109147390D01*
X36861157Y-109149812D01*
X36826966Y-109156614D01*
X36776090Y-109177688D01*
X36771955Y-109179400D01*
X36771939Y-109179406D01*
X36712769Y-109203915D01*
X36712766Y-109203917D01*
X36693426Y-109216840D01*
X36646927Y-109247910D01*
X36646926Y-109247911D01*
X36609989Y-109272590D01*
X36609988Y-109272591D01*
X36506181Y-109376399D01*
X36444858Y-109409884D01*
X36375166Y-109404900D01*
X36319233Y-109363028D01*
X36294816Y-109297564D01*
X36294500Y-109288718D01*
X36294500Y-106334281D01*
X36314185Y-106267242D01*
X36330819Y-106246600D01*
X36989409Y-105588010D01*
X36989411Y-105588008D01*
X37058083Y-105485233D01*
X37058085Y-105485226D01*
X37059516Y-105483086D01*
X37074933Y-105464300D01*
X38130506Y-104408728D01*
X38130511Y-104408724D01*
X38140714Y-104398520D01*
X38140716Y-104398520D01*
X38252520Y-104286716D01*
X38318254Y-104172860D01*
X38331577Y-104149785D01*
X38372500Y-103997058D01*
X38372500Y-103838943D01*
X38372500Y-103227765D01*
X38392185Y-103160726D01*
X38393398Y-103158874D01*
X38481390Y-103027185D01*
X38481390Y-103027184D01*
X38481394Y-103027179D01*
X38541737Y-102881497D01*
X38572500Y-102726842D01*
X38572500Y-102569158D01*
X38572500Y-102569155D01*
X38572499Y-102569153D01*
X38553186Y-102472060D01*
X38541737Y-102414503D01*
X38530138Y-102386500D01*
X38481397Y-102268827D01*
X38481390Y-102268814D01*
X38393789Y-102137711D01*
X38393786Y-102137707D01*
X38342337Y-102086258D01*
X38308852Y-102024935D01*
X38313836Y-101955243D01*
X38342335Y-101910898D01*
X39318844Y-100934389D01*
X39380165Y-100900906D01*
X39430715Y-100900455D01*
X39445877Y-100903471D01*
X39471157Y-100908500D01*
X39471158Y-100908500D01*
X39628844Y-100908500D01*
X39628845Y-100908499D01*
X39783497Y-100877737D01*
X39929179Y-100817394D01*
X40060289Y-100729789D01*
X40171789Y-100618289D01*
X40259394Y-100487179D01*
X40260573Y-100484334D01*
X40287394Y-100419580D01*
X40319737Y-100341497D01*
X40350500Y-100186842D01*
X40350500Y-100029158D01*
X40350500Y-100029155D01*
X40350499Y-100029153D01*
X40324234Y-99897113D01*
X40319737Y-99874503D01*
X40263728Y-99739284D01*
X40259397Y-99728827D01*
X40259390Y-99728814D01*
X40171789Y-99597711D01*
X40171786Y-99597707D01*
X40060292Y-99486213D01*
X40060288Y-99486210D01*
X39948630Y-99411602D01*
X39903825Y-99357990D01*
X39895118Y-99288665D01*
X39925273Y-99225637D01*
X39984716Y-99188918D01*
X40017521Y-99184500D01*
X43527331Y-99184500D01*
X43527347Y-99184501D01*
X43534943Y-99184501D01*
X43693054Y-99184501D01*
X43693057Y-99184501D01*
X43845785Y-99143577D01*
X43899457Y-99112589D01*
X43982716Y-99064520D01*
X44094520Y-98952716D01*
X44094520Y-98952714D01*
X44104724Y-98942511D01*
X44104727Y-98942506D01*
X46422664Y-96624571D01*
X46483985Y-96591088D01*
X46486152Y-96590637D01*
X46486841Y-96590500D01*
X46486842Y-96590500D01*
X46641497Y-96559737D01*
X46787179Y-96499394D01*
X46918289Y-96411789D01*
X47029789Y-96300289D01*
X47117394Y-96169179D01*
X47177737Y-96023497D01*
X47208500Y-95868842D01*
X47208500Y-95711158D01*
X47208500Y-95711155D01*
X47208499Y-95711153D01*
X47177737Y-95556503D01*
X47146696Y-95481562D01*
X47117397Y-95410827D01*
X47117390Y-95410814D01*
X47029789Y-95279711D01*
X47029786Y-95279707D01*
X46918292Y-95168213D01*
X46918288Y-95168210D01*
X46787185Y-95080609D01*
X46787172Y-95080602D01*
X46641501Y-95020264D01*
X46641489Y-95020261D01*
X46486845Y-94989500D01*
X46486842Y-94989500D01*
X46329158Y-94989500D01*
X46329155Y-94989500D01*
X46174510Y-95020261D01*
X46174498Y-95020264D01*
X46028827Y-95080602D01*
X46028814Y-95080609D01*
X45897711Y-95168210D01*
X45897707Y-95168213D01*
X45786213Y-95279707D01*
X45786210Y-95279711D01*
X45698609Y-95410814D01*
X45698602Y-95410827D01*
X45638264Y-95556498D01*
X45638261Y-95556508D01*
X45607362Y-95711848D01*
X45574977Y-95773759D01*
X45573426Y-95775337D01*
X44004494Y-97344270D01*
X43943171Y-97377755D01*
X43873479Y-97372771D01*
X43817546Y-97330899D01*
X43793129Y-97265435D01*
X43807981Y-97197162D01*
X43813714Y-97187693D01*
X43815393Y-97185180D01*
X43815394Y-97185179D01*
X43875737Y-97039497D01*
X43906500Y-96884842D01*
X43906500Y-96727158D01*
X43906500Y-96727155D01*
X43906499Y-96727153D01*
X43890632Y-96647385D01*
X43875737Y-96572503D01*
X43845456Y-96499397D01*
X43815397Y-96426827D01*
X43815390Y-96426814D01*
X43727789Y-96295711D01*
X43727786Y-96295707D01*
X43616292Y-96184213D01*
X43616288Y-96184210D01*
X43485185Y-96096609D01*
X43485172Y-96096602D01*
X43339501Y-96036264D01*
X43339489Y-96036261D01*
X43184845Y-96005500D01*
X43184842Y-96005500D01*
X43027158Y-96005500D01*
X43027155Y-96005500D01*
X42872510Y-96036261D01*
X42872498Y-96036264D01*
X42726827Y-96096602D01*
X42726814Y-96096609D01*
X42595125Y-96184602D01*
X42528447Y-96205480D01*
X42526234Y-96205500D01*
X42271097Y-96205500D01*
X42204058Y-96185815D01*
X42183416Y-96169181D01*
X37471574Y-91457339D01*
X37438089Y-91396016D01*
X37437638Y-91393849D01*
X37419595Y-91303147D01*
X37406737Y-91238503D01*
X37400696Y-91223919D01*
X37346397Y-91092827D01*
X37346390Y-91092814D01*
X37258789Y-90961711D01*
X37258786Y-90961707D01*
X37147292Y-90850213D01*
X37147288Y-90850210D01*
X37016185Y-90762609D01*
X37016172Y-90762602D01*
X36870501Y-90702264D01*
X36870491Y-90702261D01*
X36787440Y-90685741D01*
X36725529Y-90653356D01*
X36690955Y-90592640D01*
X36694696Y-90522870D01*
X36735562Y-90466199D01*
X36787441Y-90442507D01*
X36790992Y-90441800D01*
X36903080Y-90419505D01*
X37040390Y-90362629D01*
X37049634Y-90356452D01*
X37070671Y-90342397D01*
X37137349Y-90321520D01*
X37139560Y-90321500D01*
X43810719Y-90321500D01*
X43877758Y-90341185D01*
G37*
%TD.AperFunction*%
%TA.AperFunction,Conductor*%
G36*
X39114959Y-99194037D02*
G01*
X39147646Y-99203004D01*
X39148416Y-99203861D01*
X39149518Y-99204185D01*
X39171662Y-99229740D01*
X39194336Y-99254983D01*
X39194520Y-99256120D01*
X39195273Y-99256989D01*
X39200093Y-99290511D01*
X39205512Y-99323953D01*
X39205053Y-99325007D01*
X39205217Y-99326147D01*
X39191143Y-99356964D01*
X39177627Y-99388017D01*
X39176499Y-99389029D01*
X39176192Y-99389703D01*
X39151370Y-99411602D01*
X39039711Y-99486210D01*
X39039707Y-99486213D01*
X38928217Y-99597704D01*
X38928214Y-99597706D01*
X38876915Y-99674479D01*
X38861497Y-99693265D01*
X38815482Y-99739282D01*
X38815480Y-99739284D01*
X33481481Y-105073282D01*
X33481477Y-105073287D01*
X33456222Y-105117033D01*
X33456221Y-105117035D01*
X33402423Y-105210215D01*
X33361499Y-105362943D01*
X33361499Y-105362945D01*
X33361499Y-105370235D01*
X33341814Y-105437274D01*
X33340601Y-105439126D01*
X33252609Y-105570814D01*
X33252602Y-105570827D01*
X33192264Y-105716498D01*
X33192261Y-105716510D01*
X33161500Y-105871153D01*
X33161500Y-106028846D01*
X33192261Y-106183489D01*
X33192264Y-106183501D01*
X33252603Y-106329174D01*
X33252604Y-106329175D01*
X33252606Y-106329179D01*
X33280130Y-106370371D01*
X33313602Y-106420465D01*
X33334480Y-106487142D01*
X33334500Y-106489356D01*
X33334500Y-110773992D01*
X33314815Y-110841031D01*
X33279391Y-110877094D01*
X33167371Y-110951942D01*
X33062285Y-111057028D01*
X33062281Y-111057033D01*
X33058969Y-111061990D01*
X33005353Y-111106791D01*
X32936027Y-111115493D01*
X32873002Y-111085333D01*
X32868191Y-111080772D01*
X31323819Y-109536400D01*
X31290334Y-109475077D01*
X31287500Y-109448719D01*
X31287500Y-102840194D01*
X31263386Y-102718970D01*
X31263385Y-102718969D01*
X31263385Y-102718965D01*
X31224856Y-102625947D01*
X31216086Y-102604773D01*
X31216079Y-102604760D01*
X31147412Y-102501993D01*
X31116600Y-102471181D01*
X31060008Y-102414589D01*
X30346008Y-101700589D01*
X30312523Y-101639266D01*
X30317507Y-101569574D01*
X30346008Y-101525227D01*
X32650416Y-99220819D01*
X32711739Y-99187334D01*
X32738097Y-99184500D01*
X39082479Y-99184500D01*
X39114959Y-99194037D01*
G37*
%TD.AperFunction*%
%TA.AperFunction,Conductor*%
G36*
X49945763Y-106851185D02*
G01*
X49991518Y-106903989D01*
X49998709Y-106926253D01*
X49998726Y-106926248D01*
X49999014Y-106927199D01*
X50000341Y-106931306D01*
X50000494Y-106932077D01*
X50000495Y-106932080D01*
X50057371Y-107069391D01*
X50139939Y-107192964D01*
X50139945Y-107192971D01*
X50245028Y-107298054D01*
X50245035Y-107298060D01*
X50368608Y-107380628D01*
X50368609Y-107380628D01*
X50368610Y-107380629D01*
X50505920Y-107437505D01*
X50541635Y-107444609D01*
X50603546Y-107476992D01*
X50605126Y-107478545D01*
X52542473Y-109415892D01*
X52575958Y-109477215D01*
X52570974Y-109546907D01*
X52529102Y-109602840D01*
X52463638Y-109627257D01*
X52454792Y-109627573D01*
X52053281Y-109627573D01*
X51986242Y-109607888D01*
X51965600Y-109591254D01*
X51659867Y-109285520D01*
X51659861Y-109285515D01*
X51640514Y-109272588D01*
X51557093Y-109216847D01*
X51557080Y-109216840D01*
X51511602Y-109198003D01*
X51511598Y-109198001D01*
X51505109Y-109195314D01*
X51442889Y-109169541D01*
X51343823Y-109149836D01*
X51338863Y-109148412D01*
X51313542Y-109132354D01*
X51286978Y-109118459D01*
X51285399Y-109116907D01*
X49917086Y-107748593D01*
X49917082Y-107748590D01*
X49917081Y-107748589D01*
X49884980Y-107727140D01*
X49884978Y-107727138D01*
X49814312Y-107679920D01*
X49814299Y-107679913D01*
X49780858Y-107666062D01*
X49700108Y-107632614D01*
X49700100Y-107632612D01*
X49578880Y-107608500D01*
X49578876Y-107608500D01*
X48896560Y-107608500D01*
X48829521Y-107588815D01*
X48827671Y-107587603D01*
X48797391Y-107567371D01*
X48660080Y-107510495D01*
X48660072Y-107510493D01*
X48514316Y-107481500D01*
X48514312Y-107481500D01*
X48365688Y-107481500D01*
X48365683Y-107481500D01*
X48219927Y-107510493D01*
X48219919Y-107510495D01*
X48082608Y-107567371D01*
X47959035Y-107649939D01*
X47959028Y-107649945D01*
X47853945Y-107755028D01*
X47853939Y-107755035D01*
X47771371Y-107878608D01*
X47714495Y-108015919D01*
X47714493Y-108015927D01*
X47685500Y-108161683D01*
X47685500Y-108310316D01*
X47714493Y-108456072D01*
X47714495Y-108456080D01*
X47771371Y-108593391D01*
X47853939Y-108716964D01*
X47853945Y-108716971D01*
X47959028Y-108822054D01*
X47959035Y-108822060D01*
X48082608Y-108904628D01*
X48082609Y-108904628D01*
X48082610Y-108904629D01*
X48219920Y-108961505D01*
X48342135Y-108985815D01*
X48365683Y-108990499D01*
X48365687Y-108990500D01*
X48365688Y-108990500D01*
X48514313Y-108990500D01*
X48514314Y-108990499D01*
X48660080Y-108961505D01*
X48797390Y-108904629D01*
X48817083Y-108891471D01*
X48827671Y-108884397D01*
X48894349Y-108863520D01*
X48896560Y-108863500D01*
X49205792Y-108863500D01*
X49272831Y-108883185D01*
X49293473Y-108899819D01*
X49568473Y-109174819D01*
X49601958Y-109236142D01*
X49596974Y-109305834D01*
X49555102Y-109361767D01*
X49489638Y-109386184D01*
X49480792Y-109386500D01*
X48388560Y-109386500D01*
X48321521Y-109366815D01*
X48319671Y-109365603D01*
X48289391Y-109345371D01*
X48152080Y-109288495D01*
X48152072Y-109288493D01*
X48006316Y-109259500D01*
X48006312Y-109259500D01*
X47857688Y-109259500D01*
X47857683Y-109259500D01*
X47711927Y-109288493D01*
X47711919Y-109288495D01*
X47574608Y-109345371D01*
X47451035Y-109427939D01*
X47451028Y-109427945D01*
X47345945Y-109533028D01*
X47345939Y-109533035D01*
X47263371Y-109656608D01*
X47206495Y-109793919D01*
X47206493Y-109793927D01*
X47177500Y-109939683D01*
X47177500Y-110090751D01*
X47173882Y-110103072D01*
X47174929Y-110115873D01*
X47164225Y-110135958D01*
X47157815Y-110157790D01*
X47147341Y-110167641D01*
X47142070Y-110177534D01*
X47123453Y-110190111D01*
X47114033Y-110198972D01*
X47107677Y-110202527D01*
X47065694Y-110219917D01*
X47009705Y-110257327D01*
X47005426Y-110259721D01*
X46975949Y-110266448D01*
X46947106Y-110275480D01*
X46944893Y-110275500D01*
X46841683Y-110275500D01*
X46695927Y-110304493D01*
X46690093Y-110306263D01*
X46689486Y-110304263D01*
X46629448Y-110310700D01*
X46566978Y-110279407D01*
X46531343Y-110219308D01*
X46527500Y-110188677D01*
X46527500Y-107900796D01*
X46547185Y-107833757D01*
X46599989Y-107788002D01*
X46627301Y-107779180D01*
X46701080Y-107764505D01*
X46838390Y-107707629D01*
X46847634Y-107701452D01*
X46868671Y-107687397D01*
X46935349Y-107666520D01*
X46937560Y-107666500D01*
X47158804Y-107666500D01*
X47158805Y-107666499D01*
X47280035Y-107642386D01*
X47362587Y-107608191D01*
X47394233Y-107595083D01*
X47497008Y-107526411D01*
X47584411Y-107439008D01*
X48155600Y-106867819D01*
X48216923Y-106834334D01*
X48243281Y-106831500D01*
X49878724Y-106831500D01*
X49945763Y-106851185D01*
G37*
%TD.AperFunction*%
%TA.AperFunction,Conductor*%
G36*
X57749294Y-100247185D02*
G01*
X57795049Y-100299989D01*
X57803872Y-100327309D01*
X57822224Y-100419572D01*
X57822226Y-100419580D01*
X57879102Y-100556891D01*
X57961670Y-100680464D01*
X57961676Y-100680471D01*
X58066759Y-100785554D01*
X58066766Y-100785560D01*
X58190339Y-100868128D01*
X58190340Y-100868128D01*
X58190341Y-100868129D01*
X58327651Y-100925005D01*
X58437303Y-100946816D01*
X58473414Y-100953999D01*
X58473418Y-100954000D01*
X58534156Y-100954000D01*
X58601195Y-100973685D01*
X58646950Y-101026489D01*
X58658156Y-101078000D01*
X58658156Y-101363463D01*
X58682268Y-101484684D01*
X58682270Y-101484691D01*
X58705263Y-101540199D01*
X58729573Y-101598889D01*
X58765934Y-101653307D01*
X58768880Y-101658858D01*
X58770813Y-101668282D01*
X58780969Y-101692799D01*
X58793323Y-101754906D01*
X58793324Y-101754908D01*
X58850201Y-101892221D01*
X58932769Y-102015794D01*
X58936640Y-102020511D01*
X58935534Y-102021418D01*
X58965581Y-102076445D01*
X58960597Y-102146137D01*
X58932096Y-102190484D01*
X57750331Y-103372250D01*
X56675992Y-104446589D01*
X56648502Y-104474079D01*
X56588586Y-104533994D01*
X56588585Y-104533996D01*
X56519789Y-104636956D01*
X56519626Y-104637468D01*
X56472614Y-104750965D01*
X56455180Y-104838615D01*
X56453847Y-104845313D01*
X56453843Y-104845328D01*
X56448500Y-104872192D01*
X56448500Y-108379387D01*
X56428815Y-108446426D01*
X56376011Y-108492181D01*
X56306853Y-108502125D01*
X56255610Y-108482490D01*
X56163390Y-108420871D01*
X56150877Y-108415688D01*
X56026080Y-108363995D01*
X56026072Y-108363993D01*
X55880316Y-108335000D01*
X55880312Y-108335000D01*
X55827781Y-108335000D01*
X55760742Y-108315315D01*
X55740100Y-108298681D01*
X53132694Y-105691275D01*
X53132070Y-105690647D01*
X53124534Y-105683003D01*
X53121916Y-105679084D01*
X53034513Y-105591681D01*
X52875074Y-105432242D01*
X52693591Y-105250758D01*
X52693587Y-105250755D01*
X52693586Y-105250754D01*
X52664369Y-105231232D01*
X52664367Y-105231230D01*
X52590817Y-105182085D01*
X52590804Y-105182078D01*
X52555393Y-105167411D01*
X52476613Y-105134779D01*
X52476605Y-105134777D01*
X52355385Y-105110665D01*
X52355381Y-105110665D01*
X51873235Y-105110665D01*
X51749629Y-105110665D01*
X51749624Y-105110665D01*
X51628404Y-105134777D01*
X51628396Y-105134779D01*
X51549617Y-105167411D01*
X51514202Y-105182080D01*
X51514192Y-105182085D01*
X51440642Y-105231230D01*
X51440641Y-105231232D01*
X51412182Y-105250247D01*
X51411418Y-105250758D01*
X51375998Y-105286180D01*
X51314676Y-105319666D01*
X51288316Y-105322500D01*
X50410195Y-105322500D01*
X50288970Y-105346613D01*
X50288960Y-105346616D01*
X50174773Y-105393913D01*
X50174760Y-105393920D01*
X50071993Y-105462587D01*
X50051495Y-105483086D01*
X49994398Y-105540182D01*
X49933078Y-105573666D01*
X49906719Y-105576500D01*
X47870195Y-105576500D01*
X47748970Y-105600613D01*
X47748960Y-105600616D01*
X47634773Y-105647913D01*
X47634760Y-105647920D01*
X47531992Y-105716588D01*
X47531988Y-105716591D01*
X46925133Y-106323446D01*
X46912263Y-106330473D01*
X46902445Y-106341368D01*
X46882212Y-106346882D01*
X46863810Y-106356931D01*
X46847984Y-106356211D01*
X46835034Y-106359741D01*
X46809854Y-106354476D01*
X46800204Y-106354038D01*
X46795009Y-106352402D01*
X46701080Y-106313495D01*
X46620698Y-106297506D01*
X46614252Y-106295476D01*
X46590618Y-106279627D01*
X46565397Y-106266435D01*
X46561970Y-106260417D01*
X46556222Y-106256563D01*
X46544907Y-106230453D01*
X46530823Y-106205719D01*
X46529584Y-106195093D01*
X46528441Y-106192454D01*
X46528929Y-106189470D01*
X46527500Y-106177203D01*
X46527500Y-105753281D01*
X46547185Y-105686242D01*
X46563819Y-105665600D01*
X47647600Y-104581819D01*
X47708923Y-104548334D01*
X47735281Y-104545500D01*
X53327804Y-104545500D01*
X53327805Y-104545499D01*
X53449035Y-104521386D01*
X53530110Y-104487803D01*
X53563233Y-104474083D01*
X53666008Y-104405411D01*
X53753411Y-104318008D01*
X56039411Y-102032008D01*
X56047307Y-102020191D01*
X56108083Y-101929233D01*
X56155385Y-101815035D01*
X56167346Y-101754906D01*
X56179500Y-101693805D01*
X56179500Y-100351500D01*
X56199185Y-100284461D01*
X56251989Y-100238706D01*
X56303500Y-100227500D01*
X57682255Y-100227500D01*
X57749294Y-100247185D01*
G37*
%TD.AperFunction*%
%TA.AperFunction,Conductor*%
G36*
X82739758Y-99993185D02*
G01*
X82760400Y-100009819D01*
X83683134Y-100932553D01*
X83716619Y-100993876D01*
X83711635Y-101063568D01*
X83669763Y-101119501D01*
X83619645Y-101141851D01*
X83525925Y-101160493D01*
X83525919Y-101160495D01*
X83388608Y-101217371D01*
X83265035Y-101299939D01*
X83265028Y-101299945D01*
X83159945Y-101405028D01*
X83159939Y-101405035D01*
X83077371Y-101528608D01*
X83020495Y-101665919D01*
X83020493Y-101665927D01*
X82991500Y-101811683D01*
X82991500Y-101960316D01*
X83020493Y-102106072D01*
X83020495Y-102106080D01*
X83077371Y-102243391D01*
X83159939Y-102366964D01*
X83159945Y-102366971D01*
X83265028Y-102472054D01*
X83265035Y-102472060D01*
X83388608Y-102554628D01*
X83388609Y-102554628D01*
X83388610Y-102554629D01*
X83525920Y-102611505D01*
X83561635Y-102618609D01*
X83623546Y-102650992D01*
X83625126Y-102652545D01*
X85876181Y-104903600D01*
X85909666Y-104964923D01*
X85912500Y-104991281D01*
X85912500Y-106167719D01*
X85892815Y-106234758D01*
X85840011Y-106280513D01*
X85770853Y-106290457D01*
X85707297Y-106261432D01*
X85700819Y-106255400D01*
X80246181Y-100800762D01*
X80212696Y-100739439D01*
X80217680Y-100669747D01*
X80259552Y-100613814D01*
X80286411Y-100598519D01*
X80293390Y-100595629D01*
X80416966Y-100513059D01*
X80522059Y-100407966D01*
X80604629Y-100284390D01*
X80661505Y-100147080D01*
X80676179Y-100073306D01*
X80708563Y-100011398D01*
X80769279Y-99976824D01*
X80797796Y-99973500D01*
X82672719Y-99973500D01*
X82739758Y-99993185D01*
G37*
%TD.AperFunction*%
%TA.AperFunction,Conductor*%
G36*
X71251039Y-71520185D02*
G01*
X71296794Y-71572989D01*
X71308000Y-71624500D01*
X71308000Y-71918000D01*
X74848000Y-71918000D01*
X74848000Y-71624500D01*
X74867685Y-71557461D01*
X74920489Y-71511706D01*
X74972000Y-71500500D01*
X105475500Y-71500500D01*
X105542539Y-71520185D01*
X105588294Y-71572989D01*
X105599500Y-71624500D01*
X105599500Y-124375500D01*
X105579815Y-124442539D01*
X105527011Y-124488294D01*
X105475500Y-124499500D01*
X21124500Y-124499500D01*
X21057461Y-124479815D01*
X21011706Y-124427011D01*
X21000500Y-124375500D01*
X21000500Y-115527683D01*
X22793500Y-115527683D01*
X22793500Y-115676316D01*
X22822493Y-115822072D01*
X22822495Y-115822080D01*
X22879369Y-115959387D01*
X22879375Y-115959398D01*
X22899601Y-115989667D01*
X22920480Y-116056344D01*
X22920500Y-116058559D01*
X22920500Y-119209440D01*
X22900815Y-119276479D01*
X22899603Y-119278329D01*
X22879371Y-119308608D01*
X22822495Y-119445919D01*
X22822493Y-119445927D01*
X22793500Y-119591683D01*
X22793500Y-119740316D01*
X22822493Y-119886072D01*
X22822495Y-119886080D01*
X22879371Y-120023391D01*
X22961939Y-120146964D01*
X22961945Y-120146971D01*
X23067028Y-120252054D01*
X23067035Y-120252060D01*
X23190608Y-120334628D01*
X23190609Y-120334628D01*
X23190610Y-120334629D01*
X23327920Y-120391505D01*
X23473683Y-120420499D01*
X23473687Y-120420500D01*
X23473688Y-120420500D01*
X23622313Y-120420500D01*
X23622314Y-120420499D01*
X23768080Y-120391505D01*
X23905390Y-120334629D01*
X24028966Y-120252059D01*
X24134059Y-120146966D01*
X24216629Y-120023390D01*
X24273505Y-119886080D01*
X24302500Y-119740312D01*
X24302500Y-119591688D01*
X24273505Y-119445920D01*
X24216629Y-119308610D01*
X24216628Y-119308608D01*
X24196397Y-119278329D01*
X24175520Y-119211651D01*
X24175500Y-119209440D01*
X24175500Y-116058559D01*
X24195185Y-115991520D01*
X24196399Y-115989667D01*
X24216624Y-115959398D01*
X24216628Y-115959391D01*
X24216629Y-115959390D01*
X24273505Y-115822080D01*
X24302500Y-115676312D01*
X24302500Y-115527688D01*
X24273505Y-115381920D01*
X24216629Y-115244610D01*
X24213557Y-115240013D01*
X24134060Y-115121035D01*
X24134054Y-115121028D01*
X24028971Y-115015945D01*
X24028964Y-115015939D01*
X23905391Y-114933371D01*
X23768080Y-114876495D01*
X23768072Y-114876493D01*
X23622316Y-114847500D01*
X23622312Y-114847500D01*
X23473688Y-114847500D01*
X23473683Y-114847500D01*
X23327927Y-114876493D01*
X23327919Y-114876495D01*
X23190608Y-114933371D01*
X23067035Y-115015939D01*
X23067028Y-115015945D01*
X22961945Y-115121028D01*
X22961939Y-115121035D01*
X22879371Y-115244608D01*
X22822495Y-115381919D01*
X22822493Y-115381927D01*
X22793500Y-115527683D01*
X21000500Y-115527683D01*
X21000500Y-109685683D01*
X28127500Y-109685683D01*
X28127500Y-109834316D01*
X28156493Y-109980072D01*
X28156495Y-109980080D01*
X28213371Y-110117391D01*
X28295939Y-110240964D01*
X28295945Y-110240971D01*
X28401029Y-110346055D01*
X28401032Y-110346057D01*
X28401034Y-110346059D01*
X28453390Y-110381041D01*
X28498196Y-110434653D01*
X28508500Y-110484144D01*
X28508500Y-122267807D01*
X28532612Y-122389027D01*
X28532614Y-122389035D01*
X28552737Y-122437616D01*
X28579915Y-122503229D01*
X28579920Y-122503238D01*
X28612369Y-122551801D01*
X28612369Y-122551802D01*
X28648585Y-122606003D01*
X28648591Y-122606011D01*
X29131454Y-123088873D01*
X29164939Y-123150196D01*
X29165390Y-123152363D01*
X29172493Y-123188072D01*
X29172495Y-123188080D01*
X29229371Y-123325391D01*
X29311939Y-123448964D01*
X29311945Y-123448971D01*
X29417028Y-123554054D01*
X29417035Y-123554060D01*
X29540608Y-123636628D01*
X29540609Y-123636628D01*
X29540610Y-123636629D01*
X29677920Y-123693505D01*
X29823683Y-123722499D01*
X29823687Y-123722500D01*
X29823688Y-123722500D01*
X29972313Y-123722500D01*
X29972314Y-123722499D01*
X30118080Y-123693505D01*
X30255390Y-123636629D01*
X30378966Y-123554059D01*
X30484059Y-123448966D01*
X30511262Y-123408253D01*
X30527426Y-123394743D01*
X30540053Y-123377877D01*
X30553696Y-123372788D01*
X30564871Y-123363449D01*
X30585777Y-123360822D01*
X30605517Y-123353460D01*
X30619745Y-123356555D01*
X30634196Y-123354740D01*
X30653203Y-123363833D01*
X30673790Y-123368312D01*
X30693668Y-123383192D01*
X30697224Y-123384894D01*
X30702044Y-123389463D01*
X30753589Y-123441008D01*
X30840992Y-123528411D01*
X30840994Y-123528413D01*
X30840996Y-123528414D01*
X30943756Y-123597076D01*
X30943758Y-123597077D01*
X30943767Y-123597083D01*
X30968772Y-123607440D01*
X30991071Y-123616677D01*
X31033254Y-123634149D01*
X31057966Y-123644386D01*
X31179192Y-123668499D01*
X31179196Y-123668500D01*
X31179197Y-123668500D01*
X33696804Y-123668500D01*
X33696805Y-123668499D01*
X33818035Y-123644386D01*
X33898784Y-123610937D01*
X33932233Y-123597083D01*
X34035008Y-123528411D01*
X34122411Y-123441008D01*
X40488819Y-117074600D01*
X40508255Y-117063987D01*
X40524989Y-117049487D01*
X40538320Y-117047570D01*
X40550142Y-117041115D01*
X40572228Y-117042694D01*
X40594147Y-117039543D01*
X40606398Y-117045138D01*
X40619834Y-117046099D01*
X40637560Y-117059369D01*
X40657703Y-117068568D01*
X40664985Y-117079899D01*
X40675767Y-117087971D01*
X40683504Y-117108716D01*
X40695477Y-117127346D01*
X40698628Y-117149264D01*
X40700184Y-117153435D01*
X40700500Y-117162281D01*
X40700500Y-117177440D01*
X40680815Y-117244479D01*
X40679603Y-117246329D01*
X40659371Y-117276608D01*
X40602495Y-117413919D01*
X40602493Y-117413927D01*
X40573500Y-117559683D01*
X40573500Y-117708316D01*
X40602493Y-117854072D01*
X40602495Y-117854080D01*
X40659371Y-117991391D01*
X40741939Y-118114964D01*
X40741945Y-118114971D01*
X40847028Y-118220054D01*
X40847035Y-118220060D01*
X40970608Y-118302628D01*
X40970609Y-118302628D01*
X40970610Y-118302629D01*
X41107920Y-118359505D01*
X41193496Y-118376527D01*
X41253683Y-118388499D01*
X41253687Y-118388500D01*
X41346950Y-118388500D01*
X41413989Y-118408185D01*
X41459744Y-118460989D01*
X41468567Y-118488309D01*
X41486612Y-118579027D01*
X41486614Y-118579035D01*
X41507481Y-118629412D01*
X41533915Y-118693229D01*
X41533920Y-118693239D01*
X41594691Y-118784188D01*
X41602590Y-118796009D01*
X41602595Y-118796015D01*
X44229985Y-121423406D01*
X44229992Y-121423412D01*
X44332756Y-121492076D01*
X44332759Y-121492077D01*
X44332767Y-121492083D01*
X44332773Y-121492085D01*
X44332774Y-121492086D01*
X44446960Y-121539383D01*
X44446965Y-121539385D01*
X44446969Y-121539385D01*
X44446970Y-121539386D01*
X44568193Y-121563500D01*
X44568196Y-121563500D01*
X83372804Y-121563500D01*
X83372805Y-121563499D01*
X83494035Y-121539386D01*
X83554791Y-121514219D01*
X83578046Y-121507166D01*
X83585141Y-121505754D01*
X83712080Y-121480505D01*
X83849390Y-121423629D01*
X83972966Y-121341059D01*
X84078059Y-121235966D01*
X84160629Y-121112390D01*
X84217505Y-120975080D01*
X84232179Y-120901306D01*
X84264563Y-120839398D01*
X84325279Y-120804824D01*
X84353796Y-120801500D01*
X86093804Y-120801500D01*
X86093805Y-120801499D01*
X86215035Y-120777386D01*
X86296110Y-120743803D01*
X86329233Y-120730083D01*
X86432008Y-120661411D01*
X86519411Y-120574008D01*
X87789411Y-119304008D01*
X87789786Y-119303445D01*
X87790153Y-119302898D01*
X87790154Y-119302898D01*
X87790161Y-119302884D01*
X87858083Y-119201233D01*
X87905385Y-119087035D01*
X87918057Y-119023332D01*
X87929500Y-118965805D01*
X87929500Y-113508197D01*
X87929499Y-113508193D01*
X87927012Y-113495685D01*
X87927012Y-113495684D01*
X87912529Y-113422877D01*
X87905386Y-113386966D01*
X87867462Y-113295411D01*
X87858083Y-113272767D01*
X87820288Y-113216203D01*
X87789414Y-113169996D01*
X87789413Y-113169994D01*
X87749095Y-113129676D01*
X87702008Y-113082589D01*
X87203819Y-112584400D01*
X87170334Y-112523077D01*
X87167500Y-112496719D01*
X87167500Y-104618195D01*
X87162154Y-104591323D01*
X87160820Y-104584615D01*
X87143386Y-104496966D01*
X87096360Y-104383437D01*
X87096207Y-104382953D01*
X87027414Y-104279996D01*
X87027413Y-104279994D01*
X87027411Y-104279992D01*
X86940008Y-104192589D01*
X85218600Y-102471181D01*
X85185115Y-102409858D01*
X85190099Y-102340166D01*
X85231971Y-102284233D01*
X85297435Y-102259816D01*
X85306281Y-102259500D01*
X85331803Y-102259500D01*
X85575440Y-102259500D01*
X85642479Y-102279185D01*
X85644329Y-102280397D01*
X85674608Y-102300628D01*
X85674609Y-102300628D01*
X85674610Y-102300629D01*
X85811920Y-102357505D01*
X85957683Y-102386499D01*
X85957687Y-102386500D01*
X85957688Y-102386500D01*
X86106313Y-102386500D01*
X86106314Y-102386499D01*
X86252080Y-102357505D01*
X86389390Y-102300629D01*
X86512966Y-102218059D01*
X86618059Y-102112966D01*
X86700629Y-101989390D01*
X86757505Y-101852080D01*
X86786500Y-101706312D01*
X86786500Y-101557688D01*
X86757505Y-101411920D01*
X86700629Y-101274610D01*
X86686074Y-101252827D01*
X86618060Y-101151035D01*
X86618054Y-101151028D01*
X86512971Y-101045945D01*
X86512964Y-101045939D01*
X86389391Y-100963371D01*
X86252080Y-100906495D01*
X86252072Y-100906493D01*
X86106316Y-100877500D01*
X86106312Y-100877500D01*
X85957688Y-100877500D01*
X85957683Y-100877500D01*
X85811927Y-100906493D01*
X85811919Y-100906495D01*
X85674608Y-100963371D01*
X85674606Y-100963372D01*
X85647828Y-100981264D01*
X85581150Y-101002140D01*
X85513771Y-100983653D01*
X85491260Y-100965841D01*
X83948600Y-99423181D01*
X83915115Y-99361858D01*
X83920099Y-99292166D01*
X83961971Y-99236233D01*
X84027435Y-99211816D01*
X84036281Y-99211500D01*
X84315804Y-99211500D01*
X84315805Y-99211499D01*
X84437035Y-99187386D01*
X84526914Y-99150156D01*
X84551233Y-99140083D01*
X84638570Y-99081726D01*
X84641177Y-99080165D01*
X84648510Y-99078261D01*
X84680695Y-99064929D01*
X84728080Y-99055505D01*
X84865390Y-98998629D01*
X84874634Y-98992452D01*
X84895671Y-98978397D01*
X84962349Y-98957520D01*
X84964560Y-98957500D01*
X85974719Y-98957500D01*
X86041758Y-98977185D01*
X86062400Y-98993819D01*
X88670181Y-101601600D01*
X88703666Y-101662923D01*
X88706500Y-101689281D01*
X88706500Y-115385855D01*
X88686815Y-115452894D01*
X88651391Y-115488957D01*
X88599033Y-115523940D01*
X88493945Y-115629028D01*
X88493939Y-115629035D01*
X88411371Y-115752608D01*
X88354495Y-115889919D01*
X88354493Y-115889927D01*
X88325500Y-116035683D01*
X88325500Y-116184316D01*
X88354493Y-116330072D01*
X88354495Y-116330080D01*
X88411371Y-116467391D01*
X88493939Y-116590964D01*
X88493945Y-116590971D01*
X88599028Y-116696054D01*
X88599035Y-116696060D01*
X88722608Y-116778628D01*
X88722609Y-116778628D01*
X88722610Y-116778629D01*
X88859920Y-116835505D01*
X88997740Y-116862919D01*
X89005683Y-116864499D01*
X89005687Y-116864500D01*
X89005688Y-116864500D01*
X89154313Y-116864500D01*
X89154314Y-116864499D01*
X89300080Y-116835505D01*
X89437390Y-116778629D01*
X89560966Y-116696059D01*
X89666059Y-116590966D01*
X89748629Y-116467390D01*
X89805505Y-116330080D01*
X89814929Y-116282695D01*
X89833444Y-116237999D01*
X89869317Y-116184312D01*
X89890078Y-116153241D01*
X89890079Y-116153238D01*
X89890083Y-116153233D01*
X89937385Y-116039035D01*
X89945276Y-115999361D01*
X89961500Y-115917805D01*
X89961500Y-101316199D01*
X89961500Y-101316197D01*
X89959678Y-101307039D01*
X89959678Y-101307035D01*
X89944715Y-101231811D01*
X89937386Y-101194965D01*
X89899553Y-101103629D01*
X89890083Y-101080767D01*
X89821411Y-100977992D01*
X89734008Y-100890589D01*
X88231436Y-99388017D01*
X86686012Y-97842592D01*
X86686008Y-97842589D01*
X86649944Y-97818492D01*
X86583233Y-97773917D01*
X86549784Y-97760062D01*
X86542387Y-97756998D01*
X86542382Y-97756995D01*
X86469035Y-97726614D01*
X86469027Y-97726612D01*
X86347807Y-97702500D01*
X86347803Y-97702500D01*
X84964560Y-97702500D01*
X84897521Y-97682815D01*
X84895671Y-97681603D01*
X84865391Y-97661371D01*
X84728080Y-97604495D01*
X84728072Y-97604493D01*
X84582316Y-97575500D01*
X84582312Y-97575500D01*
X84433688Y-97575500D01*
X84433683Y-97575500D01*
X84287927Y-97604493D01*
X84287919Y-97604495D01*
X84150608Y-97661371D01*
X84027035Y-97743939D01*
X84027028Y-97743945D01*
X83921943Y-97849030D01*
X83921939Y-97849035D01*
X83886959Y-97901389D01*
X83833348Y-97946195D01*
X83783856Y-97956500D01*
X60689282Y-97956500D01*
X60622243Y-97936815D01*
X60601601Y-97920181D01*
X58238444Y-95557024D01*
X58238441Y-95557022D01*
X58238008Y-95556589D01*
X58237879Y-95556503D01*
X58135233Y-95487917D01*
X58101784Y-95474062D01*
X58093478Y-95470621D01*
X58093474Y-95470619D01*
X58021035Y-95440614D01*
X58021027Y-95440612D01*
X57899807Y-95416500D01*
X57899803Y-95416500D01*
X54453130Y-95416500D01*
X54386091Y-95396815D01*
X54340336Y-95344011D01*
X54330392Y-95274853D01*
X54359417Y-95211297D01*
X54384240Y-95189398D01*
X54488462Y-95119759D01*
X54508966Y-95106059D01*
X54614059Y-95000966D01*
X54696629Y-94877390D01*
X54753505Y-94740080D01*
X54782500Y-94594312D01*
X54782500Y-94445688D01*
X54753505Y-94299920D01*
X54696629Y-94162610D01*
X54672445Y-94126416D01*
X54614060Y-94039035D01*
X54614054Y-94039028D01*
X54508971Y-93933945D01*
X54508964Y-93933939D01*
X54385391Y-93851371D01*
X54248080Y-93794495D01*
X54248072Y-93794493D01*
X54212363Y-93787390D01*
X54150452Y-93755005D01*
X54148873Y-93753454D01*
X41633102Y-81237683D01*
X45653500Y-81237683D01*
X45653500Y-81386316D01*
X45682493Y-81532072D01*
X45682495Y-81532080D01*
X45739371Y-81669391D01*
X45821939Y-81792964D01*
X45821945Y-81792971D01*
X45927028Y-81898054D01*
X45927035Y-81898060D01*
X46050608Y-81980628D01*
X46050609Y-81980628D01*
X46050610Y-81980629D01*
X46187920Y-82037505D01*
X46333683Y-82066499D01*
X46333687Y-82066500D01*
X46333688Y-82066500D01*
X46482313Y-82066500D01*
X46482314Y-82066499D01*
X46628080Y-82037505D01*
X46765390Y-81980629D01*
X46774634Y-81974452D01*
X46795671Y-81960397D01*
X46862349Y-81939520D01*
X46864560Y-81939500D01*
X47874719Y-81939500D01*
X47941758Y-81959185D01*
X47962400Y-81975819D01*
X52555400Y-86568819D01*
X52588885Y-86630142D01*
X52583901Y-86699834D01*
X52542029Y-86755767D01*
X52476565Y-86780184D01*
X52467719Y-86780500D01*
X50166560Y-86780500D01*
X50099521Y-86760815D01*
X50097671Y-86759603D01*
X50067391Y-86739371D01*
X49930080Y-86682495D01*
X49930072Y-86682493D01*
X49784316Y-86653500D01*
X49784312Y-86653500D01*
X49635688Y-86653500D01*
X49635683Y-86653500D01*
X49489927Y-86682493D01*
X49489919Y-86682495D01*
X49352608Y-86739371D01*
X49229035Y-86821939D01*
X49229028Y-86821945D01*
X49123945Y-86927028D01*
X49123939Y-86927035D01*
X49041371Y-87050608D01*
X48984495Y-87187919D01*
X48984493Y-87187927D01*
X48955500Y-87333683D01*
X48955500Y-87482316D01*
X48984493Y-87628072D01*
X48984495Y-87628080D01*
X49041371Y-87765391D01*
X49123939Y-87888964D01*
X49123945Y-87888971D01*
X49229028Y-87994054D01*
X49229035Y-87994060D01*
X49352608Y-88076628D01*
X49352609Y-88076628D01*
X49352610Y-88076629D01*
X49489920Y-88133505D01*
X49635683Y-88162499D01*
X49635687Y-88162500D01*
X49635688Y-88162500D01*
X49784313Y-88162500D01*
X49784314Y-88162499D01*
X49930080Y-88133505D01*
X50067390Y-88076629D01*
X50076634Y-88070452D01*
X50097671Y-88056397D01*
X50164349Y-88035520D01*
X50166560Y-88035500D01*
X53208719Y-88035500D01*
X53275758Y-88055185D01*
X53296400Y-88071819D01*
X56412181Y-91187600D01*
X56445666Y-91248923D01*
X56448500Y-91275281D01*
X56448500Y-93565807D01*
X56472612Y-93687028D01*
X56472615Y-93687038D01*
X56485983Y-93719312D01*
X56485987Y-93719321D01*
X56487959Y-93724080D01*
X56519917Y-93801233D01*
X56552369Y-93849801D01*
X56556262Y-93855627D01*
X56556266Y-93855635D01*
X56588585Y-93904003D01*
X56588591Y-93904011D01*
X57350589Y-94666008D01*
X57396788Y-94712207D01*
X57437994Y-94753413D01*
X57437996Y-94753414D01*
X57540756Y-94822076D01*
X57540758Y-94822077D01*
X57540767Y-94822083D01*
X57551295Y-94826443D01*
X57558096Y-94829261D01*
X57558099Y-94829262D01*
X57558104Y-94829264D01*
X57654966Y-94869386D01*
X57776192Y-94893499D01*
X57776196Y-94893500D01*
X57776197Y-94893500D01*
X57899803Y-94893500D01*
X58905440Y-94893500D01*
X58972479Y-94913185D01*
X58974329Y-94914397D01*
X59004608Y-94934628D01*
X59004609Y-94934628D01*
X59004610Y-94934629D01*
X59141920Y-94991505D01*
X59286497Y-95020263D01*
X59287683Y-95020499D01*
X59287687Y-95020500D01*
X59287688Y-95020500D01*
X59436313Y-95020500D01*
X59436314Y-95020499D01*
X59582080Y-94991505D01*
X59719390Y-94934629D01*
X59842966Y-94852059D01*
X59948059Y-94746966D01*
X60030629Y-94623390D01*
X60087505Y-94486080D01*
X60116500Y-94340312D01*
X60116500Y-94191688D01*
X60087505Y-94045920D01*
X60030629Y-93908610D01*
X59991334Y-93849801D01*
X59948060Y-93785035D01*
X59948054Y-93785028D01*
X59842971Y-93679945D01*
X59842964Y-93679939D01*
X59720413Y-93598054D01*
X59675607Y-93544442D01*
X59666900Y-93475117D01*
X59674742Y-93447499D01*
X59677936Y-93439788D01*
X59711385Y-93359035D01*
X59719960Y-93315925D01*
X59735500Y-93237805D01*
X59735500Y-92172196D01*
X59734994Y-92169653D01*
X59730725Y-92148191D01*
X59711386Y-92050966D01*
X59664257Y-91937189D01*
X59664163Y-91936886D01*
X59595414Y-91833996D01*
X59595413Y-91833994D01*
X59595411Y-91833992D01*
X59508008Y-91746589D01*
X54330238Y-86568819D01*
X48953697Y-81192277D01*
X48872103Y-81110683D01*
X50479500Y-81110683D01*
X50479500Y-81259316D01*
X50508493Y-81405072D01*
X50508495Y-81405080D01*
X50565371Y-81542391D01*
X50647939Y-81665964D01*
X50647945Y-81665971D01*
X50753028Y-81771054D01*
X50753035Y-81771060D01*
X50876608Y-81853628D01*
X50876609Y-81853628D01*
X50876610Y-81853629D01*
X51013920Y-81910505D01*
X51159683Y-81939499D01*
X51159687Y-81939500D01*
X51159688Y-81939500D01*
X51308313Y-81939500D01*
X51308314Y-81939499D01*
X51454080Y-81910505D01*
X51514594Y-81885438D01*
X51562047Y-81876000D01*
X56763060Y-81876000D01*
X56852870Y-81858134D01*
X56896557Y-81849445D01*
X57022311Y-81797356D01*
X57028881Y-81792966D01*
X57135487Y-81721735D01*
X59491646Y-79365574D01*
X59531875Y-79338695D01*
X59569189Y-79323239D01*
X59592390Y-79313629D01*
X59715966Y-79231059D01*
X59741342Y-79205683D01*
X66735500Y-79205683D01*
X66735500Y-79354316D01*
X66764493Y-79500072D01*
X66764495Y-79500080D01*
X66821371Y-79637391D01*
X66903939Y-79760964D01*
X66903945Y-79760971D01*
X67009028Y-79866054D01*
X67009035Y-79866060D01*
X67132608Y-79948628D01*
X67132609Y-79948628D01*
X67132610Y-79948629D01*
X67269920Y-80005505D01*
X67305635Y-80012609D01*
X67367546Y-80044992D01*
X67369126Y-80046545D01*
X72160181Y-84837600D01*
X72174884Y-84864527D01*
X72191477Y-84890346D01*
X72192368Y-84896546D01*
X72193666Y-84898923D01*
X72196500Y-84925281D01*
X72196500Y-85173440D01*
X72176815Y-85240479D01*
X72175603Y-85242329D01*
X72155371Y-85272608D01*
X72098495Y-85409919D01*
X72098493Y-85409927D01*
X72069500Y-85555683D01*
X72069500Y-85704316D01*
X72098493Y-85850072D01*
X72098495Y-85850080D01*
X72155371Y-85987391D01*
X72237939Y-86110964D01*
X72237945Y-86110971D01*
X72343028Y-86216054D01*
X72343035Y-86216060D01*
X72466608Y-86298628D01*
X72466609Y-86298628D01*
X72466610Y-86298629D01*
X72603920Y-86355505D01*
X72741604Y-86382892D01*
X72749683Y-86384499D01*
X72749687Y-86384500D01*
X72749688Y-86384500D01*
X72898313Y-86384500D01*
X72898314Y-86384499D01*
X73044080Y-86355505D01*
X73181390Y-86298629D01*
X73304966Y-86216059D01*
X73410059Y-86110966D01*
X73492629Y-85987390D01*
X73549505Y-85850080D01*
X73578500Y-85704312D01*
X73578500Y-85555688D01*
X73549505Y-85409920D01*
X73492629Y-85272610D01*
X73492628Y-85272608D01*
X73472397Y-85242329D01*
X73466747Y-85224284D01*
X73456523Y-85208375D01*
X73452070Y-85177410D01*
X73451520Y-85175651D01*
X73451500Y-85173440D01*
X73451500Y-85031847D01*
X82721347Y-85031847D01*
X82721347Y-85031863D01*
X82758608Y-85682424D01*
X82835100Y-86329554D01*
X82950544Y-86970887D01*
X83104518Y-87604073D01*
X83276639Y-88162499D01*
X83296456Y-88226793D01*
X83525662Y-88836787D01*
X83693623Y-89213028D01*
X83791298Y-89431825D01*
X83816577Y-89480343D01*
X84092391Y-90009724D01*
X84427844Y-90568383D01*
X84621151Y-90850211D01*
X84796429Y-91105754D01*
X84796439Y-91105767D01*
X85196802Y-91619881D01*
X85196808Y-91619889D01*
X85308402Y-91746589D01*
X85627507Y-92108892D01*
X86086960Y-92570986D01*
X86573488Y-93004483D01*
X87085313Y-93407798D01*
X87620566Y-93779460D01*
X88177293Y-94118110D01*
X88753460Y-94422512D01*
X89346962Y-94691554D01*
X89955632Y-94924253D01*
X90577248Y-95119759D01*
X90577255Y-95119760D01*
X90577255Y-95119761D01*
X90771633Y-95168210D01*
X91209538Y-95277359D01*
X91850193Y-95396477D01*
X92496874Y-95476677D01*
X92496878Y-95476677D01*
X92496883Y-95476678D01*
X92799974Y-95495780D01*
X93147219Y-95517667D01*
X93798852Y-95519298D01*
X94449394Y-95481562D01*
X95096468Y-95404599D01*
X95737712Y-95288688D01*
X96370782Y-95134254D01*
X96993368Y-94941860D01*
X96993376Y-94941857D01*
X96993380Y-94941856D01*
X97603176Y-94712217D01*
X97603195Y-94712210D01*
X98198037Y-94446141D01*
X98198048Y-94446135D01*
X98198053Y-94446133D01*
X98393619Y-94344059D01*
X98775719Y-94144626D01*
X99334133Y-93808766D01*
X99871240Y-93439787D01*
X100385076Y-93039038D01*
X100873767Y-92607981D01*
X101335527Y-92148191D01*
X101768669Y-91661348D01*
X102171611Y-91149229D01*
X102542883Y-90613705D01*
X102881127Y-90056731D01*
X103185109Y-89480343D01*
X103453718Y-88886645D01*
X103685973Y-88277805D01*
X103881027Y-87656047D01*
X104038166Y-87023643D01*
X104156816Y-86382900D01*
X104205574Y-85987390D01*
X104236545Y-85736164D01*
X104277061Y-85085806D01*
X104277061Y-85085802D01*
X104277062Y-85085787D01*
X104278217Y-84434152D01*
X104240007Y-83783638D01*
X104162572Y-83136620D01*
X104103519Y-82811280D01*
X104046197Y-82495476D01*
X104033289Y-82442726D01*
X103891299Y-81862504D01*
X103698452Y-81240058D01*
X103581418Y-80929964D01*
X103468362Y-80630411D01*
X103468361Y-80630409D01*
X103468357Y-80630398D01*
X103201855Y-80035751D01*
X102899919Y-79458289D01*
X102563652Y-78900119D01*
X102194282Y-78363282D01*
X101793158Y-77849738D01*
X101580112Y-77608561D01*
X101361749Y-77361365D01*
X101229807Y-77229051D01*
X100901619Y-76899937D01*
X100414460Y-76467150D01*
X100414449Y-76467141D01*
X100414443Y-76467136D01*
X99902058Y-76064589D01*
X99902051Y-76064584D01*
X99902047Y-76064581D01*
X99366253Y-75693700D01*
X99293659Y-75649687D01*
X99053235Y-75503919D01*
X98809033Y-75355861D01*
X98758799Y-75329415D01*
X98232427Y-75052302D01*
X98212932Y-75043499D01*
X98109440Y-74996766D01*
X97638541Y-74784127D01*
X97029516Y-74552310D01*
X96407608Y-74357708D01*
X95775119Y-74201037D01*
X95775100Y-74201032D01*
X95134262Y-74082848D01*
X94854299Y-74048537D01*
X94854299Y-74048536D01*
X94845670Y-74047478D01*
X94815892Y-74039500D01*
X94780555Y-74039500D01*
X94773039Y-74038579D01*
X94773037Y-74038579D01*
X94762638Y-74037304D01*
X94745473Y-74035201D01*
X94745472Y-74035201D01*
X94723539Y-74038289D01*
X94723537Y-74038289D01*
X94714934Y-74039500D01*
X94684108Y-74039500D01*
X94649984Y-74048642D01*
X94642485Y-74049698D01*
X94642483Y-74049699D01*
X94614982Y-74053572D01*
X94614970Y-74053575D01*
X94594589Y-74062232D01*
X94578211Y-74067874D01*
X94556816Y-74073607D01*
X94532757Y-74087496D01*
X94532756Y-74087495D01*
X94526194Y-74091283D01*
X94493680Y-74105095D01*
X94469395Y-74124076D01*
X94461879Y-74128416D01*
X94461873Y-74128421D01*
X94442684Y-74139501D01*
X94423048Y-74159137D01*
X94411737Y-74169146D01*
X94389853Y-74186252D01*
X94389853Y-74186253D01*
X94376527Y-74203943D01*
X94376528Y-74203944D01*
X94375242Y-74205652D01*
X94371302Y-74210883D01*
X94349500Y-74232686D01*
X94331832Y-74263286D01*
X94327279Y-74269332D01*
X94310568Y-74291519D01*
X94310567Y-74291522D01*
X94302277Y-74312054D01*
X94294686Y-74327623D01*
X94283609Y-74346810D01*
X94283608Y-74346814D01*
X94274460Y-74380951D01*
X94261230Y-74413722D01*
X94257479Y-74444324D01*
X94255231Y-74452715D01*
X94255229Y-74452716D01*
X94249501Y-74474100D01*
X94249500Y-74474109D01*
X94249500Y-74501878D01*
X94248579Y-74516961D01*
X94245200Y-74544525D01*
X94245201Y-74544527D01*
X94248289Y-74566460D01*
X94249500Y-74583748D01*
X94249500Y-82002943D01*
X94229815Y-82069982D01*
X94177011Y-82115737D01*
X94124994Y-82126942D01*
X92925052Y-82122043D01*
X92858093Y-82102085D01*
X92812554Y-82049095D01*
X92801558Y-81998044D01*
X92801558Y-74570194D01*
X92805828Y-74540926D01*
X92801558Y-74504574D01*
X92801558Y-74467982D01*
X92796234Y-74448114D01*
X92792854Y-74430480D01*
X92790454Y-74410042D01*
X92779606Y-74382784D01*
X92779604Y-74382778D01*
X92776919Y-74376031D01*
X92767450Y-74340688D01*
X92752663Y-74315076D01*
X92749341Y-74306727D01*
X92749337Y-74306718D01*
X92741728Y-74287597D01*
X92719854Y-74258250D01*
X92701558Y-74226560D01*
X92680650Y-74205652D01*
X92662972Y-74181934D01*
X92634242Y-74159244D01*
X92608372Y-74133374D01*
X92582766Y-74118590D01*
X92559551Y-74100256D01*
X92559550Y-74100255D01*
X92559548Y-74100254D01*
X92532593Y-74088644D01*
X92532593Y-74088645D01*
X92525925Y-74085773D01*
X92494244Y-74067482D01*
X92465686Y-74059829D01*
X92457422Y-74056270D01*
X92457421Y-74056269D01*
X92438515Y-74048128D01*
X92409457Y-74043887D01*
X92409457Y-74043886D01*
X92402274Y-74042838D01*
X92366950Y-74033374D01*
X92337390Y-74033374D01*
X92328484Y-74032075D01*
X92328483Y-74032075D01*
X92308111Y-74029103D01*
X92278963Y-74032527D01*
X92278962Y-74032527D01*
X92271750Y-74033374D01*
X92235166Y-74033374D01*
X92206610Y-74041024D01*
X92197667Y-74042075D01*
X92197661Y-74042077D01*
X91950630Y-74071099D01*
X91919077Y-74074806D01*
X91619975Y-74128421D01*
X91277664Y-74189781D01*
X90644384Y-74343288D01*
X90644355Y-74343297D01*
X90021512Y-74534775D01*
X89411333Y-74763543D01*
X88816138Y-75028729D01*
X88816096Y-75028749D01*
X88238002Y-75329409D01*
X88237990Y-75329415D01*
X87679099Y-75664454D01*
X87679092Y-75664458D01*
X87679090Y-75664460D01*
X87362311Y-75881400D01*
X87141441Y-76032659D01*
X87141426Y-76032669D01*
X86627030Y-76432651D01*
X86137718Y-76862989D01*
X86137710Y-76862996D01*
X85675270Y-77322124D01*
X85241432Y-77808320D01*
X84837735Y-78319863D01*
X84465686Y-78854842D01*
X84154504Y-79365575D01*
X84126632Y-79411320D01*
X83924172Y-79793856D01*
X83821803Y-79987278D01*
X83821800Y-79987285D01*
X83712049Y-80228927D01*
X83552336Y-80580571D01*
X83496637Y-80725945D01*
X83319189Y-81189081D01*
X83319186Y-81189090D01*
X83123239Y-81810525D01*
X83123235Y-81810540D01*
X83123234Y-81810544D01*
X82983497Y-82369433D01*
X82965172Y-82442724D01*
X82965171Y-82442726D01*
X82845588Y-83083284D01*
X82764918Y-83729897D01*
X82764918Y-83729898D01*
X82764917Y-83729910D01*
X82761491Y-83783646D01*
X82723453Y-84380227D01*
X82723452Y-84380231D01*
X82721347Y-85031847D01*
X73451500Y-85031847D01*
X73451500Y-84552194D01*
X73427386Y-84430970D01*
X73427385Y-84430969D01*
X73427385Y-84430965D01*
X73427383Y-84430960D01*
X73380086Y-84316773D01*
X73380079Y-84316760D01*
X73311412Y-84213993D01*
X73309324Y-84211905D01*
X73224008Y-84126589D01*
X69088473Y-79991054D01*
X69054988Y-79929731D01*
X69059972Y-79860039D01*
X69101844Y-79804106D01*
X69167308Y-79779689D01*
X69188309Y-79779970D01*
X69193686Y-79780499D01*
X69193688Y-79780500D01*
X69193690Y-79780500D01*
X69342313Y-79780500D01*
X69342314Y-79780499D01*
X69488080Y-79751505D01*
X69625390Y-79694629D01*
X69634634Y-79688452D01*
X69655671Y-79674397D01*
X69722349Y-79653520D01*
X69724560Y-79653500D01*
X70599805Y-79653500D01*
X70681361Y-79637276D01*
X70721035Y-79629385D01*
X70835233Y-79582083D01*
X70938008Y-79513411D01*
X71025411Y-79426008D01*
X71094083Y-79323233D01*
X71141385Y-79209035D01*
X71156464Y-79133229D01*
X71165500Y-79087805D01*
X71165500Y-78964194D01*
X71141386Y-78842970D01*
X71141385Y-78842969D01*
X71141385Y-78842965D01*
X71141383Y-78842960D01*
X71094086Y-78728773D01*
X71094079Y-78728760D01*
X71025411Y-78625992D01*
X71025408Y-78625988D01*
X70938011Y-78538591D01*
X70938007Y-78538588D01*
X70835239Y-78469920D01*
X70835226Y-78469913D01*
X70721039Y-78422616D01*
X70721029Y-78422613D01*
X70599805Y-78398500D01*
X70599803Y-78398500D01*
X69724560Y-78398500D01*
X69657521Y-78378815D01*
X69655671Y-78377603D01*
X69625391Y-78357371D01*
X69488080Y-78300495D01*
X69488072Y-78300493D01*
X69342316Y-78271500D01*
X69342312Y-78271500D01*
X69193688Y-78271500D01*
X69193683Y-78271500D01*
X69047927Y-78300493D01*
X69047919Y-78300495D01*
X68910608Y-78357371D01*
X68787035Y-78439939D01*
X68787028Y-78439945D01*
X68681945Y-78545028D01*
X68681939Y-78545035D01*
X68599371Y-78668608D01*
X68542495Y-78805919D01*
X68542493Y-78805927D01*
X68513500Y-78951683D01*
X68513500Y-79100314D01*
X68514030Y-79105700D01*
X68508806Y-79133229D01*
X68506808Y-79161179D01*
X68502382Y-79167090D01*
X68501006Y-79174345D01*
X68481728Y-79194680D01*
X68464936Y-79217112D01*
X68458017Y-79219692D01*
X68452937Y-79225052D01*
X68425724Y-79231737D01*
X68399472Y-79241529D01*
X68392256Y-79239959D01*
X68385085Y-79241721D01*
X68358577Y-79232632D01*
X68331199Y-79226677D01*
X68322743Y-79220347D01*
X68318992Y-79219061D01*
X68302945Y-79205526D01*
X68256545Y-79159126D01*
X68223060Y-79097803D01*
X68222622Y-79095702D01*
X68215505Y-79059920D01*
X68158629Y-78922610D01*
X68113348Y-78854842D01*
X68076060Y-78799035D01*
X68076054Y-78799028D01*
X67970971Y-78693945D01*
X67970964Y-78693939D01*
X67847391Y-78611371D01*
X67710080Y-78554495D01*
X67710072Y-78554493D01*
X67564316Y-78525500D01*
X67564312Y-78525500D01*
X67415688Y-78525500D01*
X67415683Y-78525500D01*
X67269927Y-78554493D01*
X67269919Y-78554495D01*
X67132608Y-78611371D01*
X67009035Y-78693939D01*
X67009028Y-78693945D01*
X66903945Y-78799028D01*
X66903939Y-78799035D01*
X66821371Y-78922608D01*
X66764495Y-79059919D01*
X66764493Y-79059927D01*
X66735500Y-79205683D01*
X59741342Y-79205683D01*
X59821059Y-79125966D01*
X59903629Y-79002390D01*
X59960505Y-78865080D01*
X59989500Y-78719312D01*
X59989500Y-78570688D01*
X59960505Y-78424920D01*
X59903629Y-78287610D01*
X59903624Y-78287603D01*
X59821060Y-78164035D01*
X59821054Y-78164028D01*
X59715971Y-78058945D01*
X59715964Y-78058939D01*
X59592391Y-77976371D01*
X59455080Y-77919495D01*
X59455072Y-77919493D01*
X59309316Y-77890500D01*
X59309312Y-77890500D01*
X59160688Y-77890500D01*
X59160683Y-77890500D01*
X59014927Y-77919493D01*
X59014919Y-77919495D01*
X58877608Y-77976371D01*
X58754035Y-78058939D01*
X58754028Y-78058945D01*
X58648942Y-78164031D01*
X58566374Y-78287603D01*
X58566370Y-78287611D01*
X58541303Y-78348126D01*
X58514424Y-78388352D01*
X56445097Y-80457681D01*
X56383774Y-80491166D01*
X56357416Y-80494000D01*
X51562047Y-80494000D01*
X51514594Y-80484561D01*
X51454080Y-80459495D01*
X51454072Y-80459493D01*
X51308316Y-80430500D01*
X51308312Y-80430500D01*
X51159688Y-80430500D01*
X51159683Y-80430500D01*
X51013927Y-80459493D01*
X51013919Y-80459495D01*
X50876608Y-80516371D01*
X50753035Y-80598939D01*
X50753028Y-80598945D01*
X50647945Y-80704028D01*
X50647939Y-80704035D01*
X50565371Y-80827608D01*
X50508495Y-80964919D01*
X50508493Y-80964927D01*
X50479500Y-81110683D01*
X48872103Y-81110683D01*
X48586013Y-80824593D01*
X48586009Y-80824590D01*
X48556480Y-80804859D01*
X48483238Y-80755920D01*
X48483226Y-80755913D01*
X48449785Y-80742062D01*
X48369035Y-80708614D01*
X48369027Y-80708612D01*
X48247807Y-80684500D01*
X48247803Y-80684500D01*
X46864560Y-80684500D01*
X46797521Y-80664815D01*
X46795671Y-80663603D01*
X46765391Y-80643371D01*
X46628080Y-80586495D01*
X46628072Y-80586493D01*
X46482316Y-80557500D01*
X46482312Y-80557500D01*
X46333688Y-80557500D01*
X46333683Y-80557500D01*
X46187927Y-80586493D01*
X46187919Y-80586495D01*
X46050608Y-80643371D01*
X45927035Y-80725939D01*
X45927028Y-80725945D01*
X45821945Y-80831028D01*
X45821939Y-80831035D01*
X45739371Y-80954608D01*
X45682495Y-81091919D01*
X45682493Y-81091927D01*
X45653500Y-81237683D01*
X41633102Y-81237683D01*
X40458007Y-80062588D01*
X40453859Y-80059817D01*
X40451071Y-80057954D01*
X40355233Y-79993917D01*
X40321784Y-79980062D01*
X40313613Y-79976677D01*
X40313609Y-79976675D01*
X40241035Y-79946614D01*
X40241027Y-79946612D01*
X40119807Y-79922500D01*
X40119803Y-79922500D01*
X34299888Y-79922500D01*
X34232849Y-79902815D01*
X34212207Y-79886181D01*
X34188971Y-79862945D01*
X34188964Y-79862939D01*
X34065391Y-79780371D01*
X33928080Y-79723495D01*
X33928072Y-79723493D01*
X33782316Y-79694500D01*
X33782312Y-79694500D01*
X33633688Y-79694500D01*
X33633683Y-79694500D01*
X33487927Y-79723493D01*
X33487919Y-79723495D01*
X33350608Y-79780371D01*
X33227035Y-79862939D01*
X33227028Y-79862945D01*
X33121945Y-79968028D01*
X33121939Y-79968035D01*
X33039371Y-80091608D01*
X32982495Y-80228919D01*
X32982493Y-80228927D01*
X32953500Y-80374683D01*
X32953500Y-80523316D01*
X32982493Y-80669072D01*
X32982495Y-80669080D01*
X33039371Y-80806391D01*
X33121939Y-80929964D01*
X33121945Y-80929971D01*
X33227028Y-81035054D01*
X33227035Y-81035060D01*
X33350608Y-81117628D01*
X33350609Y-81117628D01*
X33350610Y-81117629D01*
X33487920Y-81174505D01*
X33633683Y-81203499D01*
X33633687Y-81203500D01*
X33633688Y-81203500D01*
X33782313Y-81203500D01*
X33782313Y-81203499D01*
X33901043Y-81179882D01*
X33925234Y-81177500D01*
X39746719Y-81177500D01*
X39813758Y-81197185D01*
X39834400Y-81213819D01*
X53261454Y-94640873D01*
X53294939Y-94702196D01*
X53295390Y-94704363D01*
X53302493Y-94740072D01*
X53302495Y-94740080D01*
X53359371Y-94877391D01*
X53441939Y-95000964D01*
X53441945Y-95000971D01*
X53547028Y-95106054D01*
X53547035Y-95106060D01*
X53671760Y-95189398D01*
X53716566Y-95243010D01*
X53725273Y-95312335D01*
X53695119Y-95375362D01*
X53635676Y-95412082D01*
X53602870Y-95416500D01*
X50783281Y-95416500D01*
X50716242Y-95396815D01*
X50695600Y-95380181D01*
X48952545Y-93637126D01*
X48919060Y-93575803D01*
X48918622Y-93573702D01*
X48911505Y-93537920D01*
X48854629Y-93400610D01*
X48840464Y-93379411D01*
X48772060Y-93277035D01*
X48772054Y-93277028D01*
X48666971Y-93171945D01*
X48666964Y-93171939D01*
X48543391Y-93089371D01*
X48406080Y-93032495D01*
X48406072Y-93032493D01*
X48370363Y-93025390D01*
X48308452Y-92993005D01*
X48306873Y-92991454D01*
X44522013Y-89206593D01*
X44522009Y-89206590D01*
X44492480Y-89186859D01*
X44419238Y-89137920D01*
X44419226Y-89137913D01*
X44385785Y-89124062D01*
X44305035Y-89090614D01*
X44305027Y-89090612D01*
X44183807Y-89066500D01*
X44183803Y-89066500D01*
X37139560Y-89066500D01*
X37072521Y-89046815D01*
X37070671Y-89045603D01*
X37040391Y-89025371D01*
X36903080Y-88968495D01*
X36903072Y-88968493D01*
X36757316Y-88939500D01*
X36757312Y-88939500D01*
X36608688Y-88939500D01*
X36608683Y-88939500D01*
X36462927Y-88968493D01*
X36462919Y-88968495D01*
X36325608Y-89025371D01*
X36202035Y-89107939D01*
X36202028Y-89107945D01*
X36096945Y-89213028D01*
X36096939Y-89213035D01*
X36014371Y-89336608D01*
X35957495Y-89473919D01*
X35957493Y-89473927D01*
X35928500Y-89619683D01*
X35928500Y-89768316D01*
X35957493Y-89914072D01*
X35957495Y-89914080D01*
X36014371Y-90051391D01*
X36096939Y-90174964D01*
X36096945Y-90174971D01*
X36202028Y-90280054D01*
X36202035Y-90280060D01*
X36325608Y-90362628D01*
X36325609Y-90362628D01*
X36325610Y-90362629D01*
X36462920Y-90419505D01*
X36511660Y-90429200D01*
X36532558Y-90433357D01*
X36594469Y-90465741D01*
X36629043Y-90526457D01*
X36625304Y-90596226D01*
X36584438Y-90652899D01*
X36532559Y-90676591D01*
X36403508Y-90702261D01*
X36403498Y-90702264D01*
X36257827Y-90762602D01*
X36257814Y-90762609D01*
X36126711Y-90850210D01*
X36126707Y-90850213D01*
X36015213Y-90961707D01*
X36015210Y-90961711D01*
X35927609Y-91092814D01*
X35927602Y-91092827D01*
X35867264Y-91238498D01*
X35867261Y-91238510D01*
X35836500Y-91393153D01*
X35836500Y-91550846D01*
X35867261Y-91705489D01*
X35867264Y-91705501D01*
X35927602Y-91851172D01*
X35927609Y-91851185D01*
X36015210Y-91982288D01*
X36015213Y-91982292D01*
X36126707Y-92093786D01*
X36126711Y-92093789D01*
X36257814Y-92181390D01*
X36257827Y-92181397D01*
X36403498Y-92241735D01*
X36403503Y-92241737D01*
X36468147Y-92254595D01*
X36558849Y-92272638D01*
X36620760Y-92305023D01*
X36622339Y-92306574D01*
X41486139Y-97170374D01*
X41486149Y-97170385D01*
X41490479Y-97174715D01*
X41490480Y-97174716D01*
X41602284Y-97286520D01*
X41653847Y-97316289D01*
X41689095Y-97336639D01*
X41689097Y-97336641D01*
X41727151Y-97358611D01*
X41739215Y-97365577D01*
X41891943Y-97406500D01*
X42050057Y-97406500D01*
X42526234Y-97406500D01*
X42593273Y-97426185D01*
X42595125Y-97427398D01*
X42726814Y-97515390D01*
X42726827Y-97515397D01*
X42849640Y-97566267D01*
X42872503Y-97575737D01*
X43017068Y-97604493D01*
X43027153Y-97606499D01*
X43027156Y-97606500D01*
X43027158Y-97606500D01*
X43184844Y-97606500D01*
X43184845Y-97606499D01*
X43339497Y-97575737D01*
X43485179Y-97515394D01*
X43487692Y-97513714D01*
X43489210Y-97513239D01*
X43490554Y-97512521D01*
X43490690Y-97512775D01*
X43554367Y-97492832D01*
X43621749Y-97511311D01*
X43668443Y-97563287D01*
X43679625Y-97632256D01*
X43651744Y-97696322D01*
X43644271Y-97704493D01*
X43401584Y-97947181D01*
X43340261Y-97980666D01*
X43313903Y-97983500D01*
X32524669Y-97983500D01*
X32524653Y-97983499D01*
X32517057Y-97983499D01*
X32358943Y-97983499D01*
X32251587Y-98012265D01*
X32206210Y-98024424D01*
X32206209Y-98024425D01*
X32156096Y-98053359D01*
X32156095Y-98053360D01*
X32125493Y-98071028D01*
X32069285Y-98103479D01*
X32069282Y-98103481D01*
X29375339Y-100797425D01*
X29314016Y-100830910D01*
X29311850Y-100831361D01*
X29156508Y-100862261D01*
X29156498Y-100862264D01*
X29010827Y-100922602D01*
X29010814Y-100922609D01*
X28879711Y-101010210D01*
X28879707Y-101010213D01*
X28768213Y-101121707D01*
X28768210Y-101121711D01*
X28680609Y-101252814D01*
X28680602Y-101252827D01*
X28620264Y-101398498D01*
X28620261Y-101398510D01*
X28589500Y-101553153D01*
X28589500Y-101710846D01*
X28620261Y-101865489D01*
X28620264Y-101865501D01*
X28680602Y-102011172D01*
X28680609Y-102011185D01*
X28768210Y-102142288D01*
X28768213Y-102142292D01*
X28879707Y-102253786D01*
X28879711Y-102253789D01*
X29010814Y-102341390D01*
X29010827Y-102341397D01*
X29049719Y-102357506D01*
X29156503Y-102401737D01*
X29264185Y-102423156D01*
X29326092Y-102455539D01*
X29327672Y-102457091D01*
X29996181Y-103125600D01*
X30029666Y-103186923D01*
X30032500Y-103213281D01*
X30032500Y-106341500D01*
X30012815Y-106408539D01*
X29960011Y-106454294D01*
X29908500Y-106465500D01*
X29823683Y-106465500D01*
X29677927Y-106494493D01*
X29677919Y-106494495D01*
X29540608Y-106551371D01*
X29417035Y-106633939D01*
X29417028Y-106633945D01*
X29311945Y-106739028D01*
X29311939Y-106739035D01*
X29229371Y-106862608D01*
X29172495Y-106999919D01*
X29172494Y-106999924D01*
X29163069Y-107047304D01*
X29160710Y-107053222D01*
X29160745Y-107056953D01*
X29149674Y-107080918D01*
X29146378Y-107089191D01*
X29145469Y-107090632D01*
X29087917Y-107176767D01*
X29087917Y-107176768D01*
X29081563Y-107192106D01*
X29081558Y-107192115D01*
X29040615Y-107290962D01*
X29040612Y-107290970D01*
X29031609Y-107336233D01*
X29022780Y-107380629D01*
X29016500Y-107412199D01*
X29016500Y-108881500D01*
X28996815Y-108948539D01*
X28944011Y-108994294D01*
X28892500Y-109005500D01*
X28807683Y-109005500D01*
X28661927Y-109034493D01*
X28661919Y-109034495D01*
X28524608Y-109091371D01*
X28401035Y-109173939D01*
X28401028Y-109173945D01*
X28295945Y-109279028D01*
X28295939Y-109279035D01*
X28213371Y-109402608D01*
X28156495Y-109539919D01*
X28156493Y-109539927D01*
X28127500Y-109685683D01*
X21000500Y-109685683D01*
X21000500Y-75649683D01*
X58607500Y-75649683D01*
X58607500Y-75798316D01*
X58636493Y-75944072D01*
X58636495Y-75944080D01*
X58679954Y-76049000D01*
X58693371Y-76081390D01*
X58729823Y-76135945D01*
X58771447Y-76198240D01*
X58776251Y-76206039D01*
X58779995Y-76212653D01*
X58780910Y-76214860D01*
X58805917Y-76275233D01*
X58865637Y-76364610D01*
X58868181Y-76368417D01*
X58868183Y-76368421D01*
X58874588Y-76378007D01*
X59865454Y-77368873D01*
X59898939Y-77430196D01*
X59899390Y-77432363D01*
X59906493Y-77468072D01*
X59906495Y-77468080D01*
X59963371Y-77605391D01*
X60045939Y-77728964D01*
X60045945Y-77728971D01*
X60151028Y-77834054D01*
X60151035Y-77834060D01*
X60274608Y-77916628D01*
X60274609Y-77916628D01*
X60274610Y-77916629D01*
X60411920Y-77973505D01*
X60557683Y-78002499D01*
X60557687Y-78002500D01*
X60557688Y-78002500D01*
X60706313Y-78002500D01*
X60706314Y-78002499D01*
X60852080Y-77973505D01*
X60989390Y-77916629D01*
X61112966Y-77834059D01*
X61218059Y-77728966D01*
X61300629Y-77605390D01*
X61357505Y-77468080D01*
X61386500Y-77322312D01*
X61386500Y-77173688D01*
X61357505Y-77027920D01*
X61300629Y-76890610D01*
X61282173Y-76862989D01*
X61218060Y-76767035D01*
X61218054Y-76767028D01*
X61112971Y-76661945D01*
X61112964Y-76661939D01*
X60989391Y-76579371D01*
X60852080Y-76522495D01*
X60852072Y-76522493D01*
X60816363Y-76515390D01*
X60754452Y-76483005D01*
X60752873Y-76481454D01*
X60152819Y-75881400D01*
X60119334Y-75820077D01*
X60116500Y-75793719D01*
X60116500Y-75649687D01*
X60116499Y-75649683D01*
X60087506Y-75503927D01*
X60087505Y-75503920D01*
X60030629Y-75366610D01*
X60023449Y-75355865D01*
X59948060Y-75243035D01*
X59948054Y-75243028D01*
X59842971Y-75137945D01*
X59842964Y-75137939D01*
X59719391Y-75055371D01*
X59582080Y-74998495D01*
X59582072Y-74998493D01*
X59436316Y-74969500D01*
X59436312Y-74969500D01*
X59287688Y-74969500D01*
X59287683Y-74969500D01*
X59141927Y-74998493D01*
X59141919Y-74998495D01*
X59004608Y-75055371D01*
X58881035Y-75137939D01*
X58881028Y-75137945D01*
X58775945Y-75243028D01*
X58775939Y-75243035D01*
X58693371Y-75366608D01*
X58636495Y-75503919D01*
X58636493Y-75503927D01*
X58607500Y-75649683D01*
X21000500Y-75649683D01*
X21000500Y-73353055D01*
X71307500Y-73353055D01*
X71307500Y-74482927D01*
X71307501Y-74482949D01*
X71310281Y-74518282D01*
X71310281Y-74518285D01*
X71310282Y-74518286D01*
X71354234Y-74669571D01*
X71385650Y-74722692D01*
X71434426Y-74805169D01*
X71434433Y-74805178D01*
X71545821Y-74916566D01*
X71545825Y-74916569D01*
X71545827Y-74916571D01*
X71681429Y-74996766D01*
X71721323Y-75008356D01*
X71832709Y-75040717D01*
X71832712Y-75040717D01*
X71832714Y-75040718D01*
X71868061Y-75043500D01*
X74287938Y-75043499D01*
X74323286Y-75040718D01*
X74474571Y-74996766D01*
X74610173Y-74916571D01*
X74721571Y-74805173D01*
X74801584Y-74669879D01*
X74852653Y-74622195D01*
X74908316Y-74609000D01*
X79062416Y-74609000D01*
X79129455Y-74628685D01*
X79150097Y-74645319D01*
X81781510Y-77276732D01*
X81781514Y-77276735D01*
X81849432Y-77322116D01*
X81894689Y-77352356D01*
X81894690Y-77352356D01*
X81894691Y-77352357D01*
X81894693Y-77352358D01*
X81987088Y-77390629D01*
X82020443Y-77404445D01*
X82020447Y-77404445D01*
X82020448Y-77404446D01*
X82153939Y-77431000D01*
X82153942Y-77431000D01*
X82153943Y-77431000D01*
X82290057Y-77431000D01*
X83225409Y-77431000D01*
X83272860Y-77440438D01*
X83289920Y-77447505D01*
X83393358Y-77468080D01*
X83435683Y-77476499D01*
X83435687Y-77476500D01*
X83435688Y-77476500D01*
X83584313Y-77476500D01*
X83584314Y-77476499D01*
X83730080Y-77447505D01*
X83867390Y-77390629D01*
X83990966Y-77308059D01*
X84096059Y-77202966D01*
X84178629Y-77079390D01*
X84235505Y-76942080D01*
X84264500Y-76796312D01*
X84264500Y-76647688D01*
X84235505Y-76501920D01*
X84178629Y-76364610D01*
X84096059Y-76241034D01*
X84096054Y-76241028D01*
X83990971Y-76135945D01*
X83990964Y-76135939D01*
X83867391Y-76053371D01*
X83730080Y-75996495D01*
X83730072Y-75996493D01*
X83584316Y-75967500D01*
X83584312Y-75967500D01*
X83435688Y-75967500D01*
X83435683Y-75967500D01*
X83289927Y-75996493D01*
X83289919Y-75996495D01*
X83210686Y-76029315D01*
X83202589Y-76032669D01*
X83185950Y-76039561D01*
X83138497Y-76049000D01*
X82559583Y-76049000D01*
X82492544Y-76029315D01*
X82471902Y-76012681D01*
X79840492Y-73381269D01*
X79840485Y-73381263D01*
X79727312Y-73305644D01*
X79727309Y-73305642D01*
X79601561Y-73253556D01*
X79601551Y-73253553D01*
X79468060Y-73227000D01*
X79468058Y-73227000D01*
X74908316Y-73227000D01*
X74897418Y-73223800D01*
X74886125Y-73224998D01*
X74864497Y-73214133D01*
X74841277Y-73207315D01*
X74832225Y-73197921D01*
X74823691Y-73193634D01*
X74801584Y-73166121D01*
X74765809Y-73105629D01*
X74748626Y-73037905D01*
X74765810Y-72979386D01*
X74801301Y-72919374D01*
X74801304Y-72919367D01*
X74845218Y-72768214D01*
X74845220Y-72768202D01*
X74847999Y-72732891D01*
X74848000Y-72732879D01*
X74848000Y-72418000D01*
X71308000Y-72418000D01*
X71308000Y-72732891D01*
X71310779Y-72768202D01*
X71310781Y-72768214D01*
X71354695Y-72919366D01*
X71354699Y-72919375D01*
X71390190Y-72979388D01*
X71407373Y-73047112D01*
X71390191Y-73105628D01*
X71354233Y-73166429D01*
X71354232Y-73166433D01*
X71310282Y-73317709D01*
X71310281Y-73317715D01*
X71307500Y-73353055D01*
X21000500Y-73353055D01*
X21000500Y-71624500D01*
X21020185Y-71557461D01*
X21072989Y-71511706D01*
X21124500Y-71500500D01*
X71184000Y-71500500D01*
X71251039Y-71520185D01*
G37*
%TD.AperFunction*%
%TD*%
M02*
